{"glyphs":{"0":{"ha":903,"x_min":56,"x_max":847,"o":"m 163 115 q 109 179 163 115 q 56 458 56 243 q 163 802 56 674 q 454 931 271 931 q 742 802 638 931 q 847 458 847 674 q 742 115 847 243 q 454 -14 638 -14 q 163 115 271 -14 m 251 446 q 281 237 260 319 q 353 104 303 154 q 481 60 403 54 q 629 172 592 67 q 656 471 667 276 q 626 680 647 597 q 555 813 604 763 q 428 857 506 863 q 309 797 351 853 q 256 657 267 742 q 251 446 244 572 m 414 419 q 406 427 414 419 q 397 458 397 435 q 413 498 397 482 q 454 514 429 514 q 492 497 476 514 q 508 458 508 481 q 492 419 508 436 q 454 403 476 403 q 414 419 431 403 z "},"1":{"ha":642,"x_min":56,"x_max":586,"o":"m 56 0 l 56 44 q 186 72 147 44 q 225 167 225 100 l 225 669 l 56 669 l 56 742 q 233 772 186 742 q 311 917 279 803 l 417 917 l 417 167 q 456 72 417 100 q 586 44 494 44 l 586 0 l 56 0 z "},"2":{"ha":846,"x_min":56,"x_max":790,"o":"m 615 125 q 710 158 681 125 q 744 267 740 192 l 789 264 l 779 81 l 775 0 l 56 0 q 69 151 56 88 q 106 253 83 214 q 169 322 128 293 q 249 369 210 351 q 351 410 289 386 q 379 419 369 415 q 549 516 499 464 q 599 668 599 568 q 443 858 599 858 q 285 626 225 858 l 93 599 q 95 737 78 676 q 151 833 113 797 q 244 891 189 868 q 351 922 300 914 q 456 931 403 931 q 572 917 517 931 q 678 876 628 904 q 760 796 729 849 q 790 672 790 743 q 770 567 790 614 q 725 492 750 521 q 652 438 700 464 q 575 400 604 411 q 490 372 546 389 q 417 349 433 354 q 233 257 282 301 q 183 125 183 213 l 615 125 z "},"3":{"ha":832,"x_min":46,"x_max":776,"o":"m 594 486 q 776 253 776 424 q 679 53 776 121 q 417 -14 582 -14 q 296 -3 353 -14 q 188 30 239 7 q 105 90 136 53 q 60 182 74 128 q 65 308 46 236 l 257 281 q 258 113 215 167 q 400 58 301 58 q 539 110 493 58 q 585 243 585 163 q 527 401 585 351 q 340 450 469 450 l 340 522 q 511 567 460 522 q 563 700 563 611 q 411 858 563 858 q 271 803 313 858 q 271 626 229 747 l 79 599 q 74 730 60 674 q 118 824 88 786 q 200 886 149 863 q 306 920 251 910 q 424 931 361 931 q 660 871 567 931 q 754 693 754 811 q 594 486 754 546 z "},"4":{"ha":913,"x_min":56,"x_max":857,"o":"m 857 172 l 729 172 l 729 167 q 745 72 729 100 q 799 44 761 44 l 799 0 l 468 0 l 468 44 q 522 72 506 44 q 538 167 538 100 l 538 172 l 56 172 l 56 297 q 193 394 124 338 q 333 529 263 451 q 458 708 403 607 q 538 917 513 810 l 729 917 l 729 297 l 857 297 l 857 172 m 151 297 l 538 297 l 538 744 q 388 483 494 599 q 151 297 281 368 z "},"5":{"ha":888,"x_min":44,"x_max":832,"o":"m 500 615 q 610 601 557 615 q 716 557 664 588 q 800 465 768 526 q 832 321 832 404 q 713 72 832 158 q 421 -14 593 -14 q 271 3 340 -14 q 146 55 201 19 q 67 153 90 90 q 65 300 44 217 l 257 272 q 419 58 181 58 q 585 128 531 58 q 640 325 640 199 q 593 485 640 426 q 449 543 546 543 q 181 406 292 543 l 103 392 l 149 917 l 775 917 l 781 833 l 790 661 l 746 658 q 712 760 742 729 q 615 792 682 792 l 217 792 l 186 492 q 500 615 307 615 z "},"6":{"ha":903,"x_min":56,"x_max":847,"o":"m 247 468 q 411 553 310 528 q 610 566 513 579 q 777 480 707 553 q 847 285 847 407 q 752 76 847 165 q 464 -14 657 -14 q 56 454 56 -14 q 69 592 56 526 q 114 721 82 658 q 192 829 146 783 q 312 903 239 875 q 476 931 385 931 q 734 847 646 931 q 811 647 822 763 l 619 675 q 471 858 639 858 q 297 760 347 858 q 247 478 247 663 l 247 468 m 463 58 q 560 78 519 58 q 619 131 600 97 q 647 198 639 164 q 656 272 656 232 q 596 441 656 385 q 442 485 536 497 q 249 396 347 474 q 255 290 250 335 q 274 198 260 244 q 310 123 288 151 q 372 76 333 94 q 463 58 410 58 z "},"7":{"ha":878,"x_min":56,"x_max":822,"o":"m 71 917 l 822 917 l 822 797 q 527 436 603 608 q 451 0 451 264 l 260 0 q 278 227 260 125 q 342 433 296 329 q 475 626 388 536 q 692 792 563 717 l 231 792 q 134 760 164 792 q 100 657 104 729 l 56 660 l 65 833 l 71 917 z "},"8":{"ha":913,"x_min":56,"x_max":857,"o":"m 625 511 q 796 398 735 461 q 857 244 857 335 q 823 119 857 172 q 729 39 789 67 q 602 -1 669 11 q 457 -14 535 -14 q 169 47 282 -14 q 56 224 56 107 q 78 321 56 278 q 138 392 100 364 q 210 436 175 419 q 285 464 246 453 q 97 693 97 553 q 129 806 97 758 q 216 880 161 854 q 333 918 271 906 q 467 931 396 931 q 715 875 615 931 q 815 718 815 819 q 759 586 815 638 q 625 511 703 535 m 475 858 q 335 824 381 858 q 289 738 289 790 q 329 644 289 681 q 453 578 369 607 q 490 565 465 574 q 526 551 514 556 q 635 626 601 586 q 668 721 668 667 q 622 819 668 779 q 475 858 576 858 m 442 58 q 665 211 665 58 q 613 319 665 275 q 453 400 561 363 q 383 425 392 422 q 243 333 283 376 q 203 229 203 289 q 263 106 203 154 q 442 58 322 58 z "},"9":{"ha":903,"x_min":56,"x_max":847,"o":"m 439 931 q 847 463 847 931 q 834 324 847 390 q 789 196 821 258 q 710 88 757 133 q 591 14 664 42 q 426 -14 518 -14 q 169 70 257 -14 q 92 269 81 154 l 283 242 q 432 58 264 58 q 606 156 556 58 q 656 439 656 254 l 656 449 q 492 363 593 389 q 293 351 390 338 q 126 437 196 364 q 56 632 56 510 q 151 841 56 751 q 439 931 246 931 m 247 644 q 307 476 247 532 q 461 431 367 419 q 654 521 556 443 q 648 627 653 582 q 629 719 643 672 q 592 794 615 765 q 531 840 569 822 q 440 858 493 858 q 343 839 383 858 q 283 786 303 819 q 256 719 264 753 q 247 644 247 685 z "}," ":{"ha":300,"x_min":0,"x_max":0,"o":""},"!":{"ha":325,"x_min":56,"x_max":269,"o":"m 126 322 q 96 591 122 443 q 69 794 69 739 q 90 899 69 867 q 163 931 111 931 q 234 899 213 931 q 256 794 256 867 q 229 591 256 739 q 199 322 203 443 l 126 322 m 163 -14 q 85 17 114 -14 q 56 94 56 47 q 85 169 56 139 q 163 200 115 200 q 240 169 210 200 q 269 94 269 139 q 240 17 269 49 q 163 -14 210 -14 z "},"\"":{"ha":489,"x_min":56,"x_max":433,"o":"m 106 646 q 78 823 101 736 q 56 935 56 910 q 135 1014 56 1014 q 214 935 214 1014 q 191 823 214 910 q 164 646 168 736 l 106 646 m 325 646 q 298 823 321 736 q 275 935 275 910 q 354 1014 275 1014 q 433 935 433 1014 q 410 823 433 910 q 383 646 388 736 l 325 646 z "},"#":{"ha":1119,"x_min":56,"x_max":1064,"o":"m 1064 622 l 835 622 l 743 294 l 947 294 l 947 222 l 724 222 l 639 -83 l 561 -83 l 646 222 l 343 222 l 258 -83 l 181 -83 l 265 222 l 56 222 l 56 294 l 285 294 l 376 622 l 172 622 l 172 694 l 396 694 l 481 1000 l 558 1000 l 474 694 l 776 694 l 861 1000 l 939 1000 l 854 694 l 1064 694 l 1064 622 m 665 294 l 757 622 l 454 622 l 363 294 l 665 294 z "},"$":{"ha":754,"x_min":47,"x_max":706,"o":"m 699 297 q 624 140 699 192 q 428 83 549 89 l 435 -110 l 379 -112 l 372 83 q 265 94 314 85 q 169 125 215 104 q 98 179 124 146 q 60 263 72 213 q 65 379 47 313 l 257 351 q 369 156 190 164 l 361 388 q 351 391 358 389 q 339 394 343 393 q 230 428 268 414 q 149 467 192 442 q 88 527 107 492 q 69 611 69 563 q 144 753 69 706 q 346 806 219 801 l 339 999 l 393 1003 l 400 806 q 624 738 543 800 q 669 549 706 676 l 478 576 q 403 732 524 715 l 411 521 l 417 519 q 505 494 476 503 q 578 467 533 486 q 644 426 622 447 q 682 372 665 406 q 699 297 699 339 m 261 643 q 281 581 261 604 q 356 539 301 558 l 349 732 q 261 643 261 721 m 425 160 q 507 263 507 175 q 485 326 507 303 q 417 368 463 350 l 425 160 z "},"%":{"ha":1333,"x_min":56,"x_max":1278,"o":"m 411 919 q 504 933 463 914 q 578 978 546 951 q 649 1026 610 1004 q 755 1043 689 1047 q 911 1000 821 1039 l 500 -83 l 422 -83 l 833 1000 q 769 973 797 1000 q 718 919 740 946 q 640 876 696 892 q 493 883 583 861 q 589 682 589 815 q 523 506 589 579 q 321 433 457 433 q 120 506 185 433 q 56 682 56 579 q 120 858 56 785 q 321 931 185 931 q 411 919 369 931 m 322 506 q 385 546 372 506 q 397 682 397 586 q 396 756 397 731 q 388 808 394 781 q 365 847 381 836 q 322 858 349 858 q 260 818 272 858 q 247 682 247 778 q 249 608 247 633 q 257 556 250 583 q 280 517 264 528 q 322 506 296 506 m 809 410 q 841 447 809 410 q 1010 483 874 483 q 1212 410 1146 483 q 1278 235 1278 338 q 1212 59 1278 132 q 1010 -14 1146 -14 q 809 59 874 -14 q 744 235 744 132 q 809 410 744 338 m 1011 58 q 1074 99 1061 58 q 1086 235 1086 139 q 1085 308 1086 283 q 1076 361 1083 333 q 1053 400 1069 389 q 1011 411 1038 411 q 949 371 961 411 q 936 235 936 331 q 938 161 936 186 q 946 108 939 136 q 969 69 953 81 q 1011 58 985 58 z "},"&":{"ha":1103,"x_min":56,"x_max":1047,"o":"m 1047 560 q 978 435 1047 478 q 793 372 910 393 q 863 231 863 319 q 764 52 863 118 q 494 -14 665 -14 q 176 65 297 -14 q 56 279 56 144 q 282 539 56 456 q 167 613 210 565 q 125 725 125 661 q 218 876 125 822 q 450 931 311 931 q 582 915 521 931 q 690 867 643 900 q 749 783 736 833 q 739 661 763 732 l 547 689 q 575 815 603 771 q 463 858 547 858 q 317 722 317 858 q 360 619 317 657 q 508 592 404 582 l 508 519 q 222 288 222 474 q 293 121 222 183 q 511 58 364 58 q 715 106 640 58 q 790 239 790 153 q 770 315 790 283 q 726 363 750 347 q 666 355 703 360 q 607 347 629 350 q 555 338 585 343 q 508 328 525 333 q 475 316 492 324 q 451 298 458 308 q 443 275 443 288 q 496 233 443 233 q 533 249 522 233 q 529 283 544 264 l 688 311 q 656 206 703 250 q 518 161 608 161 q 407 197 443 161 q 371 283 371 232 q 433 402 371 357 q 584 463 496 447 q 761 489 672 479 q 913 516 850 499 q 975 568 975 533 q 924 610 975 610 q 885 594 897 610 q 889 560 874 579 l 731 532 q 763 638 715 593 q 900 682 810 682 q 1011 647 975 682 q 1047 560 1047 611 z "},"'":{"ha":269,"x_min":56,"x_max":214,"o":"m 106 646 q 78 823 101 736 q 56 935 56 910 q 135 1014 56 1014 q 214 935 214 1014 q 191 823 214 910 q 164 646 168 736 l 106 646 z "},"(":{"ha":519,"x_min":56,"x_max":464,"o":"m 56 417 q 82 622 56 531 q 162 782 108 713 q 269 899 215 851 q 403 1000 322 946 l 464 940 q 303 715 358 839 q 247 417 247 590 q 464 -107 247 103 l 403 -167 q 269 -62 326 -115 q 161 61 213 -10 q 83 222 110 132 q 56 417 56 311 z "},")":{"ha":519,"x_min":56,"x_max":464,"o":"m 464 417 q 437 222 464 311 q 358 61 410 132 q 250 -62 307 -10 q 117 -167 193 -115 l 56 -107 q 272 417 272 103 q 217 715 272 590 q 56 940 161 839 l 117 1000 q 251 899 197 946 q 358 782 304 851 q 438 622 411 713 q 464 417 464 531 z "},"*":{"ha":608,"x_min":33,"x_max":557,"o":"m 519 700 q 551 656 546 683 q 542 604 557 629 q 501 568 526 576 q 447 575 475 560 q 394 638 426 588 q 315 719 363 689 q 348 611 319 664 q 376 535 376 558 q 356 485 376 503 q 304 467 335 467 q 253 485 274 467 q 232 535 232 503 q 260 611 232 558 q 293 719 289 664 q 233 666 256 696 q 197 611 211 636 q 163 575 182 586 q 108 568 133 560 q 67 603 83 576 q 90 700 33 665 q 170 713 111 711 q 281 740 229 715 q 170 767 229 765 q 90 781 111 769 q 67 878 33 815 q 108 913 83 904 q 163 906 133 921 q 197 869 182 894 q 233 815 211 844 q 293 761 256 785 q 260 869 289 817 q 232 946 232 922 q 253 996 232 978 q 304 1014 274 1014 q 356 996 335 1014 q 376 946 376 978 q 348 869 376 922 q 315 761 319 817 q 394 842 363 792 q 447 906 426 893 q 501 913 475 921 q 542 876 526 904 q 551 824 557 851 q 519 781 546 797 q 439 767 499 769 q 328 740 379 765 q 439 713 379 715 q 519 700 499 711 z "},"+":{"ha":667,"x_min":56,"x_max":611,"o":"m 456 397 l 611 397 l 611 297 l 456 297 q 367 314 417 297 q 383 225 383 264 l 383 69 l 283 69 l 283 225 q 300 314 283 264 q 211 297 250 297 l 56 297 l 56 397 l 211 397 q 300 381 250 397 q 283 469 283 431 l 283 625 l 383 625 l 383 469 q 367 381 383 431 q 456 397 417 397 z "},",":{"ha":333,"x_min":56,"x_max":278,"o":"m 74 -140 q 165 -82 125 -121 q 204 3 204 -43 q 154 -14 183 -14 q 82 17 108 -14 q 56 94 56 49 q 85 169 56 139 q 163 200 115 200 q 245 163 213 200 q 278 57 278 125 q 222 -91 278 -24 q 81 -185 165 -158 l 74 -140 z "},"-":{"ha":578,"x_min":56,"x_max":522,"o":"m 144 401 l 522 401 q 521 361 522 375 q 512 328 519 347 q 485 301 504 310 q 433 293 465 293 l 56 293 q 57 333 56 319 q 66 366 58 347 q 93 393 74 385 q 144 401 113 401 z "},".":{"ha":325,"x_min":56,"x_max":269,"o":"m 163 -14 q 85 17 114 -14 q 56 94 56 47 q 85 169 56 139 q 163 200 115 200 q 240 169 210 200 q 269 94 269 139 q 240 17 269 49 q 163 -14 210 -14 z "},"/":{"ha":600,"x_min":56,"x_max":544,"o":"m 544 1000 l 133 -83 l 56 -83 l 467 1000 l 544 1000 z "},":":{"ha":325,"x_min":56,"x_max":269,"o":"m 163 486 q 85 517 114 486 q 56 594 56 547 q 85 669 56 639 q 163 700 115 700 q 240 669 210 700 q 269 594 269 639 q 240 517 269 549 q 163 486 210 486 m 163 -14 q 85 17 114 -14 q 56 94 56 47 q 85 169 56 139 q 163 200 115 200 q 240 169 210 200 q 269 94 269 139 q 240 17 269 49 q 163 -14 210 -14 z "},";":{"ha":333,"x_min":56,"x_max":278,"o":"m 163 486 q 85 517 114 486 q 56 594 56 547 q 85 669 56 639 q 163 700 115 700 q 240 669 210 700 q 269 594 269 639 q 240 517 269 549 q 163 486 210 486 m 74 -140 q 165 -82 125 -121 q 204 3 204 -43 q 154 -14 183 -14 q 82 17 108 -14 q 56 94 56 49 q 85 169 56 139 q 163 200 115 200 q 245 163 213 200 q 278 57 278 125 q 222 -91 278 -24 q 81 -185 165 -158 l 74 -140 z "},"<":{"ha":658,"x_min":56,"x_max":603,"o":"m 603 67 l 56 297 l 56 397 l 603 628 l 603 519 l 292 389 q 164 354 214 354 l 164 340 q 292 306 214 340 l 603 175 l 603 67 z "},"=":{"ha":667,"x_min":56,"x_max":611,"o":"m 56 508 l 611 508 l 611 408 l 56 408 l 56 508 m 56 286 l 611 286 l 611 186 l 56 186 l 56 286 z "},">":{"ha":658,"x_min":56,"x_max":603,"o":"m 56 67 l 56 175 l 367 306 q 494 340 444 340 l 494 354 q 367 389 444 354 l 56 519 l 56 628 l 603 397 l 603 297 l 56 67 z "},"?":{"ha":763,"x_min":46,"x_max":707,"o":"m 707 736 q 701 685 707 708 q 680 642 694 661 q 653 610 665 624 q 616 583 642 597 q 578 562 590 568 q 536 543 567 556 q 497 526 506 531 q 388 451 414 489 q 374 322 361 413 l 301 322 q 291 372 294 349 q 291 415 288 396 q 296 449 294 435 q 309 479 297 464 q 326 503 321 494 q 349 524 331 511 q 372 542 367 538 q 400 560 378 546 q 426 576 422 574 q 515 739 515 633 q 485 828 515 799 q 385 858 454 858 q 340 854 360 858 q 294 838 319 850 q 259 802 269 825 q 244 742 249 779 q 257 649 239 704 l 65 621 q 60 749 46 694 q 101 838 74 803 q 180 893 129 872 q 283 922 231 914 q 400 931 336 931 q 626 881 546 931 q 707 736 707 831 m 350 -14 q 272 17 301 -14 q 243 94 243 47 q 272 169 243 139 q 350 200 301 200 q 427 169 397 200 q 457 94 457 139 q 427 17 457 49 q 350 -14 397 -14 z "},"@":{"ha":1242,"x_min":56,"x_max":1186,"o":"m 271 389 q 366 609 282 524 q 593 694 450 694 q 818 533 783 694 l 832 533 l 833 569 q 846 626 835 604 q 878 658 857 649 q 917 669 900 667 q 964 672 935 672 l 939 289 q 936 219 936 240 q 940 169 936 199 q 956 129 943 140 q 993 118 969 118 q 1114 375 1114 118 q 990 726 1114 593 q 646 858 867 858 q 272 722 417 858 q 128 356 128 585 q 269 -1 128 140 q 663 -143 410 -143 q 1142 33 963 -143 l 1178 -29 q 663 -215 986 -215 q 399 -168 517 -215 q 207 -41 281 -121 q 94 140 133 39 q 56 356 56 242 q 219 771 56 611 q 646 931 383 931 q 1043 774 900 931 q 1186 375 1186 618 q 1132 130 1186 214 q 978 46 1078 46 q 856 94 897 46 q 822 217 815 143 l 808 217 q 719 76 786 125 q 551 28 653 28 q 334 124 411 28 q 271 389 257 221 m 463 389 q 456 240 454 304 q 490 138 458 176 q 588 100 522 100 q 664 120 632 100 q 714 181 696 140 q 742 261 732 221 q 758 361 751 301 q 763 490 765 432 q 728 585 760 549 q 638 622 697 622 q 569 608 599 622 q 521 572 539 593 q 490 518 503 551 q 472 456 478 485 q 463 389 467 428 z "},"A":{"ha":1149,"x_min":28,"x_max":1121,"o":"m 983 154 q 1121 44 1028 44 l 1121 0 l 700 0 l 700 44 q 788 69 774 44 q 776 154 803 93 l 674 410 l 346 410 l 243 154 q 231 69 217 93 q 319 44 246 44 l 319 0 l 28 0 l 28 44 q 165 154 121 44 l 449 861 l 447 860 l 411 769 q 421 849 436 826 q 338 872 406 872 l 338 917 l 678 917 l 983 154 m 375 482 l 644 482 l 510 818 l 375 482 m 411 769 l 408 763 l 411 769 z "},"B":{"ha":939,"x_min":56,"x_max":883,"o":"m 715 492 q 883 249 883 432 q 875 174 883 208 q 854 116 867 140 q 818 73 842 92 q 776 42 794 54 q 723 22 757 31 q 667 8 689 13 q 606 2 646 4 q 546 0 565 0 q 486 0 526 0 l 56 0 l 56 44 q 109 72 93 44 q 125 167 125 100 l 125 750 q 109 844 125 817 q 56 872 93 872 l 56 917 l 458 917 q 531 916 507 917 q 599 913 556 915 q 667 905 643 911 q 724 889 690 899 q 776 863 758 879 q 813 823 794 846 q 840 767 832 800 q 847 694 847 735 q 715 492 847 549 m 317 844 l 317 525 l 439 525 q 607 556 558 525 q 656 685 656 586 q 607 814 656 783 q 439 844 558 844 l 317 844 m 475 72 q 640 116 588 72 q 692 263 692 160 q 640 409 692 365 q 475 453 588 453 l 317 453 l 317 72 l 475 72 z "},"C":{"ha":967,"x_min":56,"x_max":917,"o":"m 56 458 q 175 808 56 685 q 524 931 294 931 q 814 840 711 931 q 911 597 917 750 l 719 625 q 681 796 731 733 q 524 858 632 858 q 247 458 247 858 q 308 161 247 264 q 510 58 368 58 q 719 306 742 58 l 911 333 q 812 78 917 169 q 510 -14 707 -14 q 169 108 282 -14 q 56 458 56 231 z "},"D":{"ha":1008,"x_min":56,"x_max":953,"o":"m 492 917 q 600 908 547 917 q 720 871 653 900 q 836 794 788 842 q 919 660 885 747 q 953 458 953 574 q 919 256 953 343 q 836 122 885 169 q 720 46 788 75 q 600 8 653 17 q 492 0 547 0 l 56 0 l 56 44 q 109 72 93 44 q 125 167 125 100 l 125 750 q 109 844 125 817 q 56 872 93 872 l 56 917 l 492 917 m 456 72 q 685 163 610 72 q 761 458 761 253 q 685 754 761 664 q 456 844 610 844 l 317 844 l 317 72 l 456 72 z "},"E":{"ha":856,"x_min":56,"x_max":800,"o":"m 756 215 l 800 211 l 782 28 l 779 0 l 56 0 l 56 44 q 109 72 93 44 q 125 167 125 100 l 125 750 q 109 844 125 817 q 56 872 93 872 l 56 917 l 765 917 l 768 889 l 786 706 l 742 701 q 703 811 735 778 q 606 844 672 844 l 317 844 l 317 501 l 483 501 q 578 517 550 501 q 606 571 606 533 l 650 571 l 650 360 l 606 360 q 578 413 606 397 q 483 429 550 429 l 317 429 l 317 72 l 619 72 q 717 106 686 72 q 756 215 749 139 z "},"F":{"ha":847,"x_min":56,"x_max":792,"o":"m 608 844 l 317 844 l 317 451 l 531 451 q 625 467 597 451 q 653 521 653 483 l 697 521 l 697 310 l 653 310 q 625 363 653 347 q 531 379 597 379 l 317 379 l 317 167 q 333 72 317 100 q 386 44 349 44 l 386 0 l 56 0 l 56 44 q 109 72 93 44 q 125 167 125 100 l 125 750 q 109 844 125 817 q 56 872 93 872 l 56 917 l 768 917 l 769 900 l 792 672 l 747 668 q 706 803 738 761 q 608 844 674 844 z "},"G":{"ha":1078,"x_min":56,"x_max":1050,"o":"m 1050 418 l 1046 374 q 964 352 988 378 q 940 260 940 326 l 940 143 q 535 -14 788 -14 q 178 113 301 -14 q 56 458 56 239 q 188 801 56 672 q 540 931 319 931 q 851 840 744 931 q 953 589 958 750 l 761 617 q 715 794 772 729 q 540 858 657 858 q 247 458 247 858 q 321 160 247 261 q 535 58 394 58 q 749 121 661 58 l 749 274 q 701 371 749 339 q 544 410 653 403 l 547 454 l 1050 418 z "},"H":{"ha":1083,"x_min":56,"x_max":1028,"o":"m 1028 872 q 974 844 990 872 q 958 750 958 817 l 958 167 q 974 72 958 100 q 1028 44 990 44 l 1028 0 l 697 0 l 697 44 q 751 72 735 44 q 767 167 767 100 l 767 469 l 317 469 l 317 167 q 333 72 317 100 q 386 44 349 44 l 386 0 l 56 0 l 56 44 q 109 72 93 44 q 125 167 125 100 l 125 750 q 109 844 125 817 q 56 872 93 872 l 56 917 l 386 917 l 386 872 q 333 844 349 872 q 317 750 317 817 l 317 542 l 767 542 l 767 750 q 751 844 767 817 q 697 872 735 872 l 697 917 l 1028 917 l 1028 872 z "},"I":{"ha":442,"x_min":56,"x_max":386,"o":"m 56 0 l 56 44 q 109 72 93 44 q 125 167 125 100 l 125 750 q 109 844 125 817 q 56 872 93 872 l 56 917 l 386 917 l 386 872 q 333 844 349 872 q 317 750 317 817 l 317 167 q 333 72 317 100 q 386 44 349 44 l 386 0 l 56 0 z "},"J":{"ha":436,"x_min":14,"x_max":381,"o":"m 381 917 l 381 872 q 327 844 343 872 q 311 750 311 817 l 311 8 q 244 -212 311 -142 q 32 -306 176 -283 l 14 -233 q 72 -203 50 -224 q 104 -147 94 -182 q 117 -78 114 -111 q 119 8 119 -46 l 119 750 q 103 844 119 817 q 50 872 88 872 l 50 917 l 381 917 z "},"K":{"ha":1008,"x_min":56,"x_max":994,"o":"m 811 254 q 890 88 850 131 q 994 44 931 44 l 994 0 q 738 40 817 0 q 622 215 658 79 q 606 276 615 239 q 592 331 597 313 q 578 378 588 350 q 560 420 568 406 q 537 452 551 435 q 506 478 522 469 q 465 492 489 486 q 410 499 440 499 l 317 418 l 317 167 q 333 72 317 100 q 386 44 349 44 l 386 0 l 56 0 l 56 44 q 109 72 93 44 q 125 167 125 100 l 125 750 q 109 844 125 817 q 56 872 93 872 l 56 917 l 386 917 l 386 872 q 333 844 349 872 q 317 750 317 817 l 317 514 l 658 808 q 706 860 707 850 q 603 872 703 872 l 603 917 l 971 917 l 971 872 q 769 808 844 872 l 489 567 l 506 581 l 506 567 q 624 549 575 568 q 707 485 672 531 q 763 390 742 439 q 811 254 783 342 z "},"L":{"ha":842,"x_min":56,"x_max":800,"o":"m 756 215 l 800 211 l 782 28 l 779 0 l 56 0 l 56 44 q 109 72 93 44 q 125 167 125 100 l 125 750 q 109 844 125 817 q 56 872 93 872 l 56 917 l 386 917 l 386 872 q 333 844 349 872 q 317 750 317 817 l 317 72 l 619 72 q 717 106 686 72 q 756 215 749 139 z "},"M":{"ha":1386,"x_min":56,"x_max":1331,"o":"m 1331 872 q 1277 844 1293 872 q 1261 750 1261 817 l 1261 167 q 1277 72 1261 100 q 1331 44 1293 44 l 1331 0 l 1000 0 l 1000 44 q 1053 72 1038 44 q 1069 167 1069 100 l 1069 736 l 747 0 l 538 0 l 206 736 l 206 167 q 222 72 206 100 q 275 44 238 44 l 275 0 l 56 0 l 56 44 q 109 72 93 44 q 125 167 125 100 l 125 750 q 109 844 125 817 q 56 872 93 872 l 56 917 l 147 917 q 308 894 261 917 q 397 778 356 871 l 707 86 l 1008 778 q 1099 890 1047 865 q 1239 917 1151 915 l 1331 917 l 1331 872 z "},"N":{"ha":1079,"x_min":56,"x_max":1024,"o":"m 56 0 l 56 44 q 109 72 93 44 q 125 167 125 100 l 125 750 q 109 844 125 817 q 56 872 93 872 l 56 917 l 147 917 q 290 891 239 914 q 390 806 340 868 l 882 174 l 882 750 q 866 844 882 817 q 813 872 850 872 l 813 917 l 1024 917 l 1024 872 q 970 844 986 872 q 954 750 954 817 l 954 0 q 796 22 850 0 q 689 111 742 44 l 197 743 l 197 167 q 213 72 197 100 q 267 44 229 44 l 267 0 l 56 0 z "},"O":{"ha":1053,"x_min":56,"x_max":997,"o":"m 180 117 q 118 183 180 117 q 56 458 56 249 q 180 799 56 668 q 526 931 304 931 q 873 799 749 931 q 997 458 997 668 q 873 117 997 249 q 526 -14 749 -14 q 180 117 304 -14 m 249 424 q 354 140 272 238 q 589 63 436 43 q 733 133 679 74 q 803 282 788 192 q 804 493 819 372 q 698 777 779 681 q 464 854 617 874 q 278 723 329 838 q 249 424 226 608 z "},"P":{"ha":947,"x_min":56,"x_max":892,"o":"m 464 917 q 524 917 503 917 q 587 914 546 917 q 652 906 628 911 q 713 890 676 900 q 771 865 749 881 q 819 827 793 850 q 858 775 844 804 q 882 706 872 746 q 892 617 892 665 q 876 506 892 554 q 838 426 860 457 q 776 372 817 394 q 706 340 736 350 q 623 324 675 329 q 543 317 571 318 q 464 317 515 317 l 317 317 l 317 167 q 333 72 317 100 q 386 44 349 44 l 386 0 l 56 0 l 56 44 q 109 72 93 44 q 125 167 125 100 l 125 750 q 109 844 125 817 q 56 872 93 872 l 56 917 l 464 917 m 461 389 q 642 439 585 389 q 700 617 700 489 q 642 794 700 744 q 461 844 585 844 l 317 844 l 317 389 l 461 389 z "},"Q":{"ha":1053,"x_min":56,"x_max":997,"o":"m 738 -69 l 929 -42 q 890 -211 951 -137 q 715 -285 828 -285 q 580 -258 636 -285 q 479 -160 524 -231 q 456 -124 461 -132 q 434 -96 450 -115 q 402 -70 418 -76 q 365 -64 386 -64 q 236 -146 299 -64 l 190 -112 q 371 6 268 -7 q 138 169 219 49 q 56 458 56 290 q 180 799 56 668 q 526 931 304 931 q 873 799 749 931 q 997 458 997 668 q 873 117 997 249 q 526 -14 749 -14 l 508 -14 q 626 -133 575 -46 q 652 -174 643 -161 q 680 -200 661 -187 q 721 -212 699 -212 q 763 -191 751 -212 q 767 -137 775 -169 q 738 -69 760 -106 m 249 424 q 354 140 272 238 q 589 63 436 43 q 733 133 679 74 q 803 282 788 192 q 804 493 819 372 q 698 777 779 681 q 464 854 617 874 q 278 723 329 838 q 249 424 226 608 z "},"R":{"ha":983,"x_min":56,"x_max":969,"o":"m 789 267 q 865 88 822 132 q 969 44 907 44 l 969 0 q 853 3 897 0 q 759 18 810 6 q 678 55 708 31 q 622 122 647 79 q 583 228 596 165 q 553 356 565 317 q 515 427 542 394 q 448 467 488 460 q 335 475 408 475 l 317 475 l 317 167 q 333 72 317 100 q 386 44 349 44 l 386 0 l 56 0 l 56 44 q 109 72 93 44 q 125 167 125 100 l 125 750 q 109 844 125 817 q 56 872 93 872 l 56 917 l 450 917 q 511 916 489 917 q 576 911 533 915 q 647 899 619 907 q 708 876 674 892 q 761 838 742 860 q 794 780 781 815 q 808 700 808 744 q 625 490 808 532 q 789 267 751 421 m 317 547 l 447 547 q 617 694 617 547 q 447 844 617 844 l 317 844 l 317 547 z "},"S":{"ha":931,"x_min":43,"x_max":889,"o":"m 88 679 q 196 869 88 807 q 475 931 304 931 q 633 914 561 931 q 766 860 706 897 q 844 760 826 822 q 840 608 863 699 l 649 636 q 651 808 700 757 q 475 858 601 858 q 279 721 279 858 q 328 630 279 663 q 485 564 378 597 q 718 483 669 506 q 885 300 864 417 q 889 253 889 278 q 496 -14 889 -14 q 353 -3 419 -14 q 222 34 286 8 q 119 103 157 60 q 62 213 81 147 q 68 368 43 278 l 260 340 q 499 58 172 58 q 651 97 604 58 q 697 210 697 135 q 663 290 697 257 q 593 338 628 324 q 472 379 558 353 q 465 381 468 381 q 458 383 463 382 q 451 386 454 385 q 218 474 275 442 q 88 679 88 546 z "},"T":{"ha":964,"x_min":42,"x_max":922,"o":"m 904 889 l 922 706 l 878 701 q 840 811 871 778 q 742 844 808 844 l 578 844 l 578 167 q 594 72 578 100 q 647 44 610 44 l 647 0 l 317 0 l 317 44 q 370 72 354 44 q 386 167 386 100 l 386 844 l 222 844 q 124 811 156 844 q 86 701 93 778 l 42 706 l 60 889 l 63 917 l 901 917 l 904 889 z "},"U":{"ha":1042,"x_min":42,"x_max":1000,"o":"m 1000 917 l 1000 872 q 947 844 963 872 q 931 750 931 817 l 929 465 q 844 103 925 221 q 560 -14 763 -14 q 336 16 425 -14 q 199 110 247 46 q 131 258 150 175 q 111 465 111 342 l 111 750 q 95 844 111 817 q 42 872 79 872 l 42 917 l 372 917 l 372 872 q 319 844 335 872 q 303 750 303 817 l 301 465 q 362 147 301 236 q 582 58 422 58 q 794 155 733 58 q 858 465 854 251 l 860 750 q 844 844 860 817 q 790 872 828 872 l 790 917 l 1000 917 z "},"V":{"ha":1121,"x_min":14,"x_max":1107,"o":"m 1107 917 l 1107 872 q 969 763 1014 872 l 664 0 l 457 0 l 151 763 q 14 872 107 872 l 14 917 l 435 917 l 435 872 q 347 848 361 872 q 358 763 332 824 l 625 99 l 892 763 q 903 848 918 824 q 815 872 889 872 l 815 917 l 1107 917 z "},"W":{"ha":1768,"x_min":56,"x_max":1713,"o":"m 1713 917 l 1713 872 q 1576 758 1614 872 l 1321 0 l 1121 0 l 883 794 l 644 0 l 443 0 l 192 758 q 56 872 154 872 l 56 917 l 479 917 l 479 872 q 388 847 406 872 q 393 758 371 821 l 604 121 l 846 917 l 1044 917 l 1285 118 l 1500 758 q 1505 847 1522 822 q 1414 872 1488 872 l 1414 917 l 1713 917 z "},"X":{"ha":1067,"x_min":28,"x_max":1039,"o":"m 1039 872 q 888 783 954 872 l 647 465 l 653 458 l 889 135 q 1039 44 956 44 l 1039 0 l 586 0 l 586 44 q 685 63 674 44 q 656 133 697 81 l 464 390 l 271 133 q 240 63 228 81 q 339 44 251 44 l 339 0 l 28 0 l 28 44 q 179 133 113 44 l 419 451 l 414 458 l 178 782 q 28 872 111 872 l 28 917 l 481 917 l 481 872 q 381 854 393 872 q 413 783 369 836 l 603 526 l 796 783 q 828 854 839 836 q 728 872 817 872 l 728 917 l 1039 917 l 1039 872 z "},"Y":{"ha":1033,"x_min":14,"x_max":1019,"o":"m 1019 917 l 1019 872 q 861 774 921 872 l 619 369 l 619 167 q 635 72 619 100 q 689 44 651 44 l 689 0 l 358 0 l 358 44 q 412 72 396 44 q 428 167 428 100 l 428 369 l 174 775 q 14 872 114 872 l 14 917 l 449 917 l 449 872 q 368 851 376 872 q 399 775 360 831 l 593 467 l 776 774 q 805 851 814 831 q 724 872 796 872 l 724 917 l 1019 917 z "},"Z":{"ha":917,"x_min":56,"x_max":861,"o":"m 817 215 l 861 211 l 843 28 l 840 0 l 56 0 l 56 92 l 621 844 l 239 844 q 141 811 172 844 q 103 701 110 778 l 58 706 l 76 889 l 79 917 l 847 917 l 847 825 l 282 72 l 681 72 q 778 106 747 72 q 817 215 810 139 z "},"[":{"ha":483,"x_min":56,"x_max":428,"o":"m 56 -167 l 56 1000 l 428 1000 l 428 928 l 247 928 l 247 -94 l 428 -94 l 428 -167 l 56 -167 z "},"\\":{"ha":600,"x_min":56,"x_max":544,"o":"m 56 1000 l 133 1000 l 544 -83 l 467 -83 l 56 1000 z "},"]":{"ha":483,"x_min":56,"x_max":428,"o":"m 428 -167 l 56 -167 l 56 -94 l 236 -94 l 236 928 l 56 928 l 56 1000 l 428 1000 l 428 -167 z "},"^":{"ha":672,"x_min":56,"x_max":617,"o":"m 617 478 l 508 478 l 371 789 q 343 908 346 846 l 331 908 q 304 789 331 850 l 165 478 l 56 478 l 288 1000 l 388 1000 l 617 478 z "},"_":{"ha":1008,"x_min":56,"x_max":953,"o":"m 136 -58 l 953 -58 q 951 -95 953 -81 q 943 -131 950 -110 q 918 -164 936 -153 q 872 -175 900 -175 l 56 -175 q 57 -138 56 -153 q 65 -102 58 -124 q 90 -69 72 -81 q 136 -58 108 -58 z "},"`":{"ha":389,"x_min":56,"x_max":333,"o":"m 333 828 l 283 792 q 183 822 231 800 q 95 892 135 844 q 56 1000 56 939 l 228 972 q 253 880 228 911 q 333 828 279 849 z "},"a":{"ha":835,"x_min":56,"x_max":807,"o":"m 738 172 q 807 108 738 67 l 807 56 q 678 0 771 0 q 546 93 556 0 l 546 103 l 532 103 q 433 19 499 51 q 279 -14 368 -14 q 56 160 56 -14 q 77 248 56 208 q 140 315 99 288 q 226 362 182 342 q 333 396 271 382 q 440 417 394 410 q 544 431 486 424 q 511 590 540 543 q 401 636 482 636 q 285 591 315 636 q 285 465 254 546 l 101 429 q 155 628 69 547 q 421 708 240 708 q 665 631 592 708 q 738 367 738 553 l 738 172 m 546 267 l 546 283 l 546 360 q 331 297 414 346 q 247 168 247 249 q 346 58 247 58 q 488 125 431 58 q 546 267 546 192 z "},"b":{"ha":953,"x_min":36,"x_max":897,"o":"m 804 613 q 851 566 804 613 q 897 347 897 518 q 804 81 897 176 q 571 -14 711 -14 q 417 24 486 -14 q 311 131 349 63 l 297 131 l 297 104 q 288 53 297 74 q 265 23 278 33 q 222 7 251 13 q 172 1 193 1 q 106 0 150 0 l 106 833 q 90 928 106 900 q 36 956 74 956 l 36 1000 l 128 1000 q 259 978 221 1000 q 297 878 297 957 l 297 564 l 311 564 q 417 670 349 632 q 571 708 486 708 q 804 613 711 708 m 646 135 q 669 173 646 135 q 692 347 692 211 q 646 560 692 483 q 506 636 600 636 q 360 559 410 636 q 311 347 311 482 q 360 135 311 213 q 506 58 410 58 q 646 135 600 58 z "},"c":{"ha":847,"x_min":56,"x_max":797,"o":"m 77 211 q 66 242 77 211 q 56 347 56 274 q 77 483 56 421 q 142 597 99 546 q 262 678 186 649 q 438 708 338 708 q 695 624 607 708 q 778 403 783 539 l 586 431 q 556 583 596 531 q 436 636 517 636 q 291 563 335 636 q 247 347 247 489 q 291 132 247 206 q 436 58 335 58 q 565 114 519 58 q 600 278 610 169 l 792 306 q 703 74 797 161 q 436 -14 608 -14 q 260 16 336 -14 q 142 97 185 46 q 77 211 99 149 z "},"d":{"ha":958,"x_min":56,"x_max":917,"o":"m 149 81 q 102 129 149 81 q 56 347 56 176 q 149 613 56 518 q 382 708 242 708 q 535 670 467 708 q 642 564 604 632 l 656 564 l 656 833 q 640 928 656 900 q 586 956 624 956 l 586 1000 l 678 1000 q 809 978 771 1000 q 847 878 847 957 l 847 167 q 863 72 847 100 q 917 44 879 44 l 917 0 l 825 0 q 695 19 735 0 q 656 104 656 38 l 656 131 l 642 131 q 535 24 604 63 q 382 -14 467 -14 q 149 81 242 -14 m 307 560 q 284 522 307 560 q 261 347 261 483 q 307 135 261 211 q 447 58 353 58 q 592 135 543 58 q 642 347 642 213 q 592 559 642 482 q 447 636 543 636 q 307 560 353 636 z "},"e":{"ha":797,"x_min":56,"x_max":749,"o":"m 546 225 l 738 261 q 667 65 749 144 q 433 -14 585 -14 q 148 80 240 -14 q 56 329 56 174 q 163 606 56 504 q 447 708 271 708 q 660 654 579 708 q 742 504 742 600 q 691 379 742 429 q 563 312 640 329 q 403 296 486 294 q 247 315 321 297 q 294 131 249 203 q 428 58 340 58 q 528 96 497 58 q 546 225 558 133 m 429 636 q 250 390 268 636 q 474 388 397 357 q 550 508 550 419 q 429 636 550 636 z "},"f":{"ha":676,"x_min":56,"x_max":683,"o":"m 650 765 l 458 793 q 501 872 492 838 q 496 924 510 907 q 451 942 482 942 q 402 924 421 942 q 375 870 383 907 q 364 795 367 833 q 361 694 361 757 l 582 694 q 581 664 582 674 q 574 642 579 654 q 553 626 568 631 q 515 622 539 622 l 361 622 l 361 167 q 377 72 361 100 q 431 44 393 44 l 431 0 l 100 0 l 100 44 q 153 72 138 44 q 169 167 169 100 l 169 622 l 56 622 l 56 694 l 169 694 l 169 756 q 194 885 169 832 q 261 965 219 939 q 344 1003 303 992 q 433 1014 386 1014 q 631 944 578 1014 q 650 765 683 874 z "},"g":{"ha":867,"x_min":46,"x_max":860,"o":"m 850 578 l 731 550 q 734 611 742 594 q 706 628 726 628 q 657 607 675 628 q 707 458 707 546 q 624 277 707 346 q 390 208 540 208 q 256 226 319 208 q 218 174 218 199 q 259 140 218 146 q 410 144 300 135 q 661 110 568 157 q 754 -51 754 63 q 653 -232 754 -172 q 400 -292 553 -292 q 258 -278 322 -292 q 140 -234 193 -264 q 67 -147 88 -204 q 65 -10 46 -89 l 257 -37 q 399 -219 189 -219 q 563 -79 563 -219 q 515 16 563 -6 q 360 35 468 38 q 155 48 217 29 q 93 131 93 67 q 121 202 93 169 q 194 253 149 235 q 74 458 74 318 q 157 640 74 571 q 390 708 240 708 q 614 646 532 708 q 742 708 658 708 q 835 671 810 708 q 850 578 860 633 m 440 288 q 514 356 496 301 q 513 481 532 410 q 340 629 468 661 q 267 562 286 617 q 268 436 249 507 q 440 288 311 253 z "},"h":{"ha":946,"x_min":56,"x_max":890,"o":"m 821 167 q 837 72 821 100 q 890 44 853 44 l 890 0 l 560 0 l 560 44 q 613 72 597 44 q 629 167 629 100 l 629 490 q 522 636 629 636 q 406 578 454 636 q 338 435 358 519 q 317 250 317 350 l 317 167 q 333 72 317 100 q 386 44 349 44 l 386 0 l 56 0 l 56 44 q 109 72 93 44 q 125 167 125 100 l 125 833 q 109 928 125 900 q 56 956 93 956 l 56 1000 l 147 1000 q 278 978 240 1000 q 317 878 317 957 l 317 494 l 331 494 q 415 652 353 596 q 581 708 478 708 q 756 641 690 708 q 821 443 821 574 l 821 167 z "},"i":{"ha":442,"x_min":56,"x_max":386,"o":"m 207 761 q 133 785 160 761 q 106 847 106 808 q 133 907 106 883 q 207 931 161 931 q 281 906 253 931 q 308 847 308 882 q 281 785 308 810 q 207 761 253 761 m 317 574 l 317 167 q 333 72 317 100 q 386 44 349 44 l 386 0 l 56 0 l 56 44 q 109 72 93 44 q 125 167 125 100 l 125 528 q 109 622 125 594 q 56 650 93 650 l 56 694 l 147 694 q 280 674 243 694 q 317 574 317 653 z "},"j":{"ha":408,"x_min":14,"x_max":311,"o":"m 201 761 q 127 785 154 761 q 100 847 100 808 q 128 907 100 883 q 201 931 156 931 q 275 906 247 931 q 303 847 303 882 q 275 785 303 810 q 201 761 247 761 m 142 694 q 273 673 235 694 q 311 574 311 651 l 311 8 q 244 -212 311 -142 q 32 -306 176 -283 l 14 -233 q 72 -203 50 -224 q 104 -147 94 -182 q 117 -78 114 -111 q 119 8 119 -46 l 119 528 q 103 622 119 594 q 50 650 88 650 l 50 694 l 142 694 z "},"k":{"ha":956,"x_min":56,"x_max":928,"o":"m 744 254 q 823 87 783 129 q 928 44 863 44 l 928 0 q 784 7 838 0 q 682 36 731 14 q 604 101 633 58 q 557 215 575 144 q 499 338 531 307 q 397 369 467 369 l 317 310 l 317 167 q 333 72 317 100 q 386 44 349 44 l 386 0 l 56 0 l 56 44 q 109 72 93 44 q 125 167 125 100 l 125 833 q 109 928 125 900 q 56 956 93 956 l 56 1000 l 147 1000 q 278 978 240 1000 q 317 878 317 957 l 317 400 l 582 596 q 635 639 633 633 q 624 647 636 644 q 535 650 606 650 l 535 694 l 907 694 l 907 650 q 703 596 778 650 l 508 451 l 508 439 q 663 395 613 439 q 744 254 713 351 z "},"l":{"ha":428,"x_min":56,"x_max":386,"o":"m 317 878 l 317 167 q 333 72 317 100 q 386 44 349 44 l 386 0 l 56 0 l 56 44 q 109 72 93 44 q 125 167 125 100 l 125 833 q 109 928 125 900 q 56 956 93 956 l 56 1000 l 147 1000 q 278 978 240 1000 q 317 878 317 957 z "},"m":{"ha":1339,"x_min":56,"x_max":1283,"o":"m 1214 167 q 1230 72 1214 100 q 1283 44 1246 44 l 1283 0 l 953 0 l 953 44 q 1006 72 990 44 q 1022 167 1022 100 l 1022 521 q 944 636 1022 636 q 817 521 868 636 q 765 250 765 406 l 765 167 q 781 72 765 100 q 835 44 797 44 l 835 0 l 504 0 l 504 44 q 558 72 542 44 q 574 167 574 100 l 574 521 q 496 636 574 636 q 368 521 419 636 q 317 250 317 406 l 317 167 q 333 72 317 100 q 386 44 349 44 l 386 0 l 56 0 l 56 44 q 109 72 93 44 q 125 167 125 100 l 125 528 q 109 622 125 594 q 56 650 93 650 l 56 694 l 147 694 q 278 674 240 694 q 317 579 317 654 l 317 494 l 331 494 q 567 708 385 708 q 707 655 656 708 q 764 494 758 601 l 776 494 q 1015 708 835 708 q 1162 648 1110 708 q 1214 465 1214 588 l 1214 167 z "},"n":{"ha":946,"x_min":56,"x_max":890,"o":"m 821 167 q 837 72 821 100 q 890 44 853 44 l 890 0 l 560 0 l 560 44 q 613 72 597 44 q 629 167 629 100 l 629 490 q 522 636 629 636 q 406 578 454 636 q 338 435 358 519 q 317 250 317 350 l 317 167 q 333 72 317 100 q 386 44 349 44 l 386 0 l 56 0 l 56 44 q 109 72 93 44 q 125 167 125 100 l 125 528 q 109 622 125 594 q 56 650 93 650 l 56 694 l 147 694 q 278 674 240 694 q 317 579 317 654 l 317 494 l 331 494 q 415 652 353 596 q 581 708 478 708 q 756 641 690 708 q 821 443 821 574 l 821 167 z "},"o":{"ha":872,"x_min":56,"x_max":817,"o":"m 153 90 q 104 142 153 90 q 56 347 56 194 q 153 604 56 500 q 436 708 250 708 q 719 604 622 708 q 817 347 817 500 q 719 90 817 194 q 436 -14 622 -14 q 153 90 250 -14 m 249 324 q 321 117 267 186 q 475 61 375 49 q 624 371 660 85 q 551 577 606 508 q 397 633 497 646 q 249 324 213 610 z "},"p":{"ha":972,"x_min":56,"x_max":917,"o":"m 824 613 q 870 566 824 613 q 917 347 917 518 q 824 81 917 176 q 590 -14 731 -14 q 437 24 506 -14 q 331 131 368 63 l 317 131 l 317 -139 q 333 -233 317 -206 q 386 -261 349 -261 l 386 -306 l 56 -306 l 56 -261 q 109 -233 93 -261 q 125 -139 125 -206 l 125 528 q 109 622 125 594 q 56 650 93 650 l 56 694 l 147 694 q 278 676 240 694 q 317 590 317 657 l 317 564 l 331 564 q 437 670 368 632 q 590 708 506 708 q 824 613 731 708 m 665 135 q 688 173 665 135 q 711 347 711 211 q 665 560 711 483 q 525 636 619 636 q 380 559 429 636 q 331 347 331 482 q 380 135 331 213 q 525 58 429 58 q 665 135 619 58 z "},"q":{"ha":972,"x_min":56,"x_max":917,"o":"m 149 81 q 102 129 149 81 q 56 347 56 176 q 149 613 56 518 q 382 708 242 708 q 535 670 467 708 q 642 564 604 632 l 656 564 l 656 590 q 694 676 656 657 q 825 694 732 694 l 917 694 l 917 650 q 863 622 879 650 q 847 528 847 594 l 847 -139 q 863 -233 847 -206 q 917 -261 879 -261 l 917 -306 l 586 -306 l 586 -261 q 640 -233 624 -261 q 656 -139 656 -206 l 656 131 l 642 131 q 535 24 604 63 q 382 -14 467 -14 q 149 81 242 -14 m 307 560 q 284 522 307 560 q 261 347 261 483 q 307 135 261 211 q 447 58 353 58 q 592 135 543 58 q 642 347 642 213 q 592 559 642 482 q 447 636 543 636 q 307 560 353 636 z "},"r":{"ha":806,"x_min":56,"x_max":826,"o":"m 597 708 q 740 388 826 708 l 549 415 q 529 636 647 636 q 379 517 442 636 q 317 250 317 397 l 317 167 q 333 72 317 100 q 386 44 349 44 l 386 0 l 56 0 l 56 44 q 109 72 93 44 q 125 167 125 100 l 125 528 q 109 622 125 594 q 56 650 93 650 l 56 694 l 147 694 q 278 674 240 694 q 317 579 317 654 l 317 494 l 331 494 q 424 642 356 576 q 597 708 493 708 z "},"s":{"ha":726,"x_min":32,"x_max":685,"o":"m 56 514 q 138 661 56 614 q 357 708 221 708 q 461 701 413 708 q 554 674 510 693 q 625 626 599 656 q 663 553 651 597 q 656 451 674 510 l 464 479 q 458 601 492 565 q 361 636 425 636 q 247 546 247 636 q 278 474 247 499 q 403 422 310 449 q 491 397 463 406 q 564 369 519 389 q 630 329 608 350 q 668 275 651 308 q 685 200 685 242 q 600 38 685 89 q 383 -14 515 -14 q 269 -6 322 -14 q 167 23 217 3 q 88 76 117 43 q 46 161 60 110 q 51 282 32 213 l 243 254 q 372 58 175 58 q 463 88 433 58 q 493 165 493 117 q 455 244 493 219 q 325 297 417 269 q 216 331 254 317 q 135 369 178 344 q 74 430 93 394 q 56 514 56 465 z "},"t":{"ha":640,"x_min":56,"x_max":599,"o":"m 457 132 l 599 104 q 392 -14 557 -14 q 156 211 156 -14 l 156 622 l 56 622 l 56 694 q 185 749 146 706 q 225 917 225 793 l 347 917 l 347 694 l 557 694 q 556 664 557 674 q 549 642 554 654 q 528 626 543 631 q 490 622 514 622 l 347 622 l 347 236 q 349 160 347 186 q 355 108 350 135 q 372 69 360 81 q 404 58 383 58 q 443 74 431 58 q 457 132 456 90 z "},"u":{"ha":946,"x_min":56,"x_max":890,"o":"m 890 650 q 837 622 853 650 q 821 528 821 594 l 821 167 q 837 72 821 100 q 890 44 853 44 l 890 0 l 799 0 q 667 20 706 0 q 629 115 629 40 l 629 200 l 615 200 q 531 42 593 99 q 365 -14 468 -14 q 190 53 256 -14 q 125 251 125 121 l 125 528 q 109 622 125 594 q 56 650 93 650 l 56 694 l 386 694 l 386 650 q 333 622 349 650 q 317 528 317 594 l 317 204 q 424 58 317 58 q 540 117 492 58 q 608 260 588 175 q 629 444 629 344 l 629 528 q 613 622 629 594 q 560 650 597 650 l 560 694 l 890 694 l 890 650 z "},"v":{"ha":956,"x_min":14,"x_max":942,"o":"m 942 694 l 942 650 q 806 540 850 650 l 588 0 l 379 0 l 150 542 q 14 650 103 650 l 14 694 l 433 694 l 433 650 q 346 626 361 650 q 358 540 331 601 l 549 93 l 728 540 q 740 626 754 601 q 651 650 725 650 l 651 694 l 942 694 z "},"w":{"ha":1343,"x_min":14,"x_max":1329,"o":"m 1329 694 l 1329 650 q 1186 536 1224 650 l 1008 0 l 807 0 l 674 418 l 536 0 l 335 0 l 157 536 q 14 650 119 650 l 14 694 l 444 694 l 444 650 q 353 624 371 650 q 357 536 335 599 l 499 113 l 689 694 l 764 694 l 969 113 l 1110 536 q 1115 624 1132 599 q 1024 650 1097 650 l 1024 694 l 1329 694 z "},"x":{"ha":956,"x_min":28,"x_max":928,"o":"m 928 650 q 774 563 842 650 l 601 336 l 769 129 q 928 44 839 44 l 928 0 l 500 0 l 500 44 q 576 61 572 44 q 535 131 579 78 l 400 300 l 272 132 q 247 96 254 108 q 234 72 239 83 q 238 55 229 60 q 263 47 246 50 q 310 44 279 44 l 310 0 l 28 0 l 28 44 q 182 132 114 44 l 354 358 l 186 565 q 28 650 117 650 l 28 694 l 456 694 l 456 650 q 380 633 385 650 q 419 564 375 617 l 556 394 l 683 563 q 722 632 726 614 q 644 650 717 650 l 644 694 l 928 694 l 928 650 z "},"y":{"ha":985,"x_min":14,"x_max":971,"o":"m 971 694 l 971 650 q 825 540 869 650 l 585 -57 q 476 -226 536 -174 q 313 -278 417 -278 q 131 -209 186 -278 q 117 -28 75 -140 l 308 -56 q 280 -172 267 -139 q 342 -206 293 -206 q 507 -57 447 -206 l 529 0 l 375 0 l 160 540 q 14 650 115 650 l 14 694 l 442 694 l 442 650 q 353 626 368 650 q 364 540 338 601 l 556 65 l 747 540 q 759 626 774 601 q 671 650 744 650 l 671 694 l 971 694 z "},"z":{"ha":806,"x_min":56,"x_max":750,"o":"m 524 622 l 238 622 q 140 589 171 622 q 101 479 108 556 l 57 483 l 75 667 l 78 694 l 736 694 l 736 569 l 268 72 l 569 72 q 667 106 636 72 q 706 215 699 139 l 750 211 l 732 28 l 729 0 l 56 0 l 56 125 l 524 622 z "},"{":{"ha":524,"x_min":56,"x_max":468,"o":"m 56 381 l 56 453 q 185 476 146 453 q 224 541 225 499 q 218 643 224 583 q 207 806 206 735 q 229 924 208 876 q 308 990 250 971 q 468 1000 367 1010 l 468 928 q 422 924 440 931 q 397 903 404 918 q 386 869 389 888 q 386 824 383 851 q 393 773 389 797 q 403 716 397 749 q 410 660 408 683 q 366 490 418 557 q 225 424 314 424 l 225 410 q 366 343 314 410 q 410 174 418 276 q 403 117 408 150 q 393 60 397 85 q 386 9 389 36 q 386 -36 383 -18 q 397 -69 389 -54 q 422 -91 404 -85 q 468 -94 440 -97 l 468 -167 q 308 -157 367 -176 q 229 -90 250 -137 q 207 28 208 -43 q 218 190 206 99 q 224 292 224 250 q 185 358 225 335 q 56 381 146 381 z "},"|":{"ha":211,"x_min":56,"x_max":156,"o":"m 56 1000 l 156 1000 l 156 -208 l 56 -208 l 56 1000 z "},"}":{"ha":524,"x_min":56,"x_max":468,"o":"m 468 381 q 338 358 378 381 q 299 292 299 335 q 306 190 300 250 q 317 28 318 99 q 294 -90 315 -43 q 215 -157 274 -137 q 56 -167 157 -176 l 56 -94 q 101 -91 83 -97 q 127 -69 119 -85 q 138 -36 135 -54 q 138 9 140 -18 q 131 60 135 36 q 121 117 126 85 q 114 174 115 150 q 158 343 106 276 q 299 410 210 410 l 299 424 q 158 490 210 424 q 114 660 106 557 q 121 716 115 683 q 131 773 126 749 q 138 824 135 797 q 138 869 140 851 q 127 903 135 888 q 101 924 119 918 q 56 928 83 931 l 56 1000 q 215 990 157 1010 q 294 924 274 971 q 317 806 315 876 q 306 643 318 735 q 299 541 300 583 q 338 476 299 499 q 468 453 378 453 l 468 381 z "},"~":{"ha":675,"x_min":40,"x_max":635,"o":"m 499 236 q 381 267 442 236 q 265 328 319 297 q 171 358 211 358 q 140 247 96 358 l 68 275 q 72 413 40 368 q 176 458 103 458 q 294 428 233 458 q 410 367 356 397 q 504 336 464 336 q 535 447 579 336 l 607 419 q 603 281 635 326 q 499 236 572 236 z "},"¡":{"ha":325,"x_min":56,"x_max":269,"o":"m 163 708 q 240 677 210 708 q 269 600 269 646 q 240 525 269 556 q 163 494 210 494 q 85 525 115 494 q 56 600 56 556 q 85 678 56 647 q 163 708 114 708 m 126 372 l 199 372 q 229 103 203 251 q 256 -100 256 -44 q 234 -204 256 -172 q 163 -236 213 -236 q 90 -204 111 -236 q 69 -100 69 -172 q 96 103 69 -44 q 126 372 122 251 z "},"¢":{"ha":847,"x_min":56,"x_max":797,"o":"m 792 403 q 713 181 797 268 q 475 85 629 94 l 485 -110 l 429 -111 l 419 83 q 145 191 235 89 q 56 444 56 293 q 136 688 56 588 q 385 803 217 788 l 375 999 l 431 1000 l 440 806 q 696 720 608 804 q 778 500 783 636 l 586 528 q 558 678 596 626 q 443 733 521 731 l 472 158 q 574 224 539 169 q 600 375 610 279 l 792 403 m 247 444 q 417 157 247 169 l 388 728 q 247 444 247 697 z "},"£":{"ha":785,"x_min":56,"x_max":731,"o":"m 685 267 l 729 264 l 718 81 l 714 0 l 56 0 l 56 125 q 208 322 208 176 q 196 399 208 356 l 56 399 l 56 471 l 163 471 q 138 513 157 481 q 112 560 119 544 q 92 604 104 576 q 74 658 79 632 q 69 714 69 685 q 163 875 69 819 q 390 931 257 931 q 494 922 446 931 q 593 893 543 914 q 672 838 643 872 q 715 749 700 803 q 711 621 731 694 l 519 649 q 403 875 585 875 q 295 836 329 875 q 261 735 261 797 q 278 654 261 696 q 326 558 296 613 q 371 471 357 503 l 588 471 l 588 399 l 394 399 q 400 346 400 376 q 381 258 400 296 q 326 197 361 221 q 260 162 290 174 q 186 139 229 150 l 186 125 l 554 125 q 651 158 621 125 q 685 267 681 192 z "},"¤":{"ha":751,"x_min":56,"x_max":696,"o":"m 631 443 q 582 288 631 356 l 696 174 l 644 124 l 531 238 q 376 189 467 189 q 221 238 288 189 l 107 124 l 56 174 l 171 289 q 122 443 122 354 q 171 597 122 532 l 56 713 l 106 764 l 221 649 q 376 697 288 697 q 532 649 465 697 l 646 764 l 696 713 l 582 599 q 631 443 631 533 m 224 424 q 235 333 224 424 q 399 263 246 243 q 529 463 551 282 q 354 624 508 643 q 224 424 201 604 z "},"¥":{"ha":1117,"x_min":56,"x_max":1061,"o":"m 1061 917 l 1061 872 q 903 774 963 872 l 700 435 l 904 435 l 904 363 l 661 363 l 661 301 l 904 301 l 904 229 l 661 229 l 661 167 q 677 72 661 100 q 731 44 693 44 l 731 0 l 400 0 l 400 44 q 453 72 438 44 q 469 167 469 100 l 469 229 l 246 229 l 246 301 l 469 301 l 469 363 l 246 363 l 246 435 l 429 435 l 215 775 q 56 872 156 872 l 56 917 l 490 917 l 490 872 q 410 851 418 872 q 440 775 401 831 l 635 467 l 818 774 q 847 851 856 831 q 765 872 838 872 l 765 917 l 1061 917 z "},"¦":{"ha":211,"x_min":56,"x_max":156,"o":"m 56 569 l 56 1000 l 156 1000 l 156 569 l 56 569 m 56 -208 l 56 222 l 156 222 l 156 -208 l 56 -208 z "},"§":{"ha":796,"x_min":61,"x_max":740,"o":"m 581 254 q 740 72 740 190 q 648 -78 740 -29 q 413 -126 556 -126 q 274 -113 338 -126 q 158 -72 211 -100 q 84 10 106 -43 q 82 136 63 64 l 274 108 q 258 45 260 72 q 267 1 257 18 q 290 -28 276 -17 q 326 -44 304 -39 q 368 -52 349 -50 q 411 -54 388 -54 q 513 -29 476 -54 q 549 39 549 -4 q 516 113 549 83 q 400 164 483 142 q 328 182 382 169 q 254 201 274 194 q 194 221 235 207 q 138 247 154 235 q 99 280 121 260 q 69 326 78 300 q 61 383 61 351 q 228 561 61 524 q 61 738 61 621 q 152 883 61 836 q 389 931 243 931 q 519 917 458 931 q 631 878 581 904 q 702 803 682 851 q 703 690 722 754 l 511 718 q 390 858 574 858 q 288 835 324 858 q 253 774 253 813 q 284 704 253 732 q 403 654 315 676 q 465 638 418 650 q 528 622 511 626 q 583 605 544 617 q 636 583 621 593 q 677 557 651 574 q 713 523 703 540 q 731 481 722 506 q 740 426 740 456 q 581 254 740 288 m 253 431 q 288 356 253 382 q 422 303 324 331 q 549 388 549 269 q 513 463 549 438 q 381 514 478 488 q 281 506 308 533 q 253 431 253 478 z "},"¨":{"ha":519,"x_min":56,"x_max":464,"o":"m 143 808 q 81 834 107 808 q 56 897 56 860 q 82 958 56 932 q 143 983 108 983 q 203 957 176 983 q 231 897 231 931 q 204 835 231 861 q 143 808 178 808 m 376 808 q 315 834 340 808 q 289 897 289 860 q 315 958 289 932 q 376 983 342 983 q 437 957 410 983 q 464 897 464 931 q 438 835 464 861 q 376 808 411 808 z "},"©":{"ha":1239,"x_min":56,"x_max":1183,"o":"m 861 -170 q 807 -193 861 -170 q 619 -215 753 -215 q 378 -170 486 -215 q 200 -47 269 -125 q 93 135 131 31 q 56 358 56 239 q 206 768 56 606 q 619 931 356 931 q 1033 768 883 931 q 1183 358 1183 606 q 1146 135 1183 239 q 1039 -47 1108 31 q 861 -170 969 -125 m 619 -143 q 983 -1 854 -143 q 1111 358 1111 140 q 983 717 1111 575 q 619 858 854 858 q 257 717 386 858 q 128 358 128 575 q 257 -1 128 140 q 619 -143 386 -143 m 273 222 q 262 253 273 222 q 251 358 251 285 q 273 494 251 432 q 338 608 294 557 q 458 690 382 660 q 633 719 533 719 q 891 635 803 719 q 974 414 979 550 l 782 442 q 752 594 792 542 q 632 647 713 647 q 487 574 531 647 q 443 358 443 500 q 487 143 443 217 q 632 69 531 69 q 760 125 715 69 q 796 289 806 181 l 988 317 q 899 85 993 172 q 632 -3 804 -3 q 456 27 532 -3 q 338 108 381 57 q 273 222 294 160 z "},"«":{"ha":832,"x_min":56,"x_max":793,"o":"m 218 660 l 410 660 q 375 452 432 550 q 206 354 318 354 l 206 340 q 375 242 318 340 q 410 35 432 144 l 218 35 q 240 135 236 90 q 230 222 243 181 q 173 288 217 264 q 56 311 129 311 l 56 383 q 173 407 129 383 q 230 472 217 431 q 240 559 243 514 q 218 660 236 604 m 579 660 l 771 660 q 736 452 793 550 q 567 354 679 354 l 567 340 q 736 242 679 340 q 771 35 793 144 l 579 35 q 601 135 597 90 q 591 222 604 181 q 534 288 578 264 q 417 311 490 311 l 417 383 q 534 407 490 383 q 591 472 578 431 q 601 559 604 514 q 579 660 597 604 z "},"¬":{"ha":667,"x_min":56,"x_max":611,"o":"m 56 414 l 611 414 l 611 129 l 511 129 l 511 314 l 56 314 l 56 414 z "},"®":{"ha":768,"x_min":56,"x_max":713,"o":"m 385 1014 q 625 919 538 1014 q 713 688 713 824 q 625 456 713 551 q 385 361 538 361 q 143 456 231 361 q 56 688 56 551 q 143 919 56 825 q 385 1014 231 1014 m 192 867 q 160 829 192 867 q 128 688 128 792 q 192 508 128 583 q 385 433 257 433 q 569 501 499 433 q 454 583 472 458 q 423 662 446 642 q 354 682 400 682 l 346 682 l 346 614 q 381 553 346 553 l 381 531 l 239 531 l 239 553 q 274 614 274 553 l 274 781 q 239 842 274 842 l 239 864 l 369 864 q 521 774 521 864 q 469 696 521 715 q 525 604 515 668 q 565 544 533 543 q 621 601 597 547 q 640 688 639 640 q 576 867 640 792 q 385 942 511 942 q 192 867 257 942 m 381 718 q 434 731 419 718 q 449 774 449 744 q 434 815 449 803 q 381 828 419 828 l 346 828 l 346 718 l 381 718 z "},"¯":{"ha":543,"x_min":56,"x_max":488,"o":"m 56 932 l 488 932 l 488 860 l 56 860 l 56 932 z "},"°":{"ha":614,"x_min":56,"x_max":558,"o":"m 489 585 q 454 549 489 585 q 307 513 419 513 q 125 585 194 513 q 56 764 56 657 q 125 942 56 869 q 307 1014 194 1014 q 489 942 419 1014 q 558 764 558 869 q 489 585 558 657 m 197 656 q 218 634 197 656 q 307 613 239 613 q 417 656 375 613 q 458 764 458 700 q 417 871 458 828 q 307 914 375 914 q 197 871 239 914 q 156 764 156 828 q 197 656 156 700 z "},"±":{"ha":667,"x_min":56,"x_max":611,"o":"m 611 335 l 456 335 q 367 351 417 335 q 383 263 383 301 l 383 140 l 611 140 l 611 40 l 56 40 l 56 140 l 283 140 l 283 263 q 300 351 283 301 q 211 335 250 335 l 56 335 l 56 435 l 211 435 q 300 418 250 435 q 283 507 283 468 l 283 663 l 383 663 l 383 507 q 367 418 383 468 q 456 435 417 435 l 611 435 l 611 335 z "},"´":{"ha":389,"x_min":56,"x_max":333,"o":"m 56 828 q 135 880 110 849 q 161 972 161 911 l 333 1000 q 294 892 333 939 q 206 822 254 844 q 106 792 158 800 l 56 828 z "},"¶":{"ha":757,"x_min":56,"x_max":701,"o":"m 349 1000 l 404 889 l 418 889 l 418 1000 l 518 1000 l 518 -208 l 418 -208 l 418 511 l 404 511 l 349 400 q 249 413 296 400 q 156 458 201 426 q 83 551 110 489 q 56 700 56 613 q 83 849 56 788 q 156 942 110 911 q 249 987 201 974 q 349 1000 296 1000 m 601 1000 l 701 1000 l 701 -208 l 601 -208 l 601 1000 z "},"·":{"ha":325,"x_min":56,"x_max":269,"o":"m 163 240 q 85 271 114 240 q 56 349 56 301 q 85 424 56 393 q 163 454 115 454 q 240 424 210 454 q 269 349 269 393 q 240 272 269 303 q 163 240 210 240 z "},"¸":{"ha":446,"x_min":43,"x_max":390,"o":"m 265 -67 q 351 -96 313 -67 q 390 -187 390 -125 q 341 -297 390 -258 q 213 -335 292 -335 q 90 -293 138 -335 q 60 -185 43 -251 l 160 -210 q 165 -249 147 -236 q 210 -262 183 -262 q 268 -244 246 -262 q 290 -189 290 -225 q 236 -139 290 -139 q 154 -162 194 -139 l 101 -153 l 139 0 l 239 0 l 169 -89 l 183 -89 q 265 -67 219 -67 z "},"»":{"ha":832,"x_min":39,"x_max":776,"o":"m 253 660 q 231 559 235 604 q 241 472 228 514 q 298 407 254 431 q 415 383 342 383 l 415 311 q 298 288 342 311 q 241 222 254 264 q 231 135 228 181 q 253 35 235 90 l 61 35 q 96 242 39 144 q 265 340 153 340 l 265 354 q 96 452 153 354 q 61 660 39 550 l 253 660 m 614 660 q 592 559 596 604 q 602 472 589 514 q 659 407 615 431 q 776 383 703 383 l 776 311 q 659 288 703 311 q 602 222 615 264 q 592 135 589 181 q 614 35 596 90 l 422 35 q 457 242 400 144 q 626 340 514 340 l 626 354 q 457 452 514 354 q 422 660 400 550 l 614 660 z "},"¿":{"ha":763,"x_min":56,"x_max":717,"o":"m 413 708 q 490 678 461 708 q 519 600 519 647 q 490 525 519 556 q 413 494 461 494 q 335 525 365 494 q 306 600 306 556 q 335 677 306 646 q 413 708 365 708 m 56 -42 q 62 10 56 -14 q 83 52 68 33 q 109 84 97 71 q 147 112 121 97 q 184 133 172 126 q 226 151 196 139 q 265 168 257 164 q 375 244 349 206 q 389 372 401 282 l 461 372 q 472 322 468 346 q 472 279 475 299 q 467 245 468 260 q 453 215 465 231 q 437 192 442 200 q 414 170 432 183 q 390 153 396 157 q 363 135 385 149 q 336 118 340 121 q 247 -44 247 61 q 278 -134 247 -104 q 378 -164 308 -164 q 423 -160 403 -164 q 468 -143 443 -156 q 503 -108 493 -131 q 519 -47 514 -85 q 506 46 524 -10 l 697 74 q 703 -54 717 0 q 661 -143 689 -108 q 583 -199 633 -178 q 479 -228 532 -219 q 363 -236 426 -236 q 136 -186 217 -236 q 56 -42 56 -136 z "},"À":{"ha":1149,"x_min":28,"x_max":1121,"o":"m 625 1014 q 524 1044 572 1022 q 437 1114 476 1067 q 397 1222 397 1161 l 569 1194 q 595 1102 569 1133 q 675 1050 621 1071 l 625 1014 m 983 154 q 1121 44 1028 44 l 1121 0 l 700 0 l 700 44 q 788 69 774 44 q 776 154 803 93 l 674 410 l 346 410 l 243 154 q 231 69 217 93 q 319 44 246 44 l 319 0 l 28 0 l 28 44 q 165 154 121 44 l 449 861 l 447 860 l 411 769 q 421 849 436 826 q 338 872 406 872 l 338 917 l 678 917 l 983 154 m 375 482 l 644 482 l 510 818 l 375 482 m 411 769 l 408 763 l 411 769 z "},"Á":{"ha":1149,"x_min":28,"x_max":1121,"o":"m 694 1222 q 655 1114 694 1161 q 567 1044 615 1067 q 467 1014 519 1022 l 417 1050 q 497 1102 471 1071 q 522 1194 522 1133 l 694 1222 m 983 154 q 1121 44 1028 44 l 1121 0 l 700 0 l 700 44 q 788 69 774 44 q 776 154 803 93 l 674 410 l 346 410 l 243 154 q 231 69 217 93 q 319 44 246 44 l 319 0 l 28 0 l 28 44 q 165 154 121 44 l 449 861 l 447 860 l 411 769 q 421 849 436 826 q 338 872 406 872 l 338 917 l 678 917 l 983 154 m 375 482 l 644 482 l 510 818 l 375 482 m 411 769 l 408 763 l 411 769 z "},"Â":{"ha":1149,"x_min":28,"x_max":1121,"o":"m 549 1131 q 482 1055 529 1085 q 379 1014 435 1025 l 351 1108 q 439 1150 411 1124 q 476 1231 467 1176 l 635 1231 q 672 1150 644 1176 q 760 1108 700 1124 l 732 1014 q 629 1055 676 1025 q 563 1131 582 1085 l 549 1131 m 983 154 q 1121 44 1028 44 l 1121 0 l 700 0 l 700 44 q 788 69 774 44 q 776 154 803 93 l 674 410 l 346 410 l 243 154 q 231 69 217 93 q 319 44 246 44 l 319 0 l 28 0 l 28 44 q 165 154 121 44 l 449 861 l 447 860 l 411 769 q 421 849 436 826 q 338 872 406 872 l 338 917 l 678 917 l 983 154 m 375 482 l 644 482 l 510 818 l 375 482 m 411 769 l 408 763 l 411 769 z "},"Ã":{"ha":1149,"x_min":28,"x_max":1121,"o":"m 421 1028 l 321 1056 q 333 1175 299 1128 q 438 1222 367 1222 q 517 1206 481 1222 q 576 1168 554 1189 q 622 1131 597 1147 q 668 1114 647 1114 q 703 1136 696 1114 q 690 1208 711 1158 l 790 1181 q 778 1061 813 1108 q 674 1014 744 1014 q 594 1031 631 1014 q 535 1068 557 1047 q 489 1106 514 1089 q 443 1122 464 1122 q 408 1100 415 1122 q 421 1028 400 1078 m 983 154 q 1121 44 1028 44 l 1121 0 l 700 0 l 700 44 q 788 69 774 44 q 776 154 803 93 l 674 410 l 346 410 l 243 154 q 231 69 217 93 q 319 44 246 44 l 319 0 l 28 0 l 28 44 q 165 154 121 44 l 449 861 l 447 860 l 411 769 q 421 849 436 826 q 338 872 406 872 l 338 917 l 678 917 l 983 154 m 375 482 l 644 482 l 510 818 l 375 482 m 411 769 l 408 763 l 411 769 z "},"Ä":{"ha":1149,"x_min":28,"x_max":1121,"o":"m 439 1031 q 377 1056 403 1031 q 351 1119 351 1082 q 378 1180 351 1154 q 439 1206 404 1206 q 499 1179 472 1206 q 526 1119 526 1153 q 500 1057 526 1083 q 439 1031 474 1031 m 672 1031 q 610 1056 636 1031 q 585 1119 585 1082 q 611 1180 585 1154 q 672 1206 638 1206 q 733 1179 706 1206 q 760 1119 760 1153 q 733 1057 760 1083 q 672 1031 707 1031 m 983 154 q 1121 44 1028 44 l 1121 0 l 700 0 l 700 44 q 788 69 774 44 q 776 154 803 93 l 674 410 l 346 410 l 243 154 q 231 69 217 93 q 319 44 246 44 l 319 0 l 28 0 l 28 44 q 165 154 121 44 l 449 861 l 447 860 l 411 769 q 421 849 436 826 q 338 872 406 872 l 338 917 l 678 917 l 983 154 m 375 482 l 644 482 l 510 818 l 375 482 m 411 769 l 408 763 l 411 769 z "},"Å":{"ha":1149,"x_min":28,"x_max":1121,"o":"m 653 1040 q 635 1023 653 1040 q 556 1006 618 1006 q 458 1040 493 1006 q 424 1122 424 1075 q 458 1203 424 1168 q 556 1239 493 1239 q 652 1203 617 1239 q 688 1122 688 1168 q 653 1040 688 1075 m 604 1122 q 604 1144 604 1122 q 556 1167 604 1167 q 507 1122 507 1167 q 556 1078 507 1078 q 604 1122 604 1078 m 983 154 q 1121 44 1028 44 l 1121 0 l 700 0 l 700 44 q 788 69 774 44 q 776 154 803 93 l 674 410 l 346 410 l 243 154 q 231 69 217 93 q 319 44 246 44 l 319 0 l 28 0 l 28 44 q 165 154 121 44 l 449 861 l 447 860 l 411 769 q 421 849 436 826 q 338 872 406 872 l 338 917 l 678 917 l 983 154 m 375 482 l 644 482 l 510 818 l 375 482 m 411 769 l 408 763 l 411 769 z "},"Æ":{"ha":1393,"x_min":28,"x_max":1338,"o":"m 1293 215 l 1338 211 l 1319 28 l 1317 0 l 593 0 l 593 44 q 647 72 631 44 q 663 167 663 100 l 663 349 l 336 349 l 246 151 q 230 68 217 92 q 315 44 243 44 l 315 0 l 28 0 l 28 44 q 167 151 117 44 l 446 765 q 461 849 475 825 q 375 872 447 872 l 375 917 l 1303 917 l 1306 889 l 1324 706 l 1279 701 q 1241 811 1272 778 q 1143 844 1210 844 l 854 844 l 854 501 l 1021 501 q 1115 517 1088 501 q 1143 571 1143 533 l 1188 571 l 1188 360 l 1143 360 q 1115 413 1143 397 q 1021 429 1088 429 l 854 429 l 854 72 l 1157 72 q 1255 106 1224 72 q 1293 215 1286 139 m 369 421 l 663 421 l 663 844 l 518 844 q 535 803 536 824 q 518 744 535 782 l 369 421 z "},"Ç":{"ha":967,"x_min":56,"x_max":917,"o":"m 719 306 l 911 333 q 825 90 917 181 q 558 -12 733 -1 l 499 -89 l 513 -89 q 594 -67 549 -67 q 681 -96 642 -67 q 719 -187 719 -125 q 670 -297 719 -258 q 542 -335 621 -335 q 419 -293 467 -335 q 389 -185 372 -251 l 489 -210 q 494 -249 476 -236 q 539 -262 513 -262 q 597 -244 575 -262 q 619 -189 619 -225 q 565 -139 619 -139 q 483 -162 524 -139 l 431 -153 l 465 -12 q 158 121 260 0 q 56 458 56 242 q 175 808 56 685 q 524 931 294 931 q 814 840 711 931 q 911 597 917 750 l 719 625 q 681 796 731 733 q 524 858 632 858 q 247 458 247 858 q 308 161 247 264 q 510 58 368 58 q 719 306 742 58 z "},"È":{"ha":856,"x_min":56,"x_max":800,"o":"m 503 1014 q 402 1044 450 1022 q 315 1114 354 1067 q 275 1222 275 1161 l 447 1194 q 473 1102 447 1133 q 553 1050 499 1071 l 503 1014 m 756 215 l 800 211 l 782 28 l 779 0 l 56 0 l 56 44 q 109 72 93 44 q 125 167 125 100 l 125 750 q 109 844 125 817 q 56 872 93 872 l 56 917 l 765 917 l 768 889 l 786 706 l 742 701 q 703 811 735 778 q 606 844 672 844 l 317 844 l 317 501 l 483 501 q 578 517 550 501 q 606 571 606 533 l 650 571 l 650 360 l 606 360 q 578 413 606 397 q 483 429 550 429 l 317 429 l 317 72 l 619 72 q 717 106 686 72 q 756 215 749 139 z "},"É":{"ha":856,"x_min":56,"x_max":800,"o":"m 572 1222 q 533 1114 572 1161 q 445 1044 493 1067 q 344 1014 397 1022 l 294 1050 q 374 1102 349 1071 q 400 1194 400 1133 l 572 1222 m 756 215 l 800 211 l 782 28 l 779 0 l 56 0 l 56 44 q 109 72 93 44 q 125 167 125 100 l 125 750 q 109 844 125 817 q 56 872 93 872 l 56 917 l 765 917 l 768 889 l 786 706 l 742 701 q 703 811 735 778 q 606 844 672 844 l 317 844 l 317 501 l 483 501 q 578 517 550 501 q 606 571 606 533 l 650 571 l 650 360 l 606 360 q 578 413 606 397 q 483 429 550 429 l 317 429 l 317 72 l 619 72 q 717 106 686 72 q 756 215 749 139 z "},"Ê":{"ha":856,"x_min":56,"x_max":800,"o":"m 426 1131 q 360 1055 407 1085 q 257 1014 313 1025 l 229 1108 q 317 1150 289 1124 q 354 1231 344 1176 l 513 1231 q 550 1150 522 1176 q 638 1108 578 1124 l 610 1014 q 507 1055 554 1025 q 440 1131 460 1085 l 426 1131 m 756 215 l 800 211 l 782 28 l 779 0 l 56 0 l 56 44 q 109 72 93 44 q 125 167 125 100 l 125 750 q 109 844 125 817 q 56 872 93 872 l 56 917 l 765 917 l 768 889 l 786 706 l 742 701 q 703 811 735 778 q 606 844 672 844 l 317 844 l 317 501 l 483 501 q 578 517 550 501 q 606 571 606 533 l 650 571 l 650 360 l 606 360 q 578 413 606 397 q 483 429 550 429 l 317 429 l 317 72 l 619 72 q 717 106 686 72 q 756 215 749 139 z "},"Ë":{"ha":856,"x_min":56,"x_max":800,"o":"m 317 1031 q 255 1056 281 1031 q 229 1119 229 1082 q 256 1180 229 1154 q 317 1206 282 1206 q 377 1179 350 1206 q 404 1119 404 1153 q 378 1057 404 1083 q 317 1031 351 1031 m 550 1031 q 488 1056 514 1031 q 463 1119 463 1082 q 489 1180 463 1154 q 550 1206 515 1206 q 610 1179 583 1206 q 638 1119 638 1153 q 611 1057 638 1083 q 550 1031 585 1031 m 756 215 l 800 211 l 782 28 l 779 0 l 56 0 l 56 44 q 109 72 93 44 q 125 167 125 100 l 125 750 q 109 844 125 817 q 56 872 93 872 l 56 917 l 765 917 l 768 889 l 786 706 l 742 701 q 703 811 735 778 q 606 844 672 844 l 317 844 l 317 501 l 483 501 q 578 517 550 501 q 606 571 606 533 l 650 571 l 650 360 l 606 360 q 578 413 606 397 q 483 429 550 429 l 317 429 l 317 72 l 619 72 q 717 106 686 72 q 756 215 749 139 z "},"Ì":{"ha":442,"x_min":56,"x_max":386,"o":"m 340 1050 l 290 1014 q 190 1044 238 1022 q 102 1114 142 1067 q 63 1222 63 1161 l 235 1194 q 260 1102 235 1133 q 340 1050 286 1071 m 56 0 l 56 44 q 109 72 93 44 q 125 167 125 100 l 125 750 q 109 844 125 817 q 56 872 93 872 l 56 917 l 386 917 l 386 872 q 333 844 349 872 q 317 750 317 817 l 317 167 q 333 72 317 100 q 386 44 349 44 l 386 0 l 56 0 z "},"Í":{"ha":442,"x_min":56,"x_max":386,"o":"m 82 1050 q 162 1102 136 1071 q 188 1194 188 1133 l 360 1222 q 320 1114 360 1161 q 233 1044 281 1067 q 132 1014 185 1022 l 82 1050 m 56 0 l 56 44 q 109 72 93 44 q 125 167 125 100 l 125 750 q 109 844 125 817 q 56 872 93 872 l 56 917 l 386 917 l 386 872 q 333 844 349 872 q 317 750 317 817 l 317 167 q 333 72 317 100 q 386 44 349 44 l 386 0 l 56 0 z "},"Î":{"ha":442,"x_min":17,"x_max":425,"o":"m 425 1108 l 397 1014 q 294 1055 342 1025 q 228 1131 247 1085 l 214 1131 q 147 1055 194 1085 q 44 1014 100 1025 l 17 1108 q 104 1150 76 1124 q 142 1231 132 1176 l 300 1231 q 338 1150 310 1176 q 425 1108 365 1124 m 56 0 l 56 44 q 109 72 93 44 q 125 167 125 100 l 125 750 q 109 844 125 817 q 56 872 93 872 l 56 917 l 386 917 l 386 872 q 333 844 349 872 q 317 750 317 817 l 317 167 q 333 72 317 100 q 386 44 349 44 l 386 0 l 56 0 z "},"Ï":{"ha":442,"x_min":17,"x_max":425,"o":"m 104 1031 q 42 1056 68 1031 q 17 1119 17 1082 q 43 1180 17 1154 q 104 1206 69 1206 q 165 1179 138 1206 q 192 1119 192 1153 q 165 1057 192 1083 q 104 1031 139 1031 m 338 1031 q 276 1056 301 1031 q 250 1119 250 1082 q 276 1180 250 1154 q 338 1206 303 1206 q 398 1179 371 1206 q 425 1119 425 1153 q 399 1057 425 1083 q 338 1031 372 1031 m 56 0 l 56 44 q 109 72 93 44 q 125 167 125 100 l 125 750 q 109 844 125 817 q 56 872 93 872 l 56 917 l 386 917 l 386 872 q 333 844 349 872 q 317 750 317 817 l 317 167 q 333 72 317 100 q 386 44 349 44 l 386 0 l 56 0 z "},"Ð":{"ha":1008,"x_min":50,"x_max":953,"o":"m 492 917 q 600 908 547 917 q 720 871 653 900 q 836 794 788 842 q 919 660 885 747 q 953 458 953 574 q 919 256 953 343 q 836 122 885 169 q 720 46 788 75 q 600 8 653 17 q 492 0 547 0 l 56 0 l 56 44 q 109 72 93 44 q 125 167 125 100 l 125 422 l 50 422 l 50 494 l 125 494 l 125 750 q 109 844 125 817 q 56 872 93 872 l 56 917 l 492 917 m 456 72 q 685 163 610 72 q 761 458 761 253 q 685 754 761 664 q 456 844 610 844 l 317 844 l 317 494 l 500 494 l 500 422 l 317 422 l 317 72 l 456 72 z "},"Ñ":{"ha":1079,"x_min":56,"x_max":1024,"o":"m 658 1014 q 578 1031 615 1014 q 520 1068 542 1047 q 474 1106 499 1089 q 428 1122 449 1122 q 392 1100 400 1122 q 406 1028 385 1078 l 306 1056 q 317 1175 283 1128 q 422 1222 351 1222 q 502 1206 465 1222 q 560 1168 539 1189 q 607 1131 582 1147 q 653 1114 632 1114 q 688 1136 681 1114 q 675 1208 696 1158 l 775 1181 q 763 1061 797 1108 q 658 1014 729 1014 m 56 0 l 56 44 q 109 72 93 44 q 125 167 125 100 l 125 750 q 109 844 125 817 q 56 872 93 872 l 56 917 l 147 917 q 290 891 239 914 q 390 806 340 868 l 882 174 l 882 750 q 866 844 882 817 q 813 872 850 872 l 813 917 l 1024 917 l 1024 872 q 970 844 986 872 q 954 750 954 817 l 954 0 q 796 22 850 0 q 689 111 742 44 l 197 743 l 197 167 q 213 72 197 100 q 267 44 229 44 l 267 0 l 56 0 z "},"Ò":{"ha":1053,"x_min":56,"x_max":997,"o":"m 646 1050 l 596 1014 q 495 1044 543 1022 q 408 1114 447 1067 q 368 1222 368 1161 l 540 1194 q 566 1102 540 1133 q 646 1050 592 1071 m 180 117 q 118 183 180 117 q 56 458 56 249 q 180 799 56 668 q 526 931 304 931 q 873 799 749 931 q 997 458 997 668 q 873 117 997 249 q 526 -14 749 -14 q 180 117 304 -14 m 249 424 q 354 140 272 238 q 589 63 436 43 q 733 133 679 74 q 803 282 788 192 q 804 493 819 372 q 698 777 779 681 q 464 854 617 874 q 278 723 329 838 q 249 424 226 608 z "},"Ó":{"ha":1053,"x_min":56,"x_max":997,"o":"m 388 1050 q 467 1102 442 1071 q 493 1194 493 1133 l 665 1222 q 626 1114 665 1161 q 538 1044 586 1067 q 438 1014 490 1022 l 388 1050 m 180 117 q 118 183 180 117 q 56 458 56 249 q 180 799 56 668 q 526 931 304 931 q 873 799 749 931 q 997 458 997 668 q 873 117 997 249 q 526 -14 749 -14 q 180 117 304 -14 m 249 424 q 354 140 272 238 q 589 63 436 43 q 733 133 679 74 q 803 282 788 192 q 804 493 819 372 q 698 777 779 681 q 464 854 617 874 q 278 723 329 838 q 249 424 226 608 z "},"Ô":{"ha":1053,"x_min":56,"x_max":997,"o":"m 731 1108 l 703 1014 q 600 1055 647 1025 q 533 1131 553 1085 l 519 1131 q 453 1055 500 1085 q 350 1014 406 1025 l 322 1108 q 410 1150 382 1124 q 447 1231 438 1176 l 606 1231 q 643 1150 615 1176 q 731 1108 671 1124 m 180 117 q 118 183 180 117 q 56 458 56 249 q 180 799 56 668 q 526 931 304 931 q 873 799 749 931 q 997 458 997 668 q 873 117 997 249 q 526 -14 749 -14 q 180 117 304 -14 m 249 424 q 354 140 272 238 q 589 63 436 43 q 733 133 679 74 q 803 282 788 192 q 804 493 819 372 q 698 777 779 681 q 464 854 617 874 q 278 723 329 838 q 249 424 226 608 z "},"Õ":{"ha":1053,"x_min":56,"x_max":997,"o":"m 644 1014 q 565 1031 601 1014 q 506 1068 528 1047 q 460 1106 485 1089 q 414 1122 435 1122 q 378 1100 386 1122 q 392 1028 371 1078 l 292 1056 q 303 1175 269 1128 q 408 1222 338 1222 q 488 1206 451 1222 q 547 1168 525 1189 q 593 1131 568 1147 q 639 1114 618 1114 q 674 1136 667 1114 q 661 1208 682 1158 l 761 1181 q 749 1061 783 1108 q 644 1014 715 1014 m 180 117 q 118 183 180 117 q 56 458 56 249 q 180 799 56 668 q 526 931 304 931 q 873 799 749 931 q 997 458 997 668 q 873 117 997 249 q 526 -14 749 -14 q 180 117 304 -14 m 249 424 q 354 140 272 238 q 589 63 436 43 q 733 133 679 74 q 803 282 788 192 q 804 493 819 372 q 698 777 779 681 q 464 854 617 874 q 278 723 329 838 q 249 424 226 608 z "},"Ö":{"ha":1053,"x_min":56,"x_max":997,"o":"m 410 1031 q 348 1056 374 1031 q 322 1119 322 1082 q 349 1180 322 1154 q 410 1206 375 1206 q 470 1179 443 1206 q 497 1119 497 1153 q 471 1057 497 1083 q 410 1031 444 1031 m 643 1031 q 581 1056 607 1031 q 556 1119 556 1082 q 582 1180 556 1154 q 643 1206 608 1206 q 703 1179 676 1206 q 731 1119 731 1153 q 704 1057 731 1083 q 643 1031 678 1031 m 180 117 q 118 183 180 117 q 56 458 56 249 q 180 799 56 668 q 526 931 304 931 q 873 799 749 931 q 997 458 997 668 q 873 117 997 249 q 526 -14 749 -14 q 180 117 304 -14 m 249 424 q 354 140 272 238 q 589 63 436 43 q 733 133 679 74 q 803 282 788 192 q 804 493 819 372 q 698 777 779 681 q 464 854 617 874 q 278 723 329 838 q 249 424 226 608 z "},"×":{"ha":575,"x_min":56,"x_max":519,"o":"m 335 335 q 408 283 382 311 l 519 174 l 449 103 l 338 213 q 288 288 311 240 q 279 272 285 283 q 269 254 274 261 q 256 235 265 247 q 236 213 247 224 l 126 103 l 56 174 l 165 283 q 240 335 193 311 q 165 386 193 358 l 56 496 l 126 567 l 236 457 q 256 434 247 446 q 269 415 265 422 q 279 397 274 408 q 288 382 285 386 q 338 457 311 429 l 449 567 l 519 496 l 408 386 q 335 335 382 358 z "},"Ø":{"ha":1053,"x_min":56,"x_max":997,"o":"m 731 894 q 928 727 860 842 q 997 458 997 613 q 873 117 997 249 q 526 -14 749 -14 q 392 1 457 -14 l 360 -83 l 282 -83 l 322 22 q 124 190 193 75 q 56 458 56 304 q 180 799 56 668 q 526 931 304 931 q 661 915 596 931 l 693 1000 l 771 1000 l 731 894 m 249 424 q 363 131 274 222 l 629 831 q 464 854 556 865 q 278 723 329 838 q 249 424 226 608 m 589 63 q 733 133 679 74 q 803 282 788 192 q 804 493 819 372 q 689 786 778 697 l 424 86 q 589 63 497 51 z "},"Ù":{"ha":1042,"x_min":42,"x_max":1000,"o":"m 643 1014 q 542 1044 590 1022 q 455 1114 494 1067 q 415 1222 415 1161 l 588 1194 q 613 1102 588 1133 q 693 1050 639 1071 l 643 1014 m 1000 917 l 1000 872 q 947 844 963 872 q 931 750 931 817 l 929 465 q 844 103 925 221 q 560 -14 763 -14 q 336 16 425 -14 q 199 110 247 46 q 131 258 150 175 q 111 465 111 342 l 111 750 q 95 844 111 817 q 42 872 79 872 l 42 917 l 372 917 l 372 872 q 319 844 335 872 q 303 750 303 817 l 301 465 q 362 147 301 236 q 582 58 422 58 q 794 155 733 58 q 858 465 854 251 l 860 750 q 844 844 860 817 q 790 872 828 872 l 790 917 l 1000 917 z "},"Ú":{"ha":1042,"x_min":42,"x_max":1000,"o":"m 713 1222 q 673 1114 713 1161 q 585 1044 633 1067 q 485 1014 538 1022 l 435 1050 q 515 1102 489 1071 q 540 1194 540 1133 l 713 1222 m 1000 917 l 1000 872 q 947 844 963 872 q 931 750 931 817 l 929 465 q 844 103 925 221 q 560 -14 763 -14 q 336 16 425 -14 q 199 110 247 46 q 131 258 150 175 q 111 465 111 342 l 111 750 q 95 844 111 817 q 42 872 79 872 l 42 917 l 372 917 l 372 872 q 319 844 335 872 q 303 750 303 817 l 301 465 q 362 147 301 236 q 582 58 422 58 q 794 155 733 58 q 858 465 854 251 l 860 750 q 844 844 860 817 q 790 872 828 872 l 790 917 l 1000 917 z "},"Û":{"ha":1042,"x_min":42,"x_max":1000,"o":"m 567 1131 q 500 1055 547 1085 q 397 1014 453 1025 l 369 1108 q 457 1150 429 1124 q 494 1231 485 1176 l 653 1231 q 690 1150 663 1176 q 778 1108 718 1124 l 750 1014 q 647 1055 694 1025 q 581 1131 600 1085 l 567 1131 m 1000 917 l 1000 872 q 947 844 963 872 q 931 750 931 817 l 929 465 q 844 103 925 221 q 560 -14 763 -14 q 336 16 425 -14 q 199 110 247 46 q 131 258 150 175 q 111 465 111 342 l 111 750 q 95 844 111 817 q 42 872 79 872 l 42 917 l 372 917 l 372 872 q 319 844 335 872 q 303 750 303 817 l 301 465 q 362 147 301 236 q 582 58 422 58 q 794 155 733 58 q 858 465 854 251 l 860 750 q 844 844 860 817 q 790 872 828 872 l 790 917 l 1000 917 z "},"Ü":{"ha":1042,"x_min":42,"x_max":1000,"o":"m 457 1031 q 395 1056 421 1031 q 369 1119 369 1082 q 396 1180 369 1154 q 457 1206 422 1206 q 517 1179 490 1206 q 544 1119 544 1153 q 518 1057 544 1083 q 457 1031 492 1031 m 690 1031 q 628 1056 654 1031 q 603 1119 603 1082 q 629 1180 603 1154 q 690 1206 656 1206 q 751 1179 724 1206 q 778 1119 778 1153 q 751 1057 778 1083 q 690 1031 725 1031 m 1000 917 l 1000 872 q 947 844 963 872 q 931 750 931 817 l 929 465 q 844 103 925 221 q 560 -14 763 -14 q 336 16 425 -14 q 199 110 247 46 q 131 258 150 175 q 111 465 111 342 l 111 750 q 95 844 111 817 q 42 872 79 872 l 42 917 l 372 917 l 372 872 q 319 844 335 872 q 303 750 303 817 l 301 465 q 362 147 301 236 q 582 58 422 58 q 794 155 733 58 q 858 465 854 251 l 860 750 q 844 844 860 817 q 790 872 828 872 l 790 917 l 1000 917 z "},"Ý":{"ha":1033,"x_min":14,"x_max":1019,"o":"m 657 1222 q 617 1114 657 1161 q 530 1044 578 1067 q 429 1014 482 1022 l 379 1050 q 459 1102 433 1071 q 485 1194 485 1133 l 657 1222 m 1019 917 l 1019 872 q 861 774 921 872 l 619 369 l 619 167 q 635 72 619 100 q 689 44 651 44 l 689 0 l 358 0 l 358 44 q 412 72 396 44 q 428 167 428 100 l 428 369 l 174 775 q 14 872 114 872 l 14 917 l 449 917 l 449 872 q 368 851 376 872 q 399 775 360 831 l 593 467 l 776 774 q 805 851 814 831 q 724 872 796 872 l 724 917 l 1019 917 z "},"Þ":{"ha":947,"x_min":56,"x_max":892,"o":"m 464 753 q 524 753 503 753 q 587 750 546 753 q 652 742 628 747 q 713 728 676 738 q 771 704 749 718 q 819 669 793 690 q 858 619 844 647 q 882 553 872 592 q 892 469 892 515 q 876 364 892 410 q 838 289 860 318 q 776 239 817 260 q 706 208 736 218 q 623 192 675 197 q 543 187 571 188 q 464 186 515 186 l 317 186 l 317 167 q 333 72 317 100 q 386 44 349 44 l 386 0 l 56 0 l 56 44 q 109 72 93 44 q 125 167 125 100 l 125 750 q 109 844 125 817 q 56 872 93 872 l 56 917 l 386 917 l 386 872 q 333 845 349 872 q 317 753 317 818 l 317 750 l 317 753 l 464 753 m 461 258 q 642 306 583 258 q 700 469 700 353 q 642 633 700 586 q 461 681 583 681 l 317 681 l 317 258 l 461 258 z "},"ß":{"ha":925,"x_min":56,"x_max":897,"o":"m 125 611 q 151 772 125 707 q 226 870 176 836 q 337 917 276 904 q 481 931 397 931 q 710 868 626 931 q 794 649 794 806 q 724 646 753 649 q 665 634 694 643 q 621 606 636 625 q 606 557 606 588 q 635 484 606 515 q 708 431 665 453 q 794 384 751 410 q 867 311 838 358 q 897 197 897 264 q 824 44 897 101 q 625 -14 751 -14 q 416 56 486 -14 q 375 272 346 126 l 567 244 q 550 101 536 143 q 628 58 564 58 q 706 147 706 58 q 684 231 706 194 q 630 287 663 267 q 560 330 597 307 q 490 374 522 353 q 435 434 457 396 q 414 522 414 472 q 611 700 414 671 q 583 820 611 782 q 482 858 556 858 q 355 806 393 858 q 317 639 317 754 l 317 146 q 147 0 317 8 l 56 0 l 56 44 q 109 72 93 44 q 125 167 125 100 l 125 611 z "},"à":{"ha":835,"x_min":56,"x_max":807,"o":"m 489 792 q 388 822 436 800 q 301 892 340 844 q 261 1000 261 939 l 433 972 q 459 880 433 911 q 539 828 485 849 l 489 792 m 738 172 q 807 108 738 67 l 807 56 q 678 0 771 0 q 546 93 556 0 l 546 103 l 532 103 q 433 19 499 51 q 279 -14 368 -14 q 56 160 56 -14 q 77 248 56 208 q 140 315 99 288 q 226 362 182 342 q 333 396 271 382 q 440 417 394 410 q 544 431 486 424 q 511 590 540 543 q 401 636 482 636 q 285 591 315 636 q 285 465 254 546 l 101 429 q 155 628 69 547 q 421 708 240 708 q 665 631 592 708 q 738 367 738 553 l 738 172 m 546 267 l 546 283 l 546 360 q 331 297 414 346 q 247 168 247 249 q 346 58 247 58 q 488 125 431 58 q 546 267 546 192 z "},"á":{"ha":835,"x_min":56,"x_max":807,"o":"m 558 1000 q 519 892 558 939 q 431 822 479 844 q 331 792 383 800 l 281 828 q 360 880 335 849 q 386 972 386 911 l 558 1000 m 738 172 q 807 108 738 67 l 807 56 q 678 0 771 0 q 546 93 556 0 l 546 103 l 532 103 q 433 19 499 51 q 279 -14 368 -14 q 56 160 56 -14 q 77 248 56 208 q 140 315 99 288 q 226 362 182 342 q 333 396 271 382 q 440 417 394 410 q 544 431 486 424 q 511 590 540 543 q 401 636 482 636 q 285 591 315 636 q 285 465 254 546 l 101 429 q 155 628 69 547 q 421 708 240 708 q 665 631 592 708 q 738 367 738 553 l 738 172 m 546 267 l 546 283 l 546 360 q 331 297 414 346 q 247 168 247 249 q 346 58 247 58 q 488 125 431 58 q 546 267 546 192 z "},"â":{"ha":835,"x_min":56,"x_max":807,"o":"m 413 908 q 346 833 393 863 q 243 792 299 803 l 215 886 q 303 928 275 901 q 340 1008 331 954 l 499 1008 q 536 928 508 954 q 624 886 564 901 l 596 792 q 493 833 540 803 q 426 908 446 863 l 413 908 m 738 172 q 807 108 738 67 l 807 56 q 678 0 771 0 q 546 93 556 0 l 546 103 l 532 103 q 433 19 499 51 q 279 -14 368 -14 q 56 160 56 -14 q 77 248 56 208 q 140 315 99 288 q 226 362 182 342 q 333 396 271 382 q 440 417 394 410 q 544 431 486 424 q 511 590 540 543 q 401 636 482 636 q 285 591 315 636 q 285 465 254 546 l 101 429 q 155 628 69 547 q 421 708 240 708 q 665 631 592 708 q 738 367 738 553 l 738 172 m 546 267 l 546 283 l 546 360 q 331 297 414 346 q 247 168 247 249 q 346 58 247 58 q 488 125 431 58 q 546 267 546 192 z "},"ã":{"ha":835,"x_min":56,"x_max":807,"o":"m 285 806 l 185 833 q 197 953 163 906 q 301 1000 231 1000 q 381 983 344 1000 q 440 946 418 967 q 486 908 461 925 q 532 892 511 892 q 567 914 560 892 q 554 986 575 936 l 654 958 q 642 839 676 886 q 538 792 608 792 q 458 808 494 792 q 399 846 421 825 q 353 883 378 867 q 307 900 328 900 q 272 878 279 900 q 285 806 264 856 m 738 172 q 807 108 738 67 l 807 56 q 678 0 771 0 q 546 93 556 0 l 546 103 l 532 103 q 433 19 499 51 q 279 -14 368 -14 q 56 160 56 -14 q 77 248 56 208 q 140 315 99 288 q 226 362 182 342 q 333 396 271 382 q 440 417 394 410 q 544 431 486 424 q 511 590 540 543 q 401 636 482 636 q 285 591 315 636 q 285 465 254 546 l 101 429 q 155 628 69 547 q 421 708 240 708 q 665 631 592 708 q 738 367 738 553 l 738 172 m 546 267 l 546 283 l 546 360 q 331 297 414 346 q 247 168 247 249 q 346 58 247 58 q 488 125 431 58 q 546 267 546 192 z "},"ä":{"ha":835,"x_min":56,"x_max":807,"o":"m 303 808 q 241 834 267 808 q 215 897 215 860 q 242 958 215 932 q 303 983 268 983 q 363 957 336 983 q 390 897 390 931 q 364 835 390 861 q 303 808 338 808 m 536 808 q 474 834 500 808 q 449 897 449 860 q 475 958 449 932 q 536 983 501 983 q 597 957 569 983 q 624 897 624 931 q 597 835 624 861 q 536 808 571 808 m 738 172 q 807 108 738 67 l 807 56 q 678 0 771 0 q 546 93 556 0 l 546 103 l 532 103 q 433 19 499 51 q 279 -14 368 -14 q 56 160 56 -14 q 77 248 56 208 q 140 315 99 288 q 226 362 182 342 q 333 396 271 382 q 440 417 394 410 q 544 431 486 424 q 511 590 540 543 q 401 636 482 636 q 285 591 315 636 q 285 465 254 546 l 101 429 q 155 628 69 547 q 421 708 240 708 q 665 631 592 708 q 738 367 738 553 l 738 172 m 546 267 l 546 283 l 546 360 q 331 297 414 346 q 247 168 247 249 q 346 58 247 58 q 488 125 431 58 q 546 267 546 192 z "},"å":{"ha":835,"x_min":56,"x_max":807,"o":"m 517 818 q 499 801 517 818 q 419 783 482 783 q 322 818 357 783 q 288 900 288 853 q 322 981 288 946 q 419 1017 357 1017 q 516 981 481 1017 q 551 900 551 946 q 517 818 551 853 m 468 900 q 468 922 468 900 q 419 944 468 944 q 371 900 371 944 q 419 856 371 856 q 468 900 468 856 m 738 172 q 807 108 738 67 l 807 56 q 678 0 771 0 q 546 93 556 0 l 546 103 l 532 103 q 433 19 499 51 q 279 -14 368 -14 q 56 160 56 -14 q 77 248 56 208 q 140 315 99 288 q 226 362 182 342 q 333 396 271 382 q 440 417 394 410 q 544 431 486 424 q 511 590 540 543 q 401 636 482 636 q 285 591 315 636 q 285 465 254 546 l 101 429 q 155 628 69 547 q 421 708 240 708 q 665 631 592 708 q 738 367 738 553 l 738 172 m 546 267 l 546 283 l 546 360 q 331 297 414 346 q 247 168 247 249 q 346 58 247 58 q 488 125 431 58 q 546 267 546 192 z "},"æ":{"ha":1288,"x_min":56,"x_max":1239,"o":"m 1036 225 l 1228 261 q 1157 65 1239 144 q 924 -14 1075 -14 q 579 163 661 -14 q 285 -14 510 -14 q 56 160 56 -14 q 77 248 56 208 q 140 315 99 288 q 226 362 182 342 q 333 396 271 382 q 440 417 394 410 q 544 431 486 424 q 511 585 542 535 q 400 636 481 636 q 284 591 315 636 q 285 465 253 546 l 101 429 q 151 628 69 547 q 403 708 233 708 q 642 596 565 708 q 938 708 750 708 q 1151 654 1069 708 q 1232 504 1232 600 q 1181 379 1232 429 q 1053 312 1131 329 q 894 296 976 294 q 738 315 811 297 q 785 131 739 203 q 918 58 831 58 q 1018 96 988 58 q 1036 225 1049 133 m 919 636 q 740 390 758 636 q 965 388 889 357 q 1040 508 1040 419 q 919 636 1040 636 m 546 324 l 546 329 l 546 332 l 546 360 q 331 297 414 346 q 247 168 247 249 q 346 58 247 58 q 493 135 440 58 q 546 324 546 211 z "},"ç":{"ha":847,"x_min":56,"x_max":797,"o":"m 792 306 q 715 86 797 172 q 482 -12 633 0 l 422 -89 l 436 -89 q 518 -67 472 -67 q 604 -96 565 -67 q 643 -187 643 -125 q 594 -297 643 -258 q 465 -335 544 -335 q 343 -293 390 -335 q 313 -185 296 -251 l 413 -210 q 418 -249 400 -236 q 463 -262 436 -262 q 521 -244 499 -262 q 543 -189 543 -225 q 489 -139 543 -139 q 407 -162 447 -139 l 354 -153 l 389 -12 q 137 102 218 1 q 56 347 56 203 q 77 483 56 421 q 142 597 99 546 q 262 678 186 649 q 438 708 338 708 q 695 624 607 708 q 778 403 783 539 l 586 431 q 556 583 596 531 q 436 636 517 636 q 291 563 335 636 q 247 347 247 489 q 291 132 247 206 q 436 58 335 58 q 565 114 519 58 q 600 278 610 169 l 792 306 z "},"è":{"ha":797,"x_min":56,"x_max":749,"o":"m 521 792 q 420 822 468 800 q 333 892 372 844 q 293 1000 293 939 l 465 972 q 491 880 465 911 q 571 828 517 849 l 521 792 m 546 225 l 738 261 q 667 65 749 144 q 433 -14 585 -14 q 148 80 240 -14 q 56 329 56 174 q 163 606 56 504 q 447 708 271 708 q 660 654 579 708 q 742 504 742 600 q 691 379 742 429 q 563 312 640 329 q 403 296 486 294 q 247 315 321 297 q 294 131 249 203 q 428 58 340 58 q 528 96 497 58 q 546 225 558 133 m 429 636 q 250 390 268 636 q 474 388 397 357 q 550 508 550 419 q 429 636 550 636 z "},"é":{"ha":797,"x_min":56,"x_max":749,"o":"m 590 1000 q 551 892 590 939 q 463 822 511 844 q 363 792 415 800 l 313 828 q 392 880 367 849 q 418 972 418 911 l 590 1000 m 546 225 l 738 261 q 667 65 749 144 q 433 -14 585 -14 q 148 80 240 -14 q 56 329 56 174 q 163 606 56 504 q 447 708 271 708 q 660 654 579 708 q 742 504 742 600 q 691 379 742 429 q 563 312 640 329 q 403 296 486 294 q 247 315 321 297 q 294 131 249 203 q 428 58 340 58 q 528 96 497 58 q 546 225 558 133 m 429 636 q 250 390 268 636 q 474 388 397 357 q 550 508 550 419 q 429 636 550 636 z "},"ê":{"ha":797,"x_min":56,"x_max":749,"o":"m 444 908 q 378 833 425 863 q 275 792 331 803 l 247 886 q 335 928 307 901 q 372 1008 363 954 l 531 1008 q 568 928 540 954 q 656 886 596 901 l 628 792 q 525 833 572 803 q 458 908 478 863 l 444 908 m 546 225 l 738 261 q 667 65 749 144 q 433 -14 585 -14 q 148 80 240 -14 q 56 329 56 174 q 163 606 56 504 q 447 708 271 708 q 660 654 579 708 q 742 504 742 600 q 691 379 742 429 q 563 312 640 329 q 403 296 486 294 q 247 315 321 297 q 294 131 249 203 q 428 58 340 58 q 528 96 497 58 q 546 225 558 133 m 429 636 q 250 390 268 636 q 474 388 397 357 q 550 508 550 419 q 429 636 550 636 z "},"ë":{"ha":797,"x_min":56,"x_max":749,"o":"m 335 808 q 273 834 299 808 q 247 897 247 860 q 274 958 247 932 q 335 983 300 983 q 395 957 368 983 q 422 897 422 931 q 396 835 422 861 q 335 808 369 808 m 568 808 q 506 834 532 808 q 481 897 481 860 q 507 958 481 932 q 568 983 533 983 q 628 957 601 983 q 656 897 656 931 q 629 835 656 861 q 568 808 603 808 m 546 225 l 738 261 q 667 65 749 144 q 433 -14 585 -14 q 148 80 240 -14 q 56 329 56 174 q 163 606 56 504 q 447 708 271 708 q 660 654 579 708 q 742 504 742 600 q 691 379 742 429 q 563 312 640 329 q 403 296 486 294 q 247 315 321 297 q 294 131 249 203 q 428 58 340 58 q 528 96 497 58 q 546 225 558 133 m 429 636 q 250 390 268 636 q 474 388 397 357 q 550 508 550 419 q 429 636 550 636 z "},"ì":{"ha":442,"x_min":56,"x_max":386,"o":"m 340 828 l 290 792 q 190 822 238 800 q 102 892 142 844 q 63 1000 63 939 l 235 972 q 260 880 235 911 q 340 828 286 849 m 317 579 l 317 167 q 333 72 317 100 q 386 44 349 44 l 386 0 l 56 0 l 56 44 q 109 72 93 44 q 125 167 125 100 l 125 528 q 109 622 125 594 q 56 650 93 650 l 56 694 l 147 694 q 278 674 240 694 q 317 579 317 654 z "},"í":{"ha":442,"x_min":56,"x_max":386,"o":"m 82 828 q 162 880 136 849 q 188 972 188 911 l 360 1000 q 320 892 360 939 q 233 822 281 844 q 132 792 185 800 l 82 828 m 317 579 l 317 167 q 333 72 317 100 q 386 44 349 44 l 386 0 l 56 0 l 56 44 q 109 72 93 44 q 125 167 125 100 l 125 528 q 109 622 125 594 q 56 650 93 650 l 56 694 l 147 694 q 278 674 240 694 q 317 579 317 654 z "},"î":{"ha":442,"x_min":17,"x_max":425,"o":"m 425 886 l 397 792 q 294 833 342 803 q 228 908 247 863 l 214 908 q 147 833 194 863 q 44 792 100 803 l 17 886 q 104 928 76 901 q 142 1008 132 954 l 300 1008 q 338 928 310 954 q 425 886 365 901 m 317 579 l 317 167 q 333 72 317 100 q 386 44 349 44 l 386 0 l 56 0 l 56 44 q 109 72 93 44 q 125 167 125 100 l 125 528 q 109 622 125 594 q 56 650 93 650 l 56 694 l 147 694 q 278 674 240 694 q 317 579 317 654 z "},"ï":{"ha":442,"x_min":17,"x_max":425,"o":"m 104 808 q 42 834 68 808 q 17 897 17 860 q 43 958 17 932 q 104 983 69 983 q 165 957 138 983 q 192 897 192 931 q 165 835 192 861 q 104 808 139 808 m 338 808 q 276 834 301 808 q 250 897 250 860 q 276 958 250 932 q 338 983 303 983 q 398 957 371 983 q 425 897 425 931 q 399 835 425 861 q 338 808 372 808 m 317 579 l 317 167 q 333 72 317 100 q 386 44 349 44 l 386 0 l 56 0 l 56 44 q 109 72 93 44 q 125 167 125 100 l 125 528 q 109 622 125 594 q 56 650 93 650 l 56 694 l 147 694 q 278 674 240 694 q 317 579 317 654 z "},"ð":{"ha":886,"x_min":56,"x_max":831,"o":"m 656 881 q 831 415 831 735 q 727 92 831 199 q 449 -14 624 -14 q 169 86 282 -14 q 56 361 56 186 q 158 613 56 518 q 421 708 260 708 q 588 657 517 708 q 683 506 660 606 l 697 506 q 659 677 694 588 q 544 831 624 767 l 374 753 l 344 818 l 472 876 q 226 928 369 928 l 254 1000 q 586 928 454 1000 l 743 1000 l 774 935 l 656 881 m 485 61 q 622 154 590 74 q 638 371 654 235 q 569 577 621 507 q 413 635 518 647 q 253 324 218 611 q 324 119 269 189 q 485 61 378 49 z "},"ñ":{"ha":946,"x_min":56,"x_max":890,"o":"m 339 806 l 239 833 q 251 953 217 906 q 356 1000 285 1000 q 435 983 399 1000 q 494 946 472 967 q 540 908 515 925 q 586 892 565 892 q 622 914 614 892 q 608 986 629 936 l 708 958 q 697 839 731 886 q 592 792 663 792 q 512 808 549 792 q 453 846 475 825 q 407 883 432 867 q 361 900 382 900 q 326 878 333 900 q 339 806 318 856 m 821 167 q 837 72 821 100 q 890 44 853 44 l 890 0 l 560 0 l 560 44 q 613 72 597 44 q 629 167 629 100 l 629 490 q 522 636 629 636 q 406 578 454 636 q 338 435 358 519 q 317 250 317 350 l 317 167 q 333 72 317 100 q 386 44 349 44 l 386 0 l 56 0 l 56 44 q 109 72 93 44 q 125 167 125 100 l 125 528 q 109 622 125 594 q 56 650 93 650 l 56 694 l 147 694 q 278 674 240 694 q 317 579 317 654 l 317 494 l 331 494 q 415 652 353 596 q 581 708 478 708 q 756 641 690 708 q 821 443 821 574 l 821 167 z "},"ò":{"ha":872,"x_min":56,"x_max":817,"o":"m 556 828 l 506 792 q 405 822 453 800 q 317 892 357 844 q 278 1000 278 939 l 450 972 q 476 880 450 911 q 556 828 501 849 m 153 90 q 104 142 153 90 q 56 347 56 194 q 153 604 56 500 q 436 708 250 708 q 719 604 622 708 q 817 347 817 500 q 719 90 817 194 q 436 -14 622 -14 q 153 90 250 -14 m 249 324 q 321 117 267 186 q 475 61 375 49 q 624 371 660 85 q 551 577 606 508 q 397 633 497 646 q 249 324 213 610 z "},"ó":{"ha":872,"x_min":56,"x_max":817,"o":"m 297 828 q 377 880 351 849 q 403 972 403 911 l 575 1000 q 535 892 575 939 q 448 822 496 844 q 347 792 400 800 l 297 828 m 153 90 q 104 142 153 90 q 56 347 56 194 q 153 604 56 500 q 436 708 250 708 q 719 604 622 708 q 817 347 817 500 q 719 90 817 194 q 436 -14 622 -14 q 153 90 250 -14 m 249 324 q 321 117 267 186 q 475 61 375 49 q 624 371 660 85 q 551 577 606 508 q 397 633 497 646 q 249 324 213 610 z "},"ô":{"ha":872,"x_min":56,"x_max":817,"o":"m 640 886 l 613 792 q 510 833 557 803 q 443 908 463 863 l 429 908 q 363 833 410 863 q 260 792 315 803 l 232 886 q 319 928 292 901 q 357 1008 347 954 l 515 1008 q 553 928 525 954 q 640 886 581 901 m 153 90 q 104 142 153 90 q 56 347 56 194 q 153 604 56 500 q 436 708 250 708 q 719 604 622 708 q 817 347 817 500 q 719 90 817 194 q 436 -14 622 -14 q 153 90 250 -14 m 249 324 q 321 117 267 186 q 475 61 375 49 q 624 371 660 85 q 551 577 606 508 q 397 633 497 646 q 249 324 213 610 z "},"õ":{"ha":872,"x_min":56,"x_max":817,"o":"m 554 792 q 474 808 511 792 q 416 846 438 825 q 369 883 394 867 q 324 900 344 900 q 288 878 296 900 q 301 806 281 856 l 201 833 q 213 953 179 906 q 318 1000 247 1000 q 398 983 361 1000 q 456 946 435 967 q 503 908 478 925 q 549 892 528 892 q 584 914 576 892 q 571 986 592 936 l 671 958 q 659 839 693 886 q 554 792 625 792 m 153 90 q 104 142 153 90 q 56 347 56 194 q 153 604 56 500 q 436 708 250 708 q 719 604 622 708 q 817 347 817 500 q 719 90 817 194 q 436 -14 622 -14 q 153 90 250 -14 m 249 324 q 321 117 267 186 q 475 61 375 49 q 624 371 660 85 q 551 577 606 508 q 397 633 497 646 q 249 324 213 610 z "},"ö":{"ha":872,"x_min":56,"x_max":817,"o":"m 319 808 q 258 834 283 808 q 232 897 232 860 q 258 958 232 932 q 319 983 285 983 q 380 957 353 983 q 407 897 407 931 q 381 835 407 861 q 319 808 354 808 m 553 808 q 491 834 517 808 q 465 897 465 860 q 492 958 465 932 q 553 983 518 983 q 613 957 586 983 q 640 897 640 931 q 614 835 640 861 q 553 808 588 808 m 153 90 q 104 142 153 90 q 56 347 56 194 q 153 604 56 500 q 436 708 250 708 q 719 604 622 708 q 817 347 817 500 q 719 90 817 194 q 436 -14 622 -14 q 153 90 250 -14 m 249 324 q 321 117 267 186 q 475 61 375 49 q 624 371 660 85 q 551 577 606 508 q 397 633 497 646 q 249 324 213 610 z "},"÷":{"ha":667,"x_min":56,"x_max":611,"o":"m 333 475 q 271 500 294 475 q 247 561 247 525 q 271 622 247 597 q 333 646 294 646 q 395 621 371 646 q 419 561 419 596 q 395 500 419 525 q 333 475 371 475 m 56 411 l 611 411 l 611 311 l 56 311 l 56 411 m 333 75 q 271 100 294 75 q 247 161 247 125 q 271 222 247 197 q 333 246 294 246 q 395 221 371 246 q 419 161 419 196 q 395 100 419 125 q 333 75 371 75 z "},"ø":{"ha":872,"x_min":56,"x_max":817,"o":"m 601 681 q 762 549 707 639 q 817 347 817 460 q 719 90 817 194 q 436 -14 622 -14 q 342 -6 386 -14 l 269 -194 l 192 -194 l 271 14 q 110 145 165 56 q 56 347 56 235 q 153 604 56 500 q 436 708 250 708 q 531 700 486 708 l 603 889 l 681 889 l 601 681 m 249 324 q 314 126 267 192 l 500 618 q 397 633 458 640 q 249 324 213 610 m 475 61 q 624 371 660 85 q 558 568 606 503 l 372 76 q 475 61 414 54 z "},"ù":{"ha":946,"x_min":56,"x_max":890,"o":"m 543 792 q 442 822 490 800 q 355 892 394 844 q 315 1000 315 939 l 488 972 q 513 880 488 911 q 593 828 539 849 l 543 792 m 890 650 q 837 622 853 650 q 821 528 821 594 l 821 167 q 837 72 821 100 q 890 44 853 44 l 890 0 l 799 0 q 667 20 706 0 q 629 115 629 40 l 629 200 l 615 200 q 531 42 593 99 q 365 -14 468 -14 q 190 53 256 -14 q 125 251 125 121 l 125 528 q 109 622 125 594 q 56 650 93 650 l 56 694 l 386 694 l 386 650 q 333 622 349 650 q 317 528 317 594 l 317 204 q 424 58 317 58 q 540 117 492 58 q 608 260 588 175 q 629 444 629 344 l 629 528 q 613 622 629 594 q 560 650 597 650 l 560 694 l 890 694 l 890 650 z "},"ú":{"ha":946,"x_min":56,"x_max":890,"o":"m 613 1000 q 573 892 613 939 q 485 822 533 844 q 385 792 438 800 l 335 828 q 415 880 389 849 q 440 972 440 911 l 613 1000 m 890 650 q 837 622 853 650 q 821 528 821 594 l 821 167 q 837 72 821 100 q 890 44 853 44 l 890 0 l 799 0 q 667 20 706 0 q 629 115 629 40 l 629 200 l 615 200 q 531 42 593 99 q 365 -14 468 -14 q 190 53 256 -14 q 125 251 125 121 l 125 528 q 109 622 125 594 q 56 650 93 650 l 56 694 l 386 694 l 386 650 q 333 622 349 650 q 317 528 317 594 l 317 204 q 424 58 317 58 q 540 117 492 58 q 608 260 588 175 q 629 444 629 344 l 629 528 q 613 622 629 594 q 560 650 597 650 l 560 694 l 890 694 l 890 650 z "},"û":{"ha":946,"x_min":56,"x_max":890,"o":"m 467 908 q 400 833 447 863 q 297 792 353 803 l 269 886 q 357 928 329 901 q 394 1008 385 954 l 553 1008 q 590 928 563 954 q 678 886 618 901 l 650 792 q 547 833 594 803 q 481 908 500 863 l 467 908 m 890 650 q 837 622 853 650 q 821 528 821 594 l 821 167 q 837 72 821 100 q 890 44 853 44 l 890 0 l 799 0 q 667 20 706 0 q 629 115 629 40 l 629 200 l 615 200 q 531 42 593 99 q 365 -14 468 -14 q 190 53 256 -14 q 125 251 125 121 l 125 528 q 109 622 125 594 q 56 650 93 650 l 56 694 l 386 694 l 386 650 q 333 622 349 650 q 317 528 317 594 l 317 204 q 424 58 317 58 q 540 117 492 58 q 608 260 588 175 q 629 444 629 344 l 629 528 q 613 622 629 594 q 560 650 597 650 l 560 694 l 890 694 l 890 650 z "},"ü":{"ha":946,"x_min":56,"x_max":890,"o":"m 357 808 q 295 834 321 808 q 269 897 269 860 q 296 958 269 932 q 357 983 322 983 q 417 957 390 983 q 444 897 444 931 q 418 835 444 861 q 357 808 392 808 m 590 808 q 528 834 554 808 q 503 897 503 860 q 529 958 503 932 q 590 983 556 983 q 651 957 624 983 q 678 897 678 931 q 651 835 678 861 q 590 808 625 808 m 890 650 q 837 622 853 650 q 821 528 821 594 l 821 167 q 837 72 821 100 q 890 44 853 44 l 890 0 l 799 0 q 667 20 706 0 q 629 115 629 40 l 629 200 l 615 200 q 531 42 593 99 q 365 -14 468 -14 q 190 53 256 -14 q 125 251 125 121 l 125 528 q 109 622 125 594 q 56 650 93 650 l 56 694 l 386 694 l 386 650 q 333 622 349 650 q 317 528 317 594 l 317 204 q 424 58 317 58 q 540 117 492 58 q 608 260 588 175 q 629 444 629 344 l 629 528 q 613 622 629 594 q 560 650 597 650 l 560 694 l 890 694 l 890 650 z "},"ý":{"ha":985,"x_min":14,"x_max":971,"o":"m 683 1000 q 644 892 683 939 q 556 822 604 844 q 456 792 508 800 l 406 828 q 485 880 460 849 q 511 972 511 911 l 683 1000 m 971 694 l 971 650 q 825 540 869 650 l 585 -57 q 476 -226 536 -174 q 313 -278 417 -278 q 131 -209 186 -278 q 117 -28 75 -140 l 308 -56 q 280 -172 267 -139 q 342 -206 293 -206 q 507 -57 447 -206 l 529 0 l 375 0 l 160 540 q 14 650 115 650 l 14 694 l 442 694 l 442 650 q 353 626 368 650 q 364 540 338 601 l 556 65 l 747 540 q 759 626 774 601 q 671 650 744 650 l 671 694 l 971 694 z "},"þ":{"ha":972,"x_min":56,"x_max":917,"o":"m 824 613 q 870 566 824 613 q 917 347 917 518 q 824 81 917 176 q 590 -14 731 -14 q 437 24 506 -14 q 331 131 368 63 l 317 131 l 317 -139 q 333 -233 317 -206 q 386 -261 349 -261 l 386 -306 l 56 -306 l 56 -261 q 109 -233 93 -261 q 125 -139 125 -206 l 125 833 q 109 928 125 900 q 56 956 93 956 l 56 1000 l 147 1000 q 278 981 240 1000 q 317 896 317 963 l 317 564 l 331 564 q 437 670 368 632 q 590 708 506 708 q 824 613 731 708 m 665 142 q 688 179 665 142 q 711 347 711 217 q 665 553 711 478 q 525 628 619 628 q 381 551 431 628 q 331 347 331 475 q 381 143 331 219 q 525 67 431 67 q 665 142 619 67 z "},"ÿ":{"ha":985,"x_min":14,"x_max":971,"o":"m 428 808 q 366 834 392 808 q 340 897 340 860 q 367 958 340 932 q 428 983 393 983 q 488 957 461 983 q 515 897 515 931 q 489 835 515 861 q 428 808 463 808 m 661 808 q 599 834 625 808 q 574 897 574 860 q 600 958 574 932 q 661 983 626 983 q 722 957 694 983 q 749 897 749 931 q 722 835 749 861 q 661 808 696 808 m 971 694 l 971 650 q 825 540 869 650 l 585 -57 q 476 -226 536 -174 q 313 -278 417 -278 q 131 -209 186 -278 q 117 -28 75 -140 l 308 -56 q 280 -172 267 -139 q 342 -206 293 -206 q 507 -57 447 -206 l 529 0 l 375 0 l 160 540 q 14 650 115 650 l 14 694 l 442 694 l 442 650 q 353 626 368 650 q 364 540 338 601 l 556 65 l 747 540 q 759 626 774 601 q 671 650 744 650 l 671 694 l 971 694 z "},"Ā":{"ha":1149,"x_min":28,"x_max":1121,"o":"m 771 1154 l 771 1082 l 339 1082 l 339 1154 l 771 1154 m 983 154 q 1121 44 1028 44 l 1121 0 l 700 0 l 700 44 q 788 69 774 44 q 776 154 803 93 l 674 410 l 346 410 l 243 154 q 231 69 217 93 q 319 44 246 44 l 319 0 l 28 0 l 28 44 q 165 154 121 44 l 449 861 l 447 860 l 411 769 q 421 849 436 826 q 338 872 406 872 l 338 917 l 678 917 l 983 154 m 375 482 l 644 482 l 510 818 l 375 482 m 411 769 l 408 763 l 411 769 z "},"ā":{"ha":835,"x_min":56,"x_max":807,"o":"m 635 932 l 635 860 l 203 860 l 203 932 l 635 932 m 738 172 q 807 108 738 67 l 807 56 q 678 0 771 0 q 546 93 556 0 l 546 103 l 532 103 q 433 19 499 51 q 279 -14 368 -14 q 56 160 56 -14 q 77 248 56 208 q 140 315 99 288 q 226 362 182 342 q 333 396 271 382 q 440 417 394 410 q 544 431 486 424 q 511 590 540 543 q 401 636 482 636 q 285 591 315 636 q 285 465 254 546 l 101 429 q 155 628 69 547 q 421 708 240 708 q 665 631 592 708 q 738 367 738 553 l 738 172 m 546 267 l 546 283 l 546 360 q 331 297 414 346 q 247 168 247 249 q 346 58 247 58 q 488 125 431 58 q 546 267 546 192 z "},"Ă":{"ha":1149,"x_min":28,"x_max":1121,"o":"m 575 1014 q 393 1074 447 1014 q 339 1222 339 1135 l 531 1222 q 547 1118 531 1150 q 604 1086 563 1086 q 660 1118 644 1086 q 675 1222 675 1150 l 772 1222 q 575 1014 772 1014 m 983 154 q 1121 44 1028 44 l 1121 0 l 700 0 l 700 44 q 788 69 774 44 q 776 154 803 93 l 674 410 l 346 410 l 243 154 q 231 69 217 93 q 319 44 246 44 l 319 0 l 28 0 l 28 44 q 165 154 121 44 l 449 861 l 447 860 l 411 769 q 421 849 436 826 q 338 872 406 872 l 338 917 l 678 917 l 983 154 m 375 482 l 644 482 l 510 818 l 375 482 m 411 769 l 408 763 l 411 769 z "},"ă":{"ha":835,"x_min":56,"x_max":807,"o":"m 439 792 q 257 852 311 792 q 203 1000 203 913 l 394 1000 q 410 896 394 928 q 468 864 426 864 q 524 896 508 864 q 539 1000 539 928 l 636 1000 q 439 792 636 792 m 738 172 q 807 108 738 67 l 807 56 q 678 0 771 0 q 546 93 556 0 l 546 103 l 532 103 q 433 19 499 51 q 279 -14 368 -14 q 56 160 56 -14 q 77 248 56 208 q 140 315 99 288 q 226 362 182 342 q 333 396 271 382 q 440 417 394 410 q 544 431 486 424 q 511 590 540 543 q 401 636 482 636 q 285 591 315 636 q 285 465 254 546 l 101 429 q 155 628 69 547 q 421 708 240 708 q 665 631 592 708 q 738 367 738 553 l 738 172 m 546 267 l 546 283 l 546 360 q 331 297 414 346 q 247 168 247 249 q 346 58 247 58 q 488 125 431 58 q 546 267 546 192 z "},"Ą":{"ha":1149,"x_min":28,"x_max":1121,"o":"m 1026 0 q 911 -156 911 -87 q 972 -215 911 -207 q 1089 -175 1033 -224 l 1117 -247 q 988 -308 1065 -297 q 854 -284 911 -318 q 797 -186 797 -250 q 940 -14 797 -92 l 940 0 l 700 0 l 700 44 q 788 69 774 44 q 776 154 803 93 l 674 410 l 346 410 l 243 154 q 231 69 217 93 q 319 44 246 44 l 319 0 l 28 0 l 28 44 q 165 154 121 44 l 449 861 l 447 860 l 411 769 q 421 849 436 826 q 338 872 406 872 l 338 917 l 678 917 l 983 154 q 1121 44 1028 44 l 1121 0 l 1026 0 m 375 482 l 644 482 l 510 818 l 375 482 m 411 769 l 408 763 l 411 769 z "},"ą":{"ha":864,"x_min":56,"x_max":847,"o":"m 819 -175 l 847 -247 q 719 -308 796 -297 q 585 -284 642 -318 q 528 -186 528 -250 q 671 -14 528 -92 l 671 0 q 546 93 556 3 l 546 103 l 532 103 q 433 19 499 51 q 279 -14 368 -14 q 56 160 56 -14 q 77 248 56 208 q 140 315 99 288 q 226 362 182 342 q 333 396 271 382 q 440 417 394 410 q 544 431 486 424 q 511 590 540 543 q 401 636 482 636 q 285 591 315 636 q 285 465 254 546 l 101 429 q 155 628 69 547 q 421 708 240 708 q 665 631 592 708 q 738 367 738 553 l 738 172 q 807 108 738 67 l 807 56 q 751 -10 783 21 q 697 -56 719 -40 q 658 -97 674 -72 q 642 -150 642 -121 q 670 -203 642 -186 q 741 -214 699 -221 q 819 -175 783 -207 m 546 267 l 546 283 l 546 360 q 331 297 414 346 q 247 168 247 249 q 346 58 247 58 q 488 125 431 58 q 546 267 546 192 z "},"Ć":{"ha":967,"x_min":56,"x_max":917,"o":"m 386 1050 q 466 1102 440 1071 q 492 1194 492 1133 l 664 1222 q 624 1114 664 1161 q 537 1044 585 1067 q 436 1014 489 1022 l 386 1050 m 56 458 q 175 808 56 685 q 524 931 294 931 q 814 840 711 931 q 911 597 917 750 l 719 625 q 681 796 731 733 q 524 858 632 858 q 247 458 247 858 q 308 161 247 264 q 510 58 368 58 q 719 306 742 58 l 911 333 q 812 78 917 169 q 510 -14 707 -14 q 169 108 282 -14 q 56 458 56 231 z "},"ć":{"ha":847,"x_min":56,"x_max":797,"o":"m 299 828 q 378 880 353 849 q 404 972 404 911 l 576 1000 q 537 892 576 939 q 449 822 497 844 q 349 792 401 800 l 299 828 m 77 211 q 66 242 77 211 q 56 347 56 274 q 77 483 56 421 q 142 597 99 546 q 262 678 186 649 q 438 708 338 708 q 695 624 607 708 q 778 403 783 539 l 586 431 q 556 583 596 531 q 436 636 517 636 q 291 563 335 636 q 247 347 247 489 q 291 132 247 206 q 436 58 335 58 q 565 114 519 58 q 600 278 610 169 l 792 306 q 703 74 797 161 q 436 -14 608 -14 q 260 16 336 -14 q 142 97 185 46 q 77 211 99 149 z "},"Ċ":{"ha":967,"x_min":56,"x_max":917,"o":"m 525 1031 q 463 1056 489 1031 q 438 1119 438 1082 q 464 1180 438 1154 q 525 1206 490 1206 q 585 1179 558 1206 q 613 1119 613 1153 q 586 1057 613 1083 q 525 1031 560 1031 m 56 458 q 175 808 56 685 q 524 931 294 931 q 814 840 711 931 q 911 597 917 750 l 719 625 q 681 796 731 733 q 524 858 632 858 q 247 458 247 858 q 308 161 247 264 q 510 58 368 58 q 719 306 742 58 l 911 333 q 812 78 917 169 q 510 -14 707 -14 q 169 108 282 -14 q 56 458 56 231 z "},"ċ":{"ha":847,"x_min":56,"x_max":797,"o":"m 438 808 q 376 834 401 808 q 350 897 350 860 q 376 958 350 932 q 438 983 403 983 q 498 957 471 983 q 525 897 525 931 q 499 835 525 861 q 438 808 472 808 m 77 211 q 66 242 77 211 q 56 347 56 274 q 77 483 56 421 q 142 597 99 546 q 262 678 186 649 q 438 708 338 708 q 695 624 607 708 q 778 403 783 539 l 586 431 q 556 583 596 531 q 436 636 517 636 q 291 563 335 636 q 247 347 247 489 q 291 132 247 206 q 436 58 335 58 q 565 114 519 58 q 600 278 610 169 l 792 306 q 703 74 797 161 q 436 -14 608 -14 q 260 16 336 -14 q 142 97 185 46 q 77 211 99 149 z "},"Č":{"ha":967,"x_min":56,"x_max":917,"o":"m 729 1129 q 642 1088 669 1114 q 604 1007 614 1061 l 446 1007 q 408 1088 436 1061 q 321 1129 381 1114 l 349 1224 q 451 1183 404 1213 q 518 1107 499 1153 l 532 1107 q 599 1183 551 1153 q 701 1224 646 1213 l 729 1129 m 56 458 q 175 808 56 685 q 524 931 294 931 q 814 840 711 931 q 911 597 917 750 l 719 625 q 681 796 731 733 q 524 858 632 858 q 247 458 247 858 q 308 161 247 264 q 510 58 368 58 q 719 306 742 58 l 911 333 q 812 78 917 169 q 510 -14 707 -14 q 169 108 282 -14 q 56 458 56 231 z "},"č":{"ha":847,"x_min":56,"x_max":797,"o":"m 642 907 q 554 865 582 892 q 517 785 526 839 l 358 785 q 321 865 349 839 q 233 907 293 892 l 261 1001 q 364 960 317 990 q 431 885 411 931 l 444 885 q 511 960 464 931 q 614 1001 558 990 l 642 907 m 77 211 q 66 242 77 211 q 56 347 56 274 q 77 483 56 421 q 142 597 99 546 q 262 678 186 649 q 438 708 338 708 q 695 624 607 708 q 778 403 783 539 l 586 431 q 556 583 596 531 q 436 636 517 636 q 291 563 335 636 q 247 347 247 489 q 291 132 247 206 q 436 58 335 58 q 565 114 519 58 q 600 278 610 169 l 792 306 q 703 74 797 161 q 436 -14 608 -14 q 260 16 336 -14 q 142 97 185 46 q 77 211 99 149 z "},"Ď":{"ha":1008,"x_min":56,"x_max":953,"o":"m 354 1007 q 317 1088 344 1061 q 229 1129 289 1114 l 257 1224 q 360 1183 313 1213 q 426 1107 407 1153 l 440 1107 q 507 1183 460 1153 q 610 1224 554 1213 l 638 1129 q 550 1088 578 1114 q 513 1007 522 1061 l 354 1007 m 492 917 q 600 908 547 917 q 720 871 653 900 q 836 794 788 842 q 919 660 885 747 q 953 458 953 574 q 919 256 953 343 q 836 122 885 169 q 720 46 788 75 q 600 8 653 17 q 492 0 547 0 l 56 0 l 56 44 q 109 72 93 44 q 125 167 125 100 l 125 750 q 109 844 125 817 q 56 872 93 872 l 56 917 l 492 917 m 456 72 q 685 163 610 72 q 761 458 761 253 q 685 754 761 664 q 456 844 610 844 l 317 844 l 317 72 l 456 72 z "},"ď":{"ha":1114,"x_min":56,"x_max":1086,"o":"m 978 646 q 951 823 974 736 q 928 935 928 910 q 1007 1014 928 1014 q 1086 935 1086 1014 q 1063 823 1086 910 q 1036 646 1040 736 l 978 646 m 149 81 q 102 129 149 81 q 56 347 56 176 q 149 613 56 518 q 382 708 242 708 q 535 670 467 708 q 642 564 604 632 l 656 564 l 656 833 q 640 928 656 900 q 586 956 624 956 l 586 1000 l 678 1000 q 809 978 771 1000 q 847 878 847 957 l 847 167 q 863 72 847 100 q 917 44 879 44 l 917 0 l 825 0 q 695 19 735 0 q 656 104 656 38 l 656 131 l 642 131 q 535 24 604 63 q 382 -14 467 -14 q 149 81 242 -14 m 307 560 q 284 522 307 560 q 261 347 261 483 q 307 135 261 211 q 447 58 353 58 q 592 135 543 58 q 642 347 642 213 q 592 559 642 482 q 447 636 543 636 q 307 560 353 636 z "},"Đ":{"ha":1008,"x_min":50,"x_max":953,"o":"m 492 917 q 600 908 547 917 q 720 871 653 900 q 836 794 788 842 q 919 660 885 747 q 953 458 953 574 q 919 256 953 343 q 836 122 885 169 q 720 46 788 75 q 600 8 653 17 q 492 0 547 0 l 56 0 l 56 44 q 109 72 93 44 q 125 167 125 100 l 125 422 l 50 422 l 50 494 l 125 494 l 125 750 q 109 844 125 817 q 56 872 93 872 l 56 917 l 492 917 m 456 72 q 685 163 610 72 q 761 458 761 253 q 685 754 761 664 q 456 844 610 844 l 317 844 l 317 494 l 500 494 l 500 422 l 317 422 l 317 72 l 456 72 z "},"đ":{"ha":958,"x_min":56,"x_max":922,"o":"m 922 732 l 847 732 l 847 167 q 863 72 847 100 q 917 44 879 44 l 917 0 l 825 0 q 695 19 735 0 q 656 104 656 38 l 656 131 l 642 131 q 535 24 604 63 q 382 -14 467 -14 q 149 81 242 -14 q 56 347 56 176 q 149 613 56 518 q 382 708 242 708 q 535 670 467 708 q 642 564 604 632 l 656 564 l 656 732 l 472 732 l 472 804 l 656 804 l 656 833 q 640 928 656 900 q 586 956 624 956 l 586 1000 l 678 1000 q 809 978 771 1000 q 847 878 847 957 l 847 804 l 922 804 l 922 732 m 447 58 q 592 135 543 58 q 642 347 642 213 q 592 559 642 482 q 447 636 543 636 q 307 560 353 636 q 261 347 261 483 q 307 135 261 211 q 447 58 353 58 z "},"Ē":{"ha":856,"x_min":56,"x_max":800,"o":"m 649 1154 l 649 1082 l 217 1082 l 217 1154 l 649 1154 m 756 215 l 800 211 l 782 28 l 779 0 l 56 0 l 56 44 q 109 72 93 44 q 125 167 125 100 l 125 750 q 109 844 125 817 q 56 872 93 872 l 56 917 l 765 917 l 768 889 l 786 706 l 742 701 q 703 811 735 778 q 606 844 672 844 l 317 844 l 317 501 l 483 501 q 578 517 550 501 q 606 571 606 533 l 650 571 l 650 360 l 606 360 q 578 413 606 397 q 483 429 550 429 l 317 429 l 317 72 l 619 72 q 717 106 686 72 q 756 215 749 139 z "},"ē":{"ha":797,"x_min":56,"x_max":749,"o":"m 667 932 l 667 860 l 235 860 l 235 932 l 667 932 m 546 225 l 738 261 q 667 65 749 144 q 433 -14 585 -14 q 148 80 240 -14 q 56 329 56 174 q 163 606 56 504 q 447 708 271 708 q 660 654 579 708 q 742 504 742 600 q 691 379 742 429 q 563 312 640 329 q 403 296 486 294 q 247 315 321 297 q 294 131 249 203 q 428 58 340 58 q 528 96 497 58 q 546 225 558 133 m 429 636 q 250 390 268 636 q 474 388 397 357 q 550 508 550 419 q 429 636 550 636 z "},"Ė":{"ha":856,"x_min":56,"x_max":800,"o":"m 433 1031 q 372 1056 397 1031 q 346 1119 346 1082 q 372 1180 346 1154 q 433 1206 399 1206 q 494 1179 467 1206 q 521 1119 521 1153 q 494 1057 521 1083 q 433 1031 468 1031 m 756 215 l 800 211 l 782 28 l 779 0 l 56 0 l 56 44 q 109 72 93 44 q 125 167 125 100 l 125 750 q 109 844 125 817 q 56 872 93 872 l 56 917 l 765 917 l 768 889 l 786 706 l 742 701 q 703 811 735 778 q 606 844 672 844 l 317 844 l 317 501 l 483 501 q 578 517 550 501 q 606 571 606 533 l 650 571 l 650 360 l 606 360 q 578 413 606 397 q 483 429 550 429 l 317 429 l 317 72 l 619 72 q 717 106 686 72 q 756 215 749 139 z "},"ė":{"ha":797,"x_min":56,"x_max":749,"o":"m 451 808 q 390 834 415 808 q 364 897 364 860 q 390 958 364 932 q 451 983 417 983 q 512 957 485 983 q 539 897 539 931 q 513 835 539 861 q 451 808 486 808 m 546 225 l 738 261 q 667 65 749 144 q 433 -14 585 -14 q 148 80 240 -14 q 56 329 56 174 q 163 606 56 504 q 447 708 271 708 q 660 654 579 708 q 742 504 742 600 q 691 379 742 429 q 563 312 640 329 q 403 296 486 294 q 247 315 321 297 q 294 131 249 203 q 428 58 340 58 q 528 96 497 58 q 546 225 558 133 m 429 636 q 250 390 268 636 q 474 388 397 357 q 550 508 550 419 q 429 636 550 636 z "},"Ę":{"ha":856,"x_min":56,"x_max":800,"o":"m 756 215 l 800 211 l 782 28 l 779 0 l 669 0 q 554 -156 554 -87 q 615 -215 554 -207 q 732 -175 676 -224 l 760 -247 q 631 -308 708 -297 q 497 -284 554 -318 q 440 -186 440 -250 q 583 -14 440 -92 l 583 0 l 56 0 l 56 44 q 109 72 93 44 q 125 167 125 100 l 125 750 q 109 844 125 817 q 56 872 93 872 l 56 917 l 765 917 l 768 889 l 786 706 l 742 701 q 703 811 735 778 q 606 844 672 844 l 317 844 l 317 501 l 483 501 q 578 517 550 501 q 606 571 606 533 l 650 571 l 650 360 l 606 360 q 578 413 606 397 q 483 429 550 429 l 317 429 l 317 72 l 619 72 q 717 106 686 72 q 756 215 749 139 z "},"ę":{"ha":797,"x_min":56,"x_max":746,"o":"m 546 225 l 738 261 q 695 98 746 169 q 544 0 644 26 l 546 0 q 431 -156 431 -87 q 492 -215 431 -207 q 608 -175 553 -224 l 636 -247 q 508 -308 585 -297 q 374 -284 431 -318 q 317 -186 317 -250 q 460 -14 317 -92 l 460 -12 q 433 -14 451 -14 q 148 80 240 -14 q 56 329 56 174 q 163 606 56 504 q 447 708 271 708 q 660 654 579 708 q 742 504 742 600 q 691 379 742 429 q 563 312 640 329 q 403 296 486 294 q 247 315 321 297 q 294 131 249 203 q 428 58 340 58 q 528 96 497 58 q 546 225 558 133 m 429 636 q 250 390 268 636 q 474 388 397 357 q 550 508 550 419 q 429 636 550 636 z "},"Ě":{"ha":856,"x_min":56,"x_max":800,"o":"m 354 1007 q 317 1088 344 1061 q 229 1129 289 1114 l 257 1224 q 360 1183 313 1213 q 426 1107 407 1153 l 440 1107 q 507 1183 460 1153 q 610 1224 554 1213 l 638 1129 q 550 1088 578 1114 q 513 1007 522 1061 l 354 1007 m 756 215 l 800 211 l 782 28 l 779 0 l 56 0 l 56 44 q 109 72 93 44 q 125 167 125 100 l 125 750 q 109 844 125 817 q 56 872 93 872 l 56 917 l 765 917 l 768 889 l 786 706 l 742 701 q 703 811 735 778 q 606 844 672 844 l 317 844 l 317 501 l 483 501 q 578 517 550 501 q 606 571 606 533 l 650 571 l 650 360 l 606 360 q 578 413 606 397 q 483 429 550 429 l 317 429 l 317 72 l 619 72 q 717 106 686 72 q 756 215 749 139 z "},"ě":{"ha":797,"x_min":56,"x_max":749,"o":"m 372 785 q 335 865 363 839 q 247 907 307 892 l 275 1001 q 378 960 331 990 q 444 885 425 931 l 458 885 q 525 960 478 931 q 628 1001 572 990 l 656 907 q 568 865 596 892 q 531 785 540 839 l 372 785 m 546 225 l 738 261 q 667 65 749 144 q 433 -14 585 -14 q 148 80 240 -14 q 56 329 56 174 q 163 606 56 504 q 447 708 271 708 q 660 654 579 708 q 742 504 742 600 q 691 379 742 429 q 563 312 640 329 q 403 296 486 294 q 247 315 321 297 q 294 131 249 203 q 428 58 340 58 q 528 96 497 58 q 546 225 558 133 m 429 636 q 250 390 268 636 q 474 388 397 357 q 550 508 550 419 q 429 636 550 636 z "},"Ğ":{"ha":1078,"x_min":56,"x_max":1050,"o":"m 560 1014 q 378 1074 432 1014 q 324 1222 324 1135 l 515 1222 q 531 1118 515 1150 q 589 1086 547 1086 q 644 1118 629 1086 q 660 1222 660 1150 l 757 1222 q 560 1014 757 1014 m 1050 418 l 1046 374 q 964 352 988 378 q 940 260 940 326 l 940 143 q 535 -14 788 -14 q 178 113 301 -14 q 56 458 56 239 q 188 801 56 672 q 540 931 319 931 q 851 840 744 931 q 953 589 958 750 l 761 617 q 715 794 772 729 q 540 858 657 858 q 247 458 247 858 q 321 160 247 261 q 535 58 394 58 q 749 121 661 58 l 749 274 q 701 371 749 339 q 544 410 653 403 l 547 454 l 1050 418 z "},"ğ":{"ha":867,"x_min":46,"x_max":860,"o":"m 410 792 q 228 852 282 792 q 174 1000 174 913 l 365 1000 q 381 896 365 928 q 439 864 397 864 q 494 896 479 864 q 510 1000 510 928 l 607 1000 q 410 792 607 792 m 850 578 l 731 550 q 734 611 742 594 q 706 628 726 628 q 657 607 675 628 q 707 458 707 546 q 624 277 707 346 q 390 208 540 208 q 256 226 319 208 q 218 174 218 199 q 259 140 218 146 q 410 144 300 135 q 661 110 568 157 q 754 -51 754 63 q 653 -232 754 -172 q 400 -292 553 -292 q 258 -278 322 -292 q 140 -234 193 -264 q 67 -147 88 -204 q 65 -10 46 -89 l 257 -37 q 399 -219 189 -219 q 563 -79 563 -219 q 515 16 563 -6 q 360 35 468 38 q 155 48 217 29 q 93 131 93 67 q 121 202 93 169 q 194 253 149 235 q 74 458 74 318 q 157 640 74 571 q 390 708 240 708 q 614 646 532 708 q 742 708 658 708 q 835 671 810 708 q 850 578 860 633 m 440 288 q 514 356 496 301 q 513 481 532 410 q 340 629 468 661 q 267 562 286 617 q 268 436 249 507 q 440 288 311 253 z "},"Ġ":{"ha":1078,"x_min":56,"x_max":1050,"o":"m 540 1031 q 478 1056 504 1031 q 453 1119 453 1082 q 479 1180 453 1154 q 540 1206 506 1206 q 601 1179 574 1206 q 628 1119 628 1153 q 601 1057 628 1083 q 540 1031 575 1031 m 1050 418 l 1046 374 q 964 352 988 378 q 940 260 940 326 l 940 143 q 535 -14 788 -14 q 178 113 301 -14 q 56 458 56 239 q 188 801 56 672 q 540 931 319 931 q 851 840 744 931 q 953 589 958 750 l 761 617 q 715 794 772 729 q 540 858 657 858 q 247 458 247 858 q 321 160 247 261 q 535 58 394 58 q 749 121 661 58 l 749 274 q 701 371 749 339 q 544 410 653 403 l 547 454 l 1050 418 z "},"ġ":{"ha":867,"x_min":46,"x_max":860,"o":"m 390 808 q 328 834 354 808 q 303 897 303 860 q 329 958 303 932 q 390 983 356 983 q 451 957 424 983 q 478 897 478 931 q 451 835 478 861 q 390 808 425 808 m 850 578 l 731 550 q 734 611 742 594 q 706 628 726 628 q 657 607 675 628 q 707 458 707 546 q 624 277 707 346 q 390 208 540 208 q 256 226 319 208 q 218 174 218 199 q 259 140 218 146 q 410 144 300 135 q 661 110 568 157 q 754 -51 754 63 q 653 -232 754 -172 q 400 -292 553 -292 q 258 -278 322 -292 q 140 -234 193 -264 q 67 -147 88 -204 q 65 -10 46 -89 l 257 -37 q 399 -219 189 -219 q 563 -79 563 -219 q 515 16 563 -6 q 360 35 468 38 q 155 48 217 29 q 93 131 93 67 q 121 202 93 169 q 194 253 149 235 q 74 458 74 318 q 157 640 74 571 q 390 708 240 708 q 614 646 532 708 q 742 708 658 708 q 835 671 810 708 q 850 578 860 633 m 440 288 q 514 356 496 301 q 513 481 532 410 q 340 629 468 661 q 267 562 286 617 q 268 436 249 507 q 440 288 311 253 z "},"Ģ":{"ha":1078,"x_min":56,"x_max":1050,"o":"m 1050 418 l 1046 374 q 964 352 988 378 q 940 260 940 326 l 940 143 q 535 -14 788 -14 q 178 113 301 -14 q 56 458 56 239 q 188 801 56 672 q 540 931 319 931 q 851 840 744 931 q 953 589 958 750 l 761 617 q 715 794 772 729 q 540 858 657 858 q 247 458 247 858 q 321 160 247 261 q 535 58 394 58 q 749 121 661 58 l 749 274 q 701 371 749 339 q 544 410 653 403 l 547 454 l 1050 418 m 542 -92 q 603 -116 579 -92 q 628 -189 628 -140 q 482 -342 628 -311 l 476 -292 q 567 -239 554 -278 q 525 -251 549 -251 q 477 -228 494 -251 q 460 -171 460 -204 q 483 -115 460 -137 q 542 -92 506 -92 z "},"ģ":{"ha":867,"x_min":46,"x_max":860,"o":"m 392 793 q 330 817 354 793 q 306 890 306 842 q 342 990 306 950 q 451 1043 378 1031 l 457 999 q 367 940 376 985 q 408 953 385 953 q 456 929 439 953 q 474 872 474 906 q 451 816 474 839 q 392 793 428 793 m 850 578 l 731 550 q 734 611 742 594 q 706 628 726 628 q 657 607 675 628 q 707 458 707 546 q 624 277 707 346 q 390 208 540 208 q 256 226 319 208 q 218 174 218 199 q 259 140 218 146 q 410 144 300 135 q 661 110 568 157 q 754 -51 754 63 q 653 -232 754 -172 q 400 -292 553 -292 q 258 -278 322 -292 q 140 -234 193 -264 q 67 -147 88 -204 q 65 -10 46 -89 l 257 -37 q 399 -219 189 -219 q 563 -79 563 -219 q 515 16 563 -6 q 360 35 468 38 q 155 48 217 29 q 93 131 93 67 q 121 202 93 169 q 194 253 149 235 q 74 458 74 318 q 157 640 74 571 q 390 708 240 708 q 614 646 532 708 q 742 708 658 708 q 835 671 810 708 q 850 578 860 633 m 440 288 q 514 356 496 301 q 513 481 532 410 q 340 629 468 661 q 267 562 286 617 q 268 436 249 507 q 440 288 311 253 z "},"Ħ":{"ha":1083,"x_min":56,"x_max":1028,"o":"m 1028 872 q 974 844 990 872 q 958 750 958 817 l 958 743 l 1028 743 l 1028 671 l 958 671 l 958 167 q 974 72 958 100 q 1028 44 990 44 l 1028 0 l 697 0 l 697 44 q 751 72 735 44 q 767 167 767 100 l 767 469 l 317 469 l 317 167 q 333 72 317 100 q 386 44 349 44 l 386 0 l 56 0 l 56 44 q 109 72 93 44 q 125 167 125 100 l 125 671 l 56 671 l 56 743 l 125 743 l 125 750 q 109 844 125 817 q 56 872 93 872 l 56 917 l 386 917 l 386 872 q 333 844 349 872 q 317 750 317 817 l 317 743 l 767 743 l 767 750 q 751 844 767 817 q 697 872 735 872 l 697 917 l 1028 917 l 1028 872 m 767 542 l 767 671 l 317 671 l 317 542 l 767 542 z "},"ħ":{"ha":946,"x_min":44,"x_max":890,"o":"m 821 167 q 837 72 821 100 q 890 44 853 44 l 890 0 l 560 0 l 560 44 q 613 72 597 44 q 629 167 629 100 l 629 490 q 522 636 629 636 q 406 578 454 636 q 338 435 358 519 q 317 250 317 350 l 317 167 q 333 72 317 100 q 386 44 349 44 l 386 0 l 56 0 l 56 44 q 109 72 93 44 q 125 167 125 100 l 125 732 l 44 732 l 44 804 l 125 804 l 125 833 q 109 928 125 900 q 56 956 93 956 l 56 1000 l 147 1000 q 278 978 240 1000 q 317 878 317 957 l 317 804 l 494 804 l 494 732 l 317 732 l 317 494 l 331 494 q 415 652 353 596 q 581 708 478 708 q 756 641 690 708 q 821 443 821 574 l 821 167 z "},"Ī":{"ha":442,"x_min":4,"x_max":436,"o":"m 4 1154 l 436 1154 l 436 1082 l 4 1082 l 4 1154 m 56 0 l 56 44 q 109 72 93 44 q 125 167 125 100 l 125 750 q 109 844 125 817 q 56 872 93 872 l 56 917 l 386 917 l 386 872 q 333 844 349 872 q 317 750 317 817 l 317 167 q 333 72 317 100 q 386 44 349 44 l 386 0 l 56 0 z "},"ī":{"ha":442,"x_min":4,"x_max":436,"o":"m 4 932 l 436 932 l 436 860 l 4 860 l 4 932 m 317 579 l 317 167 q 333 72 317 100 q 386 44 349 44 l 386 0 l 56 0 l 56 44 q 109 72 93 44 q 125 167 125 100 l 125 528 q 109 622 125 594 q 56 650 93 650 l 56 694 l 147 694 q 278 674 240 694 q 317 579 317 654 z "},"Į":{"ha":442,"x_min":56,"x_max":476,"o":"m 449 -175 l 476 -247 q 348 -308 425 -297 q 214 -284 271 -318 q 157 -186 157 -250 q 300 -14 157 -92 l 300 0 l 56 0 l 56 44 q 109 72 93 44 q 125 167 125 100 l 125 750 q 109 844 125 817 q 56 872 93 872 l 56 917 l 386 917 l 386 872 q 333 844 349 872 q 317 750 317 817 l 317 167 q 333 72 317 100 q 386 44 349 44 l 386 0 q 271 -156 271 -87 q 332 -215 271 -207 q 449 -175 393 -224 z "},"į":{"ha":442,"x_min":56,"x_max":476,"o":"m 221 808 q 159 834 185 808 q 133 897 133 860 q 160 958 133 932 q 221 983 186 983 q 281 957 254 983 q 308 897 308 931 q 282 835 308 861 q 221 808 256 808 m 449 -175 l 476 -247 q 348 -308 425 -297 q 214 -284 271 -318 q 157 -186 157 -250 q 300 -14 157 -92 l 300 0 l 56 0 l 56 44 q 109 72 93 44 q 125 167 125 100 l 125 528 q 109 622 125 594 q 56 650 93 650 l 56 694 l 147 694 q 278 674 240 694 q 317 579 317 654 l 317 167 q 333 72 317 100 q 386 44 349 44 l 386 0 q 271 -156 271 -87 q 332 -215 271 -207 q 449 -175 393 -224 z "},"İ":{"ha":442,"x_min":56,"x_max":386,"o":"m 221 1031 q 159 1056 185 1031 q 133 1119 133 1082 q 160 1180 133 1154 q 221 1206 186 1206 q 281 1179 254 1206 q 308 1119 308 1153 q 282 1057 308 1083 q 221 1031 256 1031 m 56 0 l 56 44 q 109 72 93 44 q 125 167 125 100 l 125 750 q 109 844 125 817 q 56 872 93 872 l 56 917 l 386 917 l 386 872 q 333 844 349 872 q 317 750 317 817 l 317 167 q 333 72 317 100 q 386 44 349 44 l 386 0 l 56 0 z "},"ı":{"ha":442,"x_min":56,"x_max":386,"o":"m 317 579 l 317 167 q 333 72 317 100 q 386 44 349 44 l 386 0 l 56 0 l 56 44 q 109 72 93 44 q 125 167 125 100 l 125 528 q 109 622 125 594 q 56 650 93 650 l 56 694 l 147 694 q 278 674 240 694 q 317 579 317 654 z "},"Ķ":{"ha":1008,"x_min":56,"x_max":994,"o":"m 811 254 q 890 88 850 131 q 994 44 931 44 l 994 0 q 738 40 817 0 q 622 215 658 79 q 606 276 615 239 q 592 331 597 313 q 578 378 588 350 q 560 420 568 406 q 537 452 551 435 q 506 478 522 469 q 465 492 489 486 q 410 499 440 499 l 317 418 l 317 167 q 333 72 317 100 q 386 44 349 44 l 386 0 l 56 0 l 56 44 q 109 72 93 44 q 125 167 125 100 l 125 750 q 109 844 125 817 q 56 872 93 872 l 56 917 l 386 917 l 386 872 q 333 844 349 872 q 317 750 317 817 l 317 514 l 658 808 q 706 860 707 850 q 603 872 703 872 l 603 917 l 971 917 l 971 872 q 769 808 844 872 l 489 567 l 506 581 l 506 567 q 624 549 575 568 q 707 485 672 531 q 763 390 742 439 q 811 254 783 342 m 532 -92 q 594 -116 569 -92 q 618 -189 618 -140 q 472 -342 618 -311 l 467 -292 q 557 -239 544 -278 q 515 -251 539 -251 q 467 -228 485 -251 q 450 -171 450 -204 q 473 -115 450 -137 q 532 -92 496 -92 z "},"ķ":{"ha":906,"x_min":56,"x_max":928,"o":"m 744 254 q 823 87 783 129 q 928 44 863 44 l 928 0 q 784 7 838 0 q 682 36 731 14 q 604 101 633 58 q 557 215 575 144 q 499 338 531 307 q 397 369 467 369 l 317 310 l 317 167 q 333 72 317 100 q 386 44 349 44 l 386 0 l 56 0 l 56 44 q 109 72 93 44 q 125 167 125 100 l 125 833 q 109 928 125 900 q 56 956 93 956 l 56 1000 l 147 1000 q 278 978 240 1000 q 317 878 317 957 l 317 400 l 582 596 q 635 639 633 633 q 624 647 636 644 q 535 650 606 650 l 535 694 l 907 694 l 907 650 q 703 596 778 650 l 508 451 l 508 439 q 663 395 613 439 q 744 254 713 351 m 461 -92 q 523 -116 499 -92 q 547 -189 547 -140 q 401 -342 547 -311 l 396 -292 q 486 -239 474 -278 q 444 -251 468 -251 q 397 -228 414 -251 q 379 -171 379 -204 q 402 -115 379 -137 q 461 -92 425 -92 z "},"Ĺ":{"ha":842,"x_min":56,"x_max":800,"o":"m 360 1222 q 320 1114 360 1161 q 233 1044 281 1067 q 132 1014 185 1022 l 82 1050 q 162 1102 136 1071 q 188 1194 188 1133 l 360 1222 m 756 215 l 800 211 l 782 28 l 779 0 l 56 0 l 56 44 q 109 72 93 44 q 125 167 125 100 l 125 750 q 109 844 125 817 q 56 872 93 872 l 56 917 l 386 917 l 386 872 q 333 844 349 872 q 317 750 317 817 l 317 72 l 619 72 q 717 106 686 72 q 756 215 749 139 z "},"ĺ":{"ha":428,"x_min":56,"x_max":386,"o":"m 76 1133 q 156 1185 131 1154 q 182 1278 182 1217 l 354 1306 q 315 1197 354 1244 q 227 1128 275 1150 q 126 1097 179 1106 l 76 1133 m 317 878 l 317 167 q 333 72 317 100 q 386 44 349 44 l 386 0 l 56 0 l 56 44 q 109 72 93 44 q 125 167 125 100 l 125 833 q 109 928 125 900 q 56 956 93 956 l 56 1000 l 147 1000 q 278 978 240 1000 q 317 878 317 957 z "},"Ļ":{"ha":842,"x_min":56,"x_max":800,"o":"m 756 215 l 800 211 l 782 28 l 779 0 l 56 0 l 56 44 q 109 72 93 44 q 125 167 125 100 l 125 750 q 109 844 125 817 q 56 872 93 872 l 56 917 l 386 917 l 386 872 q 333 844 349 872 q 317 750 317 817 l 317 72 l 619 72 q 717 106 686 72 q 756 215 749 139 m 454 -92 q 516 -116 492 -92 q 540 -189 540 -140 q 394 -342 540 -311 l 389 -292 q 479 -239 467 -278 q 438 -251 461 -251 q 390 -228 407 -251 q 372 -171 372 -204 q 395 -115 372 -137 q 454 -92 418 -92 z "},"ļ":{"ha":428,"x_min":56,"x_max":386,"o":"m 317 878 l 317 167 q 333 72 317 100 q 386 44 349 44 l 386 0 l 56 0 l 56 44 q 109 72 93 44 q 125 167 125 100 l 125 833 q 109 928 125 900 q 56 956 93 956 l 56 1000 l 147 1000 q 278 978 240 1000 q 317 878 317 957 m 153 -292 q 243 -239 231 -278 q 201 -251 225 -251 q 153 -228 171 -251 q 136 -171 136 -204 q 159 -115 136 -137 q 218 -92 182 -92 q 280 -116 256 -92 q 304 -189 304 -140 q 158 -342 304 -311 l 153 -292 z "},"Ľ":{"ha":842,"x_min":17,"x_max":800,"o":"m 142 1007 q 104 1088 132 1061 q 17 1129 76 1114 l 44 1224 q 147 1183 100 1213 q 214 1107 194 1153 l 228 1107 q 294 1183 247 1153 q 397 1224 342 1213 l 425 1129 q 338 1088 365 1114 q 300 1007 310 1061 l 142 1007 m 756 215 l 800 211 l 782 28 l 779 0 l 56 0 l 56 44 q 109 72 93 44 q 125 167 125 100 l 125 750 q 109 844 125 817 q 56 872 93 872 l 56 917 l 386 917 l 386 872 q 333 844 349 872 q 317 750 317 817 l 317 72 l 619 72 q 717 106 686 72 q 756 215 749 139 z "},"ľ":{"ha":428,"x_min":11,"x_max":419,"o":"m 419 1213 q 332 1171 360 1197 q 294 1090 304 1144 l 136 1090 q 99 1171 126 1144 q 11 1213 71 1197 l 39 1307 q 142 1266 94 1296 q 208 1190 189 1236 l 222 1190 q 289 1266 242 1236 q 392 1307 336 1296 l 419 1213 m 317 878 l 317 167 q 333 72 317 100 q 386 44 349 44 l 386 0 l 56 0 l 56 44 q 109 72 93 44 q 125 167 125 100 l 125 833 q 109 928 125 900 q 56 956 93 956 l 56 1000 l 147 1000 q 278 978 240 1000 q 317 878 317 957 z "},"Ł":{"ha":781,"x_min":56,"x_max":800,"o":"m 756 215 l 800 211 l 782 28 l 779 0 l 56 0 l 56 44 q 109 72 93 44 q 125 167 125 100 l 125 549 l 56 535 l 56 608 l 125 622 l 125 750 q 109 844 125 817 q 56 872 93 872 l 56 917 l 386 917 l 386 872 q 333 844 349 872 q 317 750 317 817 l 317 660 l 494 694 l 494 621 l 317 586 l 317 72 l 619 72 q 717 106 686 72 q 756 215 749 139 z "},"ł":{"ha":375,"x_min":28,"x_max":386,"o":"m 317 167 q 333 72 317 100 q 386 44 349 44 l 386 0 l 56 0 l 56 44 q 109 72 93 44 q 125 167 125 100 l 125 565 l 28 535 l 28 594 l 125 625 l 125 833 q 109 928 125 900 q 56 956 93 956 l 56 1000 l 147 1000 q 278 978 240 1000 q 317 878 317 957 l 317 685 l 347 694 l 347 635 l 317 625 l 317 167 z "},"Ń":{"ha":1079,"x_min":56,"x_max":1024,"o":"m 401 1050 q 481 1102 456 1071 q 507 1194 507 1133 l 679 1222 q 640 1114 679 1161 q 552 1044 600 1067 q 451 1014 504 1022 l 401 1050 m 56 0 l 56 44 q 109 72 93 44 q 125 167 125 100 l 125 750 q 109 844 125 817 q 56 872 93 872 l 56 917 l 147 917 q 290 891 239 914 q 390 806 340 868 l 882 174 l 882 750 q 866 844 882 817 q 813 872 850 872 l 813 917 l 1024 917 l 1024 872 q 970 844 986 872 q 954 750 954 817 l 954 0 q 796 22 850 0 q 689 111 742 44 l 197 743 l 197 167 q 213 72 197 100 q 267 44 229 44 l 267 0 l 56 0 z "},"ń":{"ha":946,"x_min":56,"x_max":890,"o":"m 613 1000 q 573 892 613 939 q 485 822 533 844 q 385 792 438 800 l 335 828 q 415 880 389 849 q 440 972 440 911 l 613 1000 m 821 167 q 837 72 821 100 q 890 44 853 44 l 890 0 l 560 0 l 560 44 q 613 72 597 44 q 629 167 629 100 l 629 490 q 522 636 629 636 q 406 578 454 636 q 338 435 358 519 q 317 250 317 350 l 317 167 q 333 72 317 100 q 386 44 349 44 l 386 0 l 56 0 l 56 44 q 109 72 93 44 q 125 167 125 100 l 125 528 q 109 622 125 594 q 56 650 93 650 l 56 694 l 147 694 q 278 674 240 694 q 317 579 317 654 l 317 494 l 331 494 q 415 652 353 596 q 581 708 478 708 q 756 641 690 708 q 821 443 821 574 l 821 167 z "},"Ņ":{"ha":1079,"x_min":56,"x_max":1024,"o":"m 56 0 l 56 44 q 109 72 93 44 q 125 167 125 100 l 125 750 q 109 844 125 817 q 56 872 93 872 l 56 917 l 147 917 q 290 891 239 914 q 390 806 340 868 l 882 174 l 882 750 q 866 844 882 817 q 813 872 850 872 l 813 917 l 1024 917 l 1024 872 q 970 844 986 872 q 954 750 954 817 l 954 0 q 796 22 850 0 q 689 111 742 44 l 197 743 l 197 167 q 213 72 197 100 q 267 44 229 44 l 267 0 l 56 0 m 472 -292 q 563 -239 550 -278 q 521 -251 544 -251 q 473 -228 490 -251 q 456 -171 456 -204 q 478 -115 456 -137 q 538 -92 501 -92 q 599 -116 575 -92 q 624 -189 624 -140 q 478 -342 624 -311 l 472 -292 z "},"ņ":{"ha":946,"x_min":56,"x_max":890,"o":"m 821 167 q 837 72 821 100 q 890 44 853 44 l 890 0 l 560 0 l 560 44 q 613 72 597 44 q 629 167 629 100 l 629 490 q 522 636 629 636 q 406 578 454 636 q 338 435 358 519 q 317 250 317 350 l 317 167 q 333 72 317 100 q 386 44 349 44 l 386 0 l 56 0 l 56 44 q 109 72 93 44 q 125 167 125 100 l 125 528 q 109 622 125 594 q 56 650 93 650 l 56 694 l 147 694 q 278 674 240 694 q 317 579 317 654 l 317 494 l 331 494 q 415 652 353 596 q 581 708 478 708 q 756 641 690 708 q 821 443 821 574 l 821 167 m 471 -92 q 533 -116 508 -92 q 557 -189 557 -140 q 411 -342 557 -311 l 406 -292 q 496 -239 483 -278 q 454 -251 478 -251 q 406 -228 424 -251 q 389 -171 389 -204 q 412 -115 389 -137 q 471 -92 435 -92 z "},"Ň":{"ha":1079,"x_min":56,"x_max":1024,"o":"m 744 1129 q 657 1088 685 1114 q 619 1007 629 1061 l 461 1007 q 424 1088 451 1061 q 336 1129 396 1114 l 364 1224 q 467 1183 419 1213 q 533 1107 514 1153 l 547 1107 q 614 1183 567 1153 q 717 1224 661 1213 l 744 1129 m 56 0 l 56 44 q 109 72 93 44 q 125 167 125 100 l 125 750 q 109 844 125 817 q 56 872 93 872 l 56 917 l 147 917 q 290 891 239 914 q 390 806 340 868 l 882 174 l 882 750 q 866 844 882 817 q 813 872 850 872 l 813 917 l 1024 917 l 1024 872 q 970 844 986 872 q 954 750 954 817 l 954 0 q 796 22 850 0 q 689 111 742 44 l 197 743 l 197 167 q 213 72 197 100 q 267 44 229 44 l 267 0 l 56 0 z "},"ň":{"ha":946,"x_min":56,"x_max":890,"o":"m 394 785 q 357 865 385 839 q 269 907 329 892 l 297 1001 q 400 960 353 990 q 467 885 447 931 l 481 885 q 547 960 500 931 q 650 1001 594 990 l 678 907 q 590 865 618 892 q 553 785 563 839 l 394 785 m 821 167 q 837 72 821 100 q 890 44 853 44 l 890 0 l 560 0 l 560 44 q 613 72 597 44 q 629 167 629 100 l 629 490 q 522 636 629 636 q 406 578 454 636 q 338 435 358 519 q 317 250 317 350 l 317 167 q 333 72 317 100 q 386 44 349 44 l 386 0 l 56 0 l 56 44 q 109 72 93 44 q 125 167 125 100 l 125 528 q 109 622 125 594 q 56 650 93 650 l 56 694 l 147 694 q 278 674 240 694 q 317 579 317 654 l 317 494 l 331 494 q 415 652 353 596 q 581 708 478 708 q 756 641 690 708 q 821 443 821 574 l 821 167 z "},"Ŋ":{"ha":1079,"x_min":56,"x_max":1024,"o":"m 1024 917 l 1024 872 q 970 844 986 872 q 954 750 954 817 l 954 0 q 885 -222 954 -153 q 707 -292 815 -292 q 561 -264 640 -292 l 589 -192 q 674 -219 635 -219 q 738 -192 711 -219 q 775 -124 765 -165 q 768 -24 785 -82 q 707 89 751 33 l 689 111 l 197 743 l 197 167 q 213 72 197 100 q 267 44 229 44 l 267 0 l 56 0 l 56 44 q 109 72 93 44 q 125 167 125 100 l 125 750 q 109 844 125 817 q 56 872 93 872 l 56 917 l 147 917 q 290 891 239 914 q 390 806 340 868 l 882 174 l 882 750 q 866 844 882 817 q 813 872 850 872 l 813 917 l 1024 917 z "},"ŋ":{"ha":876,"x_min":56,"x_max":821,"o":"m 581 708 q 756 641 690 708 q 821 443 821 574 l 821 0 q 763 -225 821 -158 q 590 -292 706 -292 q 428 -256 506 -292 l 456 -175 q 550 -211 508 -211 q 613 -160 596 -211 q 629 0 629 -108 l 629 490 q 522 636 629 636 q 406 578 454 636 q 338 435 358 519 q 317 250 317 350 l 317 167 q 333 72 317 100 q 386 44 349 44 l 386 0 l 56 0 l 56 44 q 109 72 93 44 q 125 167 125 100 l 125 528 q 109 622 125 594 q 56 650 93 650 l 56 694 l 147 694 q 278 674 240 694 q 317 579 317 654 l 317 494 l 331 494 q 415 652 353 596 q 581 708 478 708 z "},"Ō":{"ha":1053,"x_min":56,"x_max":997,"o":"m 310 1154 l 742 1154 l 742 1082 l 310 1082 l 310 1154 m 180 117 q 118 183 180 117 q 56 458 56 249 q 180 799 56 668 q 526 931 304 931 q 873 799 749 931 q 997 458 997 668 q 873 117 997 249 q 526 -14 749 -14 q 180 117 304 -14 m 249 424 q 354 140 272 238 q 589 63 436 43 q 733 133 679 74 q 803 282 788 192 q 804 493 819 372 q 698 777 779 681 q 464 854 617 874 q 278 723 329 838 q 249 424 226 608 z "},"ō":{"ha":872,"x_min":56,"x_max":817,"o":"m 219 932 l 651 932 l 651 860 l 219 860 l 219 932 m 153 90 q 104 142 153 90 q 56 347 56 194 q 153 604 56 500 q 436 708 250 708 q 719 604 622 708 q 817 347 817 500 q 719 90 817 194 q 436 -14 622 -14 q 153 90 250 -14 m 249 324 q 321 117 267 186 q 475 61 375 49 q 624 371 660 85 q 551 577 606 508 q 397 633 497 646 q 249 324 213 610 z "},"Ő":{"ha":1053,"x_min":56,"x_max":997,"o":"m 528 1078 q 608 1130 582 1099 q 633 1222 633 1161 l 806 1250 q 766 1142 806 1189 q 678 1072 726 1094 q 578 1042 631 1050 l 528 1078 m 286 1050 q 366 1102 340 1071 q 392 1194 392 1133 l 564 1222 q 524 1114 564 1161 q 437 1044 485 1067 q 336 1014 389 1022 l 286 1050 m 180 117 q 118 183 180 117 q 56 458 56 249 q 180 799 56 668 q 526 931 304 931 q 873 799 749 931 q 997 458 997 668 q 873 117 997 249 q 526 -14 749 -14 q 180 117 304 -14 m 249 424 q 354 140 272 238 q 589 63 436 43 q 733 133 679 74 q 803 282 788 192 q 804 493 819 372 q 698 777 779 681 q 464 854 617 874 q 278 723 329 838 q 249 424 226 608 z "},"ő":{"ha":872,"x_min":56,"x_max":817,"o":"m 438 856 q 517 908 492 876 q 543 1000 543 939 l 715 1028 q 676 919 715 967 q 588 850 636 872 q 488 819 540 828 l 438 856 m 196 828 q 276 880 250 849 q 301 972 301 911 l 474 1000 q 434 892 474 939 q 347 822 394 844 q 246 792 299 800 l 196 828 m 153 90 q 104 142 153 90 q 56 347 56 194 q 153 604 56 500 q 436 708 250 708 q 719 604 622 708 q 817 347 817 500 q 719 90 817 194 q 436 -14 622 -14 q 153 90 250 -14 m 249 324 q 321 117 267 186 q 475 61 375 49 q 624 371 660 85 q 551 577 606 508 q 397 633 497 646 q 249 324 213 610 z "},"Œ":{"ha":1579,"x_min":56,"x_max":1524,"o":"m 1479 215 l 1524 211 l 1506 28 l 1503 0 l 849 0 l 849 94 q 526 -14 725 -14 q 180 117 304 -14 q 56 458 56 249 q 180 799 56 668 q 526 931 304 931 q 849 822 725 931 l 849 917 l 1489 917 l 1492 889 l 1510 706 l 1465 701 q 1427 811 1458 778 q 1329 844 1396 844 l 1040 844 l 1040 501 l 1207 501 q 1301 517 1272 501 q 1329 571 1329 533 l 1374 571 l 1374 360 l 1329 360 q 1301 413 1329 397 q 1207 429 1272 429 l 1040 429 l 1040 72 l 1343 72 q 1441 106 1410 72 q 1479 215 1472 139 m 589 63 q 733 133 679 74 q 803 282 788 192 q 804 493 819 372 q 698 777 779 681 q 464 854 617 874 q 278 723 329 838 q 249 424 226 608 q 354 140 272 238 q 589 63 436 43 z "},"œ":{"ha":1371,"x_min":56,"x_max":1322,"o":"m 1119 225 l 1311 261 q 1240 65 1322 144 q 1007 -14 1158 -14 q 715 86 813 -14 q 436 -14 613 -14 q 153 90 250 -14 q 56 347 56 194 q 153 604 56 500 q 436 708 250 708 q 726 596 624 708 q 1021 708 835 708 q 1234 654 1153 708 q 1315 504 1315 600 q 1265 379 1315 429 q 1137 312 1214 329 q 977 296 1060 294 q 821 315 894 297 q 868 131 822 203 q 1001 58 914 58 q 1101 96 1071 58 q 1119 225 1132 133 m 475 61 q 624 371 660 85 q 551 577 606 508 q 397 633 497 646 q 249 324 213 610 q 321 117 267 186 q 475 61 375 49 m 1003 636 q 824 390 842 636 q 1048 388 972 357 q 1124 508 1124 419 q 1003 636 1124 636 z "},"Ŕ":{"ha":983,"x_min":56,"x_max":969,"o":"m 596 1222 q 556 1114 596 1161 q 469 1044 517 1067 q 368 1014 421 1022 l 318 1050 q 398 1102 372 1071 q 424 1194 424 1133 l 596 1222 m 789 267 q 865 88 822 132 q 969 44 907 44 l 969 0 q 853 3 897 0 q 759 18 810 6 q 678 55 708 31 q 622 122 647 79 q 583 228 596 165 q 553 356 565 317 q 515 427 542 394 q 448 467 488 460 q 335 475 408 475 l 317 475 l 317 167 q 333 72 317 100 q 386 44 349 44 l 386 0 l 56 0 l 56 44 q 109 72 93 44 q 125 167 125 100 l 125 750 q 109 844 125 817 q 56 872 93 872 l 56 917 l 450 917 q 511 916 489 917 q 576 911 533 915 q 647 899 619 907 q 708 876 674 892 q 761 838 742 860 q 794 780 781 815 q 808 700 808 744 q 625 490 808 532 q 789 267 751 421 m 317 547 l 447 547 q 617 694 617 547 q 447 844 617 844 l 317 844 l 317 547 z "},"ŕ":{"ha":806,"x_min":56,"x_max":826,"o":"m 546 1000 q 506 892 546 939 q 419 822 467 844 q 318 792 371 800 l 268 828 q 348 880 322 849 q 374 972 374 911 l 546 1000 m 597 708 q 740 388 826 708 l 549 415 q 529 636 647 636 q 379 517 442 636 q 317 250 317 397 l 317 167 q 333 72 317 100 q 386 44 349 44 l 386 0 l 56 0 l 56 44 q 109 72 93 44 q 125 167 125 100 l 125 528 q 109 622 125 594 q 56 650 93 650 l 56 694 l 147 694 q 278 674 240 694 q 317 579 317 654 l 317 494 l 331 494 q 424 642 356 576 q 597 708 493 708 z "},"Ŗ":{"ha":983,"x_min":56,"x_max":969,"o":"m 789 267 q 865 88 822 132 q 969 44 907 44 l 969 0 q 853 3 897 0 q 759 18 810 6 q 678 55 708 31 q 622 122 647 79 q 583 228 596 165 q 553 356 565 317 q 515 427 542 394 q 448 467 488 460 q 335 475 408 475 l 317 475 l 317 167 q 333 72 317 100 q 386 44 349 44 l 386 0 l 56 0 l 56 44 q 109 72 93 44 q 125 167 125 100 l 125 750 q 109 844 125 817 q 56 872 93 872 l 56 917 l 450 917 q 511 916 489 917 q 576 911 533 915 q 647 899 619 907 q 708 876 674 892 q 761 838 742 860 q 794 780 781 815 q 808 700 808 744 q 625 490 808 532 q 789 267 751 421 m 317 547 l 447 547 q 617 694 617 547 q 447 844 617 844 l 317 844 l 317 547 m 538 -92 q 599 -116 575 -92 q 624 -189 624 -140 q 478 -342 624 -311 l 472 -292 q 563 -239 550 -278 q 521 -251 544 -251 q 473 -228 490 -251 q 456 -171 456 -204 q 478 -115 456 -137 q 538 -92 501 -92 z "},"ŗ":{"ha":806,"x_min":56,"x_max":826,"o":"m 597 708 q 740 388 826 708 l 549 415 q 529 636 647 636 q 379 517 442 636 q 317 250 317 397 l 317 167 q 333 72 317 100 q 386 44 349 44 l 386 0 l 56 0 l 56 44 q 109 72 93 44 q 125 167 125 100 l 125 528 q 109 622 125 594 q 56 650 93 650 l 56 694 l 147 694 q 278 674 240 694 q 317 579 317 654 l 317 494 l 331 494 q 424 642 356 576 q 597 708 493 708 m 226 -92 q 288 -116 264 -92 q 313 -189 313 -140 q 167 -342 313 -311 l 161 -292 q 251 -239 239 -278 q 210 -251 233 -251 q 162 -228 179 -251 q 144 -171 144 -204 q 167 -115 144 -137 q 226 -92 190 -92 z "},"Ř":{"ha":983,"x_min":56,"x_max":969,"o":"m 378 1007 q 340 1088 368 1061 q 253 1129 313 1114 l 281 1224 q 383 1183 336 1213 q 450 1107 431 1153 l 464 1107 q 531 1183 483 1153 q 633 1224 578 1213 l 661 1129 q 574 1088 601 1114 q 536 1007 546 1061 l 378 1007 m 789 267 q 865 88 822 132 q 969 44 907 44 l 969 0 q 853 3 897 0 q 759 18 810 6 q 678 55 708 31 q 622 122 647 79 q 583 228 596 165 q 553 356 565 317 q 515 427 542 394 q 448 467 488 460 q 335 475 408 475 l 317 475 l 317 167 q 333 72 317 100 q 386 44 349 44 l 386 0 l 56 0 l 56 44 q 109 72 93 44 q 125 167 125 100 l 125 750 q 109 844 125 817 q 56 872 93 872 l 56 917 l 450 917 q 511 916 489 917 q 576 911 533 915 q 647 899 619 907 q 708 876 674 892 q 761 838 742 860 q 794 780 781 815 q 808 700 808 744 q 625 490 808 532 q 789 267 751 421 m 317 547 l 447 547 q 617 694 617 547 q 447 844 617 844 l 317 844 l 317 547 z "},"ř":{"ha":806,"x_min":56,"x_max":826,"o":"m 328 785 q 290 865 318 839 q 203 907 263 892 l 231 1001 q 333 960 286 990 q 400 885 381 931 l 414 885 q 481 960 433 931 q 583 1001 528 990 l 611 907 q 524 865 551 892 q 486 785 496 839 l 328 785 m 597 708 q 740 388 826 708 l 549 415 q 529 636 647 636 q 379 517 442 636 q 317 250 317 397 l 317 167 q 333 72 317 100 q 386 44 349 44 l 386 0 l 56 0 l 56 44 q 109 72 93 44 q 125 167 125 100 l 125 528 q 109 622 125 594 q 56 650 93 650 l 56 694 l 147 694 q 278 674 240 694 q 317 579 317 654 l 317 494 l 331 494 q 424 642 356 576 q 597 708 493 708 z "},"Ś":{"ha":931,"x_min":43,"x_max":889,"o":"m 347 1050 q 427 1102 401 1071 q 453 1194 453 1133 l 625 1222 q 585 1114 625 1161 q 498 1044 546 1067 q 397 1014 450 1022 l 347 1050 m 88 679 q 196 869 88 807 q 475 931 304 931 q 633 914 561 931 q 766 860 706 897 q 844 760 826 822 q 840 608 863 699 l 649 636 q 651 808 700 757 q 475 858 601 858 q 279 721 279 858 q 328 630 279 663 q 485 564 378 597 q 718 483 669 506 q 885 300 864 417 q 889 253 889 278 q 496 -14 889 -14 q 353 -3 419 -14 q 222 34 286 8 q 119 103 157 60 q 62 213 81 147 q 68 368 43 278 l 260 340 q 499 58 172 58 q 651 97 604 58 q 697 210 697 135 q 663 290 697 257 q 593 338 628 324 q 472 379 558 353 q 465 381 468 381 q 458 383 463 382 q 451 386 454 385 q 218 474 275 442 q 88 679 88 546 z "},"ś":{"ha":726,"x_min":32,"x_max":685,"o":"m 221 828 q 301 880 275 849 q 326 972 326 911 l 499 1000 q 459 892 499 939 q 372 822 419 844 q 271 792 324 800 l 221 828 m 56 514 q 138 661 56 614 q 357 708 221 708 q 461 701 413 708 q 554 674 510 693 q 625 626 599 656 q 663 553 651 597 q 656 451 674 510 l 464 479 q 458 601 492 565 q 361 636 425 636 q 247 546 247 636 q 278 474 247 499 q 403 422 310 449 q 491 397 463 406 q 564 369 519 389 q 630 329 608 350 q 668 275 651 308 q 685 200 685 242 q 600 38 685 89 q 383 -14 515 -14 q 269 -6 322 -14 q 167 23 217 3 q 88 76 117 43 q 46 161 60 110 q 51 282 32 213 l 243 254 q 372 58 175 58 q 463 88 433 58 q 493 165 493 117 q 455 244 493 219 q 325 297 417 269 q 216 331 254 317 q 135 369 178 344 q 74 430 93 394 q 56 514 56 465 z "},"Ş":{"ha":931,"x_min":46,"x_max":889,"o":"m 889 253 q 517 -14 889 -6 l 458 -89 l 472 -89 q 554 -67 508 -67 q 640 -96 601 -67 q 679 -187 679 -125 q 630 -297 679 -258 q 501 -335 581 -335 q 379 -293 426 -335 q 349 -185 332 -251 l 449 -210 q 454 -249 436 -236 q 499 -262 472 -262 q 557 -244 535 -262 q 579 -189 579 -225 q 525 -139 579 -139 q 443 -162 483 -139 l 390 -153 l 425 -11 q 298 8 356 -7 q 187 51 240 22 q 103 122 133 79 q 59 226 72 164 q 68 368 46 288 l 260 340 q 499 58 172 58 q 651 97 604 58 q 697 210 697 135 q 663 290 697 257 q 593 338 628 324 q 472 379 558 353 q 465 381 468 381 q 458 383 463 382 q 451 386 454 385 q 218 474 275 442 q 88 679 88 546 q 196 869 88 807 q 475 931 304 931 q 633 914 561 931 q 766 860 706 897 q 844 760 826 822 q 840 608 863 699 l 649 636 q 651 808 700 757 q 475 858 601 858 q 279 721 279 858 q 328 630 279 663 q 485 564 378 597 q 718 483 669 506 q 885 300 864 417 q 889 253 889 278 z "},"ş":{"ha":726,"x_min":18,"x_max":685,"o":"m 685 200 q 604 40 685 90 q 396 -14 524 -11 l 338 -89 l 351 -89 q 433 -67 388 -67 q 519 -96 481 -67 q 558 -187 558 -125 q 509 -297 558 -258 q 381 -335 460 -335 q 258 -293 306 -335 q 228 -185 211 -251 l 328 -210 q 333 -249 315 -236 q 378 -262 351 -262 q 436 -244 414 -262 q 458 -189 458 -225 q 404 -139 458 -139 q 322 -162 363 -139 l 269 -153 l 304 -10 q 92 72 165 3 q 51 282 18 142 l 243 254 q 372 58 175 58 q 463 88 433 58 q 493 165 493 117 q 455 244 493 219 q 325 297 417 269 q 216 331 254 317 q 135 369 178 344 q 74 430 93 394 q 56 514 56 465 q 138 661 56 614 q 357 708 221 708 q 461 701 413 708 q 554 674 510 693 q 625 626 599 656 q 663 553 651 597 q 656 451 674 510 l 464 479 q 458 601 492 565 q 361 636 425 636 q 247 546 247 636 q 278 474 247 499 q 403 422 310 449 q 491 397 463 406 q 564 369 519 389 q 630 329 608 350 q 668 275 651 308 q 685 200 685 242 z "},"Š":{"ha":931,"x_min":43,"x_max":889,"o":"m 690 1129 q 603 1088 631 1114 q 565 1007 575 1061 l 407 1007 q 369 1088 397 1061 q 282 1129 342 1114 l 310 1224 q 413 1183 365 1213 q 479 1107 460 1153 l 493 1107 q 560 1183 513 1153 q 663 1224 607 1213 l 690 1129 m 88 679 q 196 869 88 807 q 475 931 304 931 q 633 914 561 931 q 766 860 706 897 q 844 760 826 822 q 840 608 863 699 l 649 636 q 651 808 700 757 q 475 858 601 858 q 279 721 279 858 q 328 630 279 663 q 485 564 378 597 q 718 483 669 506 q 885 300 864 417 q 889 253 889 278 q 496 -14 889 -14 q 353 -3 419 -14 q 222 34 286 8 q 119 103 157 60 q 62 213 81 147 q 68 368 43 278 l 260 340 q 499 58 172 58 q 651 97 604 58 q 697 210 697 135 q 663 290 697 257 q 593 338 628 324 q 472 379 558 353 q 465 381 468 381 q 458 383 463 382 q 451 386 454 385 q 218 474 275 442 q 88 679 88 546 z "},"š":{"ha":726,"x_min":32,"x_max":685,"o":"m 564 907 q 476 865 504 892 q 439 785 449 839 l 281 785 q 243 865 271 839 q 156 907 215 892 l 183 1001 q 286 960 239 990 q 353 885 333 931 l 367 885 q 433 960 386 931 q 536 1001 481 990 l 564 907 m 56 514 q 138 661 56 614 q 357 708 221 708 q 461 701 413 708 q 554 674 510 693 q 625 626 599 656 q 663 553 651 597 q 656 451 674 510 l 464 479 q 458 601 492 565 q 361 636 425 636 q 247 546 247 636 q 278 474 247 499 q 403 422 310 449 q 491 397 463 406 q 564 369 519 389 q 630 329 608 350 q 668 275 651 308 q 685 200 685 242 q 600 38 685 89 q 383 -14 515 -14 q 269 -6 322 -14 q 167 23 217 3 q 88 76 117 43 q 46 161 60 110 q 51 282 32 213 l 243 254 q 372 58 175 58 q 463 88 433 58 q 493 165 493 117 q 455 244 493 219 q 325 297 417 269 q 216 331 254 317 q 135 369 178 344 q 74 430 93 394 q 56 514 56 465 z "},"Ţ":{"ha":964,"x_min":42,"x_max":922,"o":"m 904 889 l 922 706 l 878 701 q 840 811 871 778 q 742 844 808 844 l 578 844 l 578 167 q 594 72 578 100 q 647 44 610 44 l 647 0 l 525 0 l 456 -89 l 469 -89 q 551 -67 506 -67 q 638 -96 599 -67 q 676 -187 676 -125 q 627 -297 676 -258 q 499 -335 578 -335 q 376 -293 424 -335 q 346 -185 329 -251 l 446 -210 q 451 -249 433 -236 q 496 -262 469 -262 q 554 -244 532 -262 q 576 -189 576 -225 q 522 -139 576 -139 q 440 -162 481 -139 l 388 -153 l 425 0 l 317 0 l 317 44 q 370 72 354 44 q 386 167 386 100 l 386 844 l 222 844 q 124 811 156 844 q 86 701 93 778 l 42 706 l 60 889 l 63 917 l 901 917 l 904 889 z "},"ţ":{"ha":640,"x_min":56,"x_max":599,"o":"m 447 -67 q 533 -96 494 -67 q 572 -187 572 -125 q 523 -297 572 -258 q 394 -335 474 -335 q 272 -293 319 -335 q 242 -185 225 -251 l 342 -210 q 347 -249 329 -236 q 392 -262 365 -262 q 450 -244 428 -262 q 472 -189 472 -225 q 418 -139 472 -139 q 336 -162 376 -139 l 283 -153 l 319 -7 q 156 211 156 24 l 156 622 l 56 622 l 56 694 q 185 749 146 706 q 225 917 225 793 l 347 917 l 347 694 l 557 694 q 556 664 557 674 q 549 642 554 654 q 528 626 543 631 q 490 622 514 622 l 347 622 l 347 236 q 349 160 347 186 q 355 108 350 135 q 372 69 360 81 q 404 58 383 58 q 443 74 431 58 q 457 132 456 90 l 599 104 q 410 -14 560 -8 l 351 -89 l 365 -89 q 447 -67 401 -67 z "},"Ť":{"ha":964,"x_min":42,"x_max":922,"o":"m 403 1007 q 365 1088 393 1061 q 278 1129 338 1114 l 306 1224 q 408 1183 361 1213 q 475 1107 456 1153 l 489 1107 q 556 1183 508 1153 q 658 1224 603 1213 l 686 1129 q 599 1088 626 1114 q 561 1007 571 1061 l 403 1007 m 904 889 l 922 706 l 878 701 q 840 811 871 778 q 742 844 808 844 l 578 844 l 578 167 q 594 72 578 100 q 647 44 610 44 l 647 0 l 317 0 l 317 44 q 370 72 354 44 q 386 167 386 100 l 386 844 l 222 844 q 124 811 156 844 q 86 701 93 778 l 42 706 l 60 889 l 63 917 l 901 917 l 904 889 z "},"ť":{"ha":640,"x_min":56,"x_max":599,"o":"m 529 778 l 476 778 q 447 867 471 818 q 424 943 424 915 q 503 1014 424 1014 q 582 943 582 1014 q 558 867 582 915 q 529 778 535 818 m 457 132 l 599 104 q 392 -14 557 -14 q 156 211 156 -14 l 156 622 l 56 622 l 56 694 q 185 749 146 706 q 225 917 225 793 l 347 917 l 347 694 l 557 694 q 556 664 557 674 q 549 642 554 654 q 528 626 543 631 q 490 622 514 622 l 347 622 l 347 236 q 349 160 347 186 q 355 108 350 135 q 372 69 360 81 q 404 58 383 58 q 443 74 431 58 q 457 132 456 90 z "},"Ŧ":{"ha":964,"x_min":42,"x_max":922,"o":"m 904 889 l 922 706 l 878 701 q 840 811 871 778 q 742 844 808 844 l 578 844 l 578 494 l 707 494 l 707 422 l 578 422 l 578 167 q 594 72 578 100 q 647 44 610 44 l 647 0 l 317 0 l 317 44 q 370 72 354 44 q 386 167 386 100 l 386 422 l 257 422 l 257 494 l 386 494 l 386 844 l 222 844 q 124 811 156 844 q 86 701 93 778 l 42 706 l 60 889 l 63 917 l 901 917 l 904 889 z "},"ŧ":{"ha":640,"x_min":56,"x_max":599,"o":"m 457 132 l 599 104 q 392 -14 557 -14 q 156 211 156 -14 l 156 381 l 56 381 l 56 453 l 156 453 l 156 622 l 56 622 l 56 694 q 185 749 146 706 q 225 917 225 793 l 347 917 l 347 694 l 557 694 q 556 664 557 674 q 549 642 554 654 q 528 626 543 631 q 490 622 514 622 l 347 622 l 347 453 l 546 453 l 546 381 l 347 381 l 347 236 q 349 160 347 186 q 355 108 350 135 q 372 69 360 81 q 404 58 383 58 q 443 74 431 58 q 457 132 456 90 z "},"Ū":{"ha":1042,"x_min":42,"x_max":1000,"o":"m 789 1154 l 789 1082 l 357 1082 l 357 1154 l 789 1154 m 1000 917 l 1000 872 q 947 844 963 872 q 931 750 931 817 l 929 465 q 844 103 925 221 q 560 -14 763 -14 q 336 16 425 -14 q 199 110 247 46 q 131 258 150 175 q 111 465 111 342 l 111 750 q 95 844 111 817 q 42 872 79 872 l 42 917 l 372 917 l 372 872 q 319 844 335 872 q 303 750 303 817 l 301 465 q 362 147 301 236 q 582 58 422 58 q 794 155 733 58 q 858 465 854 251 l 860 750 q 844 844 860 817 q 790 872 828 872 l 790 917 l 1000 917 z "},"ū":{"ha":946,"x_min":56,"x_max":890,"o":"m 689 932 l 689 860 l 257 860 l 257 932 l 689 932 m 890 650 q 837 622 853 650 q 821 528 821 594 l 821 167 q 837 72 821 100 q 890 44 853 44 l 890 0 l 799 0 q 667 20 706 0 q 629 115 629 40 l 629 200 l 615 200 q 531 42 593 99 q 365 -14 468 -14 q 190 53 256 -14 q 125 251 125 121 l 125 528 q 109 622 125 594 q 56 650 93 650 l 56 694 l 386 694 l 386 650 q 333 622 349 650 q 317 528 317 594 l 317 204 q 424 58 317 58 q 540 117 492 58 q 608 260 588 175 q 629 444 629 344 l 629 528 q 613 622 629 594 q 560 650 597 650 l 560 694 l 890 694 l 890 650 z "},"Ů":{"ha":1042,"x_min":42,"x_max":1000,"o":"m 671 1040 q 653 1023 671 1040 q 574 1006 636 1006 q 476 1040 511 1006 q 442 1122 442 1075 q 476 1203 442 1168 q 574 1239 511 1239 q 670 1203 635 1239 q 706 1122 706 1168 q 671 1040 706 1075 m 622 1122 q 622 1144 622 1122 q 574 1167 622 1167 q 525 1122 525 1167 q 574 1078 525 1078 q 622 1122 622 1078 m 1000 917 l 1000 872 q 947 844 963 872 q 931 750 931 817 l 929 465 q 844 103 925 221 q 560 -14 763 -14 q 336 16 425 -14 q 199 110 247 46 q 131 258 150 175 q 111 465 111 342 l 111 750 q 95 844 111 817 q 42 872 79 872 l 42 917 l 372 917 l 372 872 q 319 844 335 872 q 303 750 303 817 l 301 465 q 362 147 301 236 q 582 58 422 58 q 794 155 733 58 q 858 465 854 251 l 860 750 q 844 844 860 817 q 790 872 828 872 l 790 917 l 1000 917 z "},"ů":{"ha":946,"x_min":56,"x_max":890,"o":"m 571 818 q 553 801 571 818 q 474 783 536 783 q 376 818 411 783 q 342 900 342 853 q 376 981 342 946 q 474 1017 411 1017 q 570 981 535 1017 q 606 900 606 946 q 571 818 606 853 m 522 900 q 522 922 522 900 q 474 944 522 944 q 425 900 425 944 q 474 856 425 856 q 522 900 522 856 m 890 650 q 837 622 853 650 q 821 528 821 594 l 821 167 q 837 72 821 100 q 890 44 853 44 l 890 0 l 799 0 q 667 20 706 0 q 629 115 629 40 l 629 200 l 615 200 q 531 42 593 99 q 365 -14 468 -14 q 190 53 256 -14 q 125 251 125 121 l 125 528 q 109 622 125 594 q 56 650 93 650 l 56 694 l 386 694 l 386 650 q 333 622 349 650 q 317 528 317 594 l 317 204 q 424 58 317 58 q 540 117 492 58 q 608 260 588 175 q 629 444 629 344 l 629 528 q 613 622 629 594 q 560 650 597 650 l 560 694 l 890 694 l 890 650 z "},"Ű":{"ha":1042,"x_min":42,"x_max":1000,"o":"m 625 1042 l 575 1078 q 655 1130 629 1099 q 681 1222 681 1161 l 853 1250 q 813 1142 853 1189 q 726 1072 774 1094 q 625 1042 678 1050 m 611 1222 q 572 1114 611 1161 q 484 1044 532 1067 q 383 1014 436 1022 l 333 1050 q 413 1102 388 1071 q 439 1194 439 1133 l 611 1222 m 1000 917 l 1000 872 q 947 844 963 872 q 931 750 931 817 l 929 465 q 844 103 925 221 q 560 -14 763 -14 q 336 16 425 -14 q 199 110 247 46 q 131 258 150 175 q 111 465 111 342 l 111 750 q 95 844 111 817 q 42 872 79 872 l 42 917 l 372 917 l 372 872 q 319 844 335 872 q 303 750 303 817 l 301 465 q 362 147 301 236 q 582 58 422 58 q 794 155 733 58 q 858 465 854 251 l 860 750 q 844 844 860 817 q 790 872 828 872 l 790 917 l 1000 917 z "},"ű":{"ha":946,"x_min":56,"x_max":890,"o":"m 525 819 l 475 856 q 555 908 529 876 q 581 1000 581 939 l 753 1028 q 713 919 753 967 q 626 850 674 872 q 525 819 578 828 m 511 1000 q 472 892 511 939 q 384 822 432 844 q 283 792 336 800 l 233 828 q 313 880 288 849 q 339 972 339 911 l 511 1000 m 890 650 q 837 622 853 650 q 821 528 821 594 l 821 167 q 837 72 821 100 q 890 44 853 44 l 890 0 l 799 0 q 667 20 706 0 q 629 115 629 40 l 629 200 l 615 200 q 531 42 593 99 q 365 -14 468 -14 q 190 53 256 -14 q 125 251 125 121 l 125 528 q 109 622 125 594 q 56 650 93 650 l 56 694 l 386 694 l 386 650 q 333 622 349 650 q 317 528 317 594 l 317 204 q 424 58 317 58 q 540 117 492 58 q 608 260 588 175 q 629 444 629 344 l 629 528 q 613 622 629 594 q 560 650 597 650 l 560 694 l 890 694 l 890 650 z "},"Ų":{"ha":1042,"x_min":42,"x_max":1000,"o":"m 1000 917 l 1000 872 q 947 844 963 872 q 931 750 931 817 l 929 465 q 870 147 926 261 q 681 -1 814 32 q 567 -156 567 -87 q 628 -215 567 -207 q 744 -175 689 -224 l 772 -247 q 644 -308 721 -297 q 510 -284 567 -318 q 453 -186 453 -250 q 596 -14 453 -92 l 596 -12 q 560 -14 585 -14 q 336 16 425 -14 q 199 110 247 46 q 131 258 150 175 q 111 465 111 342 l 111 750 q 95 844 111 817 q 42 872 79 872 l 42 917 l 372 917 l 372 872 q 319 844 335 872 q 303 750 303 817 l 301 465 q 362 147 301 236 q 582 58 422 58 q 794 155 733 58 q 858 465 854 251 l 860 750 q 844 844 860 817 q 790 872 828 872 l 790 917 l 1000 917 z "},"ų":{"ha":946,"x_min":56,"x_max":972,"o":"m 944 -175 l 972 -247 q 844 -308 921 -297 q 710 -284 767 -318 q 653 -186 653 -250 q 796 -14 653 -92 l 796 0 l 799 0 q 667 20 706 0 q 629 115 629 40 l 629 200 l 615 200 q 531 42 593 99 q 365 -14 468 -14 q 190 53 256 -14 q 125 251 125 121 l 125 528 q 109 622 125 594 q 56 650 93 650 l 56 694 l 386 694 l 386 650 q 333 622 349 650 q 317 528 317 594 l 317 204 q 424 58 317 58 q 540 117 492 58 q 608 260 588 175 q 629 444 629 344 l 629 528 q 613 622 629 594 q 560 650 597 650 l 560 694 l 890 694 l 890 650 q 837 622 853 650 q 821 528 821 594 l 821 167 q 837 72 821 100 q 890 44 853 44 l 890 0 l 882 0 q 767 -156 767 -87 q 828 -215 767 -207 q 944 -175 889 -224 z "},"Ŵ":{"ha":1768,"x_min":56,"x_max":1713,"o":"m 939 1131 q 872 1055 919 1085 q 769 1014 825 1025 l 742 1108 q 829 1150 801 1124 q 867 1231 857 1176 l 1025 1231 q 1063 1150 1035 1176 q 1150 1108 1090 1124 l 1122 1014 q 1019 1055 1067 1025 q 953 1131 972 1085 l 939 1131 m 1713 917 l 1713 872 q 1576 758 1614 872 l 1321 0 l 1121 0 l 883 794 l 644 0 l 443 0 l 192 758 q 56 872 154 872 l 56 917 l 479 917 l 479 872 q 388 847 406 872 q 393 758 371 821 l 604 121 l 846 917 l 1044 917 l 1285 118 l 1500 758 q 1505 847 1522 822 q 1414 872 1488 872 l 1414 917 l 1713 917 z "},"ŵ":{"ha":1343,"x_min":14,"x_max":1329,"o":"m 708 908 q 642 833 689 863 q 539 792 594 803 l 511 886 q 599 928 571 901 q 636 1008 626 954 l 794 1008 q 832 928 804 954 q 919 886 860 901 l 892 792 q 789 833 836 803 q 722 908 742 863 l 708 908 m 1329 694 l 1329 650 q 1186 536 1224 650 l 1008 0 l 807 0 l 674 418 l 536 0 l 335 0 l 157 536 q 14 650 119 650 l 14 694 l 444 694 l 444 650 q 353 624 371 650 q 357 536 335 599 l 499 113 l 689 694 l 764 694 l 969 113 l 1110 536 q 1115 624 1132 599 q 1024 650 1097 650 l 1024 694 l 1329 694 z "},"Ŷ":{"ha":1033,"x_min":14,"x_max":1019,"o":"m 511 1131 q 444 1055 492 1085 q 342 1014 397 1025 l 314 1108 q 401 1150 374 1124 q 439 1231 429 1176 l 597 1231 q 635 1150 607 1176 q 722 1108 663 1124 l 694 1014 q 592 1055 639 1025 q 525 1131 544 1085 l 511 1131 m 1019 917 l 1019 872 q 861 774 921 872 l 619 369 l 619 167 q 635 72 619 100 q 689 44 651 44 l 689 0 l 358 0 l 358 44 q 412 72 396 44 q 428 167 428 100 l 428 369 l 174 775 q 14 872 114 872 l 14 917 l 449 917 l 449 872 q 368 851 376 872 q 399 775 360 831 l 593 467 l 776 774 q 805 851 814 831 q 724 872 796 872 l 724 917 l 1019 917 z "},"ŷ":{"ha":985,"x_min":14,"x_max":971,"o":"m 538 908 q 471 833 518 863 q 368 792 424 803 l 340 886 q 428 928 400 901 q 465 1008 456 954 l 624 1008 q 661 928 633 954 q 749 886 689 901 l 721 792 q 618 833 665 803 q 551 908 571 863 l 538 908 m 971 694 l 971 650 q 825 540 869 650 l 585 -57 q 476 -226 536 -174 q 313 -278 417 -278 q 131 -209 186 -278 q 117 -28 75 -140 l 308 -56 q 280 -172 267 -139 q 342 -206 293 -206 q 507 -57 447 -206 l 529 0 l 375 0 l 160 540 q 14 650 115 650 l 14 694 l 442 694 l 442 650 q 353 626 368 650 q 364 540 338 601 l 556 65 l 747 540 q 759 626 774 601 q 671 650 744 650 l 671 694 l 971 694 z "},"Ÿ":{"ha":1033,"x_min":14,"x_max":1019,"o":"m 401 1031 q 340 1056 365 1031 q 314 1119 314 1082 q 340 1180 314 1154 q 401 1206 367 1206 q 462 1179 435 1206 q 489 1119 489 1153 q 463 1057 489 1083 q 401 1031 436 1031 m 635 1031 q 573 1056 599 1031 q 547 1119 547 1082 q 574 1180 547 1154 q 635 1206 600 1206 q 695 1179 668 1206 q 722 1119 722 1153 q 696 1057 722 1083 q 635 1031 669 1031 m 1019 917 l 1019 872 q 861 774 921 872 l 619 369 l 619 167 q 635 72 619 100 q 689 44 651 44 l 689 0 l 358 0 l 358 44 q 412 72 396 44 q 428 167 428 100 l 428 369 l 174 775 q 14 872 114 872 l 14 917 l 449 917 l 449 872 q 368 851 376 872 q 399 775 360 831 l 593 467 l 776 774 q 805 851 814 831 q 724 872 796 872 l 724 917 l 1019 917 z "},"Ź":{"ha":917,"x_min":56,"x_max":861,"o":"m 597 1222 q 558 1114 597 1161 q 470 1044 518 1067 q 369 1014 422 1022 l 319 1050 q 399 1102 374 1071 q 425 1194 425 1133 l 597 1222 m 817 215 l 861 211 l 843 28 l 840 0 l 56 0 l 56 92 l 621 844 l 239 844 q 141 811 172 844 q 103 701 110 778 l 58 706 l 76 889 l 79 917 l 847 917 l 847 825 l 282 72 l 681 72 q 778 106 747 72 q 817 215 810 139 z "},"ź":{"ha":806,"x_min":56,"x_max":750,"o":"m 264 828 q 344 880 318 849 q 369 972 369 911 l 542 1000 q 502 892 542 939 q 415 822 463 844 q 314 792 367 800 l 264 828 m 524 622 l 238 622 q 140 589 171 622 q 101 479 108 556 l 57 483 l 75 667 l 78 694 l 736 694 l 736 569 l 268 72 l 569 72 q 667 106 636 72 q 706 215 699 139 l 750 211 l 732 28 l 729 0 l 56 0 l 56 125 l 524 622 z "},"Ż":{"ha":917,"x_min":56,"x_max":861,"o":"m 458 1031 q 397 1056 422 1031 q 371 1119 371 1082 q 397 1180 371 1154 q 458 1206 424 1206 q 519 1179 492 1206 q 546 1119 546 1153 q 519 1057 546 1083 q 458 1031 493 1031 m 817 215 l 861 211 l 843 28 l 840 0 l 56 0 l 56 92 l 621 844 l 239 844 q 141 811 172 844 q 103 701 110 778 l 58 706 l 76 889 l 79 917 l 847 917 l 847 825 l 282 72 l 681 72 q 778 106 747 72 q 817 215 810 139 z "},"ż":{"ha":806,"x_min":56,"x_max":750,"o":"m 403 808 q 341 834 367 808 q 315 897 315 860 q 342 958 315 932 q 403 983 368 983 q 463 957 436 983 q 490 897 490 931 q 464 835 490 861 q 403 808 438 808 m 524 622 l 238 622 q 140 589 171 622 q 101 479 108 556 l 57 483 l 75 667 l 78 694 l 736 694 l 736 569 l 268 72 l 569 72 q 667 106 636 72 q 706 215 699 139 l 750 211 l 732 28 l 729 0 l 56 0 l 56 125 l 524 622 z "},"Ž":{"ha":917,"x_min":56,"x_max":861,"o":"m 379 1007 q 342 1088 369 1061 q 254 1129 314 1114 l 282 1224 q 385 1183 338 1213 q 451 1107 432 1153 l 465 1107 q 532 1183 485 1153 q 635 1224 579 1213 l 663 1129 q 575 1088 603 1114 q 538 1007 547 1061 l 379 1007 m 817 215 l 861 211 l 843 28 l 840 0 l 56 0 l 56 92 l 621 844 l 239 844 q 141 811 172 844 q 103 701 110 778 l 58 706 l 76 889 l 79 917 l 847 917 l 847 825 l 282 72 l 681 72 q 778 106 747 72 q 817 215 810 139 z "},"ž":{"ha":806,"x_min":56,"x_max":750,"o":"m 607 907 q 519 865 547 892 q 482 785 492 839 l 324 785 q 286 865 314 839 q 199 907 258 892 l 226 1001 q 329 960 282 990 q 396 885 376 931 l 410 885 q 476 960 429 931 q 579 1001 524 990 l 607 907 m 524 622 l 238 622 q 140 589 171 622 q 101 479 108 556 l 57 483 l 75 667 l 78 694 l 736 694 l 736 569 l 268 72 l 569 72 q 667 106 636 72 q 706 215 699 139 l 750 211 l 732 28 l 729 0 l 56 0 l 56 125 l 524 622 z "},"Ș":{"ha":931,"x_min":43,"x_max":889,"o":"m 88 679 q 196 869 88 807 q 475 931 304 931 q 633 914 561 931 q 766 860 706 897 q 844 760 826 822 q 840 608 863 699 l 649 636 q 651 808 700 757 q 475 858 601 858 q 279 721 279 858 q 328 630 279 663 q 485 564 378 597 q 718 483 669 506 q 885 300 864 417 q 889 253 889 278 q 496 -14 889 -14 q 353 -3 419 -14 q 222 34 286 8 q 119 103 157 60 q 62 213 81 147 q 68 368 43 278 l 260 340 q 499 58 172 58 q 651 97 604 58 q 697 210 697 135 q 663 290 697 257 q 593 338 628 324 q 472 379 558 353 q 465 381 468 381 q 458 383 463 382 q 451 386 454 385 q 218 474 275 442 q 88 679 88 546 m 417 -292 q 507 -239 494 -278 q 465 -251 489 -251 q 417 -228 435 -251 q 400 -171 400 -204 q 423 -115 400 -137 q 482 -92 446 -92 q 544 -116 519 -92 q 568 -189 568 -140 q 422 -342 568 -311 l 417 -292 z "},"ș":{"ha":726,"x_min":32,"x_max":685,"o":"m 56 514 q 138 661 56 614 q 357 708 221 708 q 461 701 413 708 q 554 674 510 693 q 625 626 599 656 q 663 553 651 597 q 656 451 674 510 l 464 479 q 458 601 492 565 q 361 636 425 636 q 247 546 247 636 q 278 474 247 499 q 403 422 310 449 q 491 397 463 406 q 564 369 519 389 q 630 329 608 350 q 668 275 651 308 q 685 200 685 242 q 600 38 685 89 q 383 -14 515 -14 q 269 -6 322 -14 q 167 23 217 3 q 88 76 117 43 q 46 161 60 110 q 51 282 32 213 l 243 254 q 372 58 175 58 q 463 88 433 58 q 493 165 493 117 q 455 244 493 219 q 325 297 417 269 q 216 331 254 317 q 135 369 178 344 q 74 430 93 394 q 56 514 56 465 m 296 -292 q 386 -239 374 -278 q 344 -251 368 -251 q 297 -228 314 -251 q 279 -171 279 -204 q 302 -115 279 -137 q 361 -92 325 -92 q 423 -116 399 -92 q 447 -189 447 -140 q 301 -342 447 -311 l 296 -292 z "},"Ț":{"ha":964,"x_min":42,"x_max":922,"o":"m 904 889 l 922 706 l 878 701 q 840 811 871 778 q 742 844 808 844 l 578 844 l 578 167 q 594 72 578 100 q 647 44 610 44 l 647 0 l 317 0 l 317 44 q 370 72 354 44 q 386 167 386 100 l 386 844 l 222 844 q 124 811 156 844 q 86 701 93 778 l 42 706 l 60 889 l 63 917 l 901 917 l 904 889 m 479 -92 q 541 -116 517 -92 q 565 -189 565 -140 q 419 -342 565 -311 l 414 -292 q 504 -239 492 -278 q 463 -251 486 -251 q 415 -228 432 -251 q 397 -171 397 -204 q 420 -115 397 -137 q 479 -92 443 -92 z "},"ț":{"ha":640,"x_min":56,"x_max":599,"o":"m 457 132 l 599 104 q 392 -14 557 -14 q 156 211 156 -14 l 156 622 l 56 622 l 56 694 q 185 749 146 706 q 225 917 225 793 l 347 917 l 347 694 l 557 694 q 556 664 557 674 q 549 642 554 654 q 528 626 543 631 q 490 622 514 622 l 347 622 l 347 236 q 349 160 347 186 q 355 108 350 135 q 372 69 360 81 q 404 58 383 58 q 443 74 431 58 q 457 132 456 90 m 376 -92 q 438 -116 414 -92 q 463 -189 463 -140 q 317 -342 463 -311 l 311 -292 q 401 -239 389 -278 q 360 -251 383 -251 q 312 -228 329 -251 q 294 -171 294 -204 q 317 -115 294 -137 q 376 -92 340 -92 z "},"ˆ":{"ha":519,"x_min":56,"x_max":464,"o":"m 464 886 l 436 792 q 333 833 381 803 q 267 908 286 863 l 253 908 q 186 833 233 863 q 83 792 139 803 l 56 886 q 143 928 115 901 q 181 1008 171 954 l 339 1008 q 376 928 349 954 q 464 886 404 901 z "},"ˇ":{"ha":519,"x_min":56,"x_max":464,"o":"m 464 907 q 376 865 404 892 q 339 785 349 839 l 181 785 q 143 865 171 839 q 56 907 115 892 l 83 1001 q 186 960 139 990 q 253 885 233 931 l 267 885 q 333 960 286 931 q 436 1001 381 990 l 464 907 z "},"˘":{"ha":544,"x_min":56,"x_max":489,"o":"m 489 1000 q 292 792 489 792 q 110 852 164 792 q 56 1000 56 913 l 247 1000 q 263 896 247 928 q 321 864 279 864 q 376 896 361 864 q 392 1000 392 928 l 489 1000 z "},"˙":{"ha":286,"x_min":56,"x_max":231,"o":"m 143 808 q 81 834 107 808 q 56 897 56 860 q 82 958 56 932 q 143 983 108 983 q 203 957 176 983 q 231 897 231 931 q 204 835 231 861 q 143 808 178 808 z "},"˚":{"ha":375,"x_min":56,"x_max":319,"o":"m 285 818 q 267 801 285 818 q 188 783 250 783 q 90 818 125 783 q 56 900 56 853 q 90 981 56 946 q 188 1017 125 1017 q 284 981 249 1017 q 319 900 319 946 q 285 818 319 853 m 139 900 q 139 878 139 900 q 188 856 139 856 q 236 900 236 856 q 188 944 236 944 q 139 900 139 944 z "},"˛":{"ha":431,"x_min":56,"x_max":375,"o":"m 56 -186 q 199 -14 56 -92 l 199 0 l 285 0 q 169 -156 169 -87 q 231 -215 169 -207 q 347 -175 292 -224 l 375 -247 q 247 -308 324 -297 q 113 -284 169 -318 q 56 -186 56 -250 z "},"˜":{"ha":597,"x_min":42,"x_max":556,"o":"m 417 792 q 337 808 374 792 q 278 846 300 825 q 232 883 257 867 q 186 900 207 900 q 151 878 158 900 q 164 806 143 856 l 64 833 q 76 953 42 906 q 181 1000 110 1000 q 260 983 224 1000 q 319 946 297 967 q 365 908 340 925 q 411 892 390 892 q 447 914 439 892 q 433 986 454 936 l 533 958 q 522 839 556 886 q 417 792 488 792 z "},"˝":{"ha":631,"x_min":56,"x_max":575,"o":"m 297 856 q 377 908 351 876 q 403 1000 403 939 l 575 1028 q 535 919 575 967 q 448 850 496 872 q 347 819 400 828 l 297 856 m 56 828 q 135 880 110 849 q 161 972 161 911 l 333 1000 q 294 892 333 939 q 206 822 254 844 q 106 792 158 800 l 56 828 z "},"̀":{"ha":0,"x_min":-333,"x_max":-56,"o":"m -56 828 l -106 792 q -206 822 -158 800 q -294 892 -254 844 q -333 1000 -333 939 l -161 972 q -135 880 -161 911 q -56 828 -110 849 z "},"́":{"ha":0,"x_min":-333,"x_max":-56,"o":"m -333 828 q -253 880 -279 849 q -228 972 -228 911 l -56 1000 q -95 892 -56 939 q -183 822 -135 844 q -283 792 -231 800 l -333 828 z "},"̂":{"ha":0,"x_min":-464,"x_max":-56,"o":"m -56 886 l -83 792 q -186 833 -139 803 q -253 908 -233 863 l -267 908 q -333 833 -286 863 q -436 792 -381 803 l -464 886 q -376 928 -404 901 q -339 1008 -349 954 l -181 1008 q -143 928 -171 954 q -56 886 -115 901 z "},"̃":{"ha":0,"x_min":-556,"x_max":-42,"o":"m -181 792 q -260 808 -224 792 q -319 846 -297 825 q -365 883 -340 867 q -411 900 -390 900 q -447 878 -439 900 q -433 806 -454 856 l -533 833 q -522 953 -556 906 q -417 1000 -487 1000 q -337 983 -374 1000 q -278 946 -300 967 q -232 908 -257 925 q -186 892 -207 892 q -151 914 -158 892 q -164 986 -143 936 l -64 958 q -76 839 -42 886 q -181 792 -110 792 z "},"̄":{"ha":0,"x_min":-487,"x_max":-56,"o":"m -487 932 l -56 932 l -56 860 l -487 860 l -487 932 z "},"̆":{"ha":0,"x_min":-489,"x_max":-56,"o":"m -56 1000 q -253 792 -56 792 q -435 852 -381 792 q -489 1000 -489 913 l -297 1000 q -281 896 -297 928 q -224 864 -265 864 q -168 896 -183 864 q -153 1000 -153 928 l -56 1000 z "},"̇":{"ha":0,"x_min":-231,"x_max":-56,"o":"m -143 808 q -205 834 -179 808 q -231 897 -231 860 q -204 958 -231 932 q -143 983 -178 983 q -83 957 -110 983 q -56 897 -56 931 q -82 835 -56 861 q -143 808 -108 808 z "},"̈":{"ha":0,"x_min":-464,"x_max":-56,"o":"m -376 808 q -438 834 -412 808 q -464 897 -464 860 q -437 958 -464 932 q -376 983 -411 983 q -316 957 -343 983 q -289 897 -289 931 q -315 835 -289 861 q -376 808 -342 808 m -143 808 q -205 834 -179 808 q -231 897 -231 860 q -204 958 -231 932 q -143 983 -178 983 q -83 957 -110 983 q -56 897 -56 931 q -82 835 -56 861 q -143 808 -108 808 z "},"̊":{"ha":0,"x_min":-319,"x_max":-56,"o":"m -90 818 q -108 801 -90 818 q -187 783 -125 783 q -285 818 -250 783 q -319 900 -319 853 q -285 981 -319 946 q -187 1017 -250 1017 q -91 981 -126 1017 q -56 900 -56 946 q -90 818 -56 853 m -236 900 q -236 878 -236 900 q -187 856 -236 856 q -139 900 -139 856 q -187 944 -139 944 q -236 900 -236 944 z "},"̋":{"ha":0,"x_min":-575,"x_max":-56,"o":"m -333 856 q -253 908 -279 876 q -228 1000 -228 939 l -56 1028 q -95 919 -56 967 q -183 850 -135 872 q -283 819 -231 828 l -333 856 m -575 828 q -495 880 -521 849 q -469 972 -469 911 l -297 1000 q -337 892 -297 939 q -424 822 -376 844 q -525 792 -472 800 l -575 828 z "},"̌":{"ha":0,"x_min":-464,"x_max":-56,"o":"m -56 907 q -143 865 -115 892 q -181 785 -171 839 l -339 785 q -376 865 -349 839 q -464 907 -404 892 l -436 1001 q -333 960 -381 990 q -267 885 -286 931 l -253 885 q -186 960 -233 931 q -83 1001 -139 990 l -56 907 z "},"̒":{"ha":0,"x_min":-224,"x_max":-56,"o":"m -72 999 q -162 940 -153 985 q -121 953 -144 953 q -73 929 -90 953 q -56 872 -56 906 q -78 816 -56 839 q -137 793 -101 793 q -199 817 -175 793 q -224 890 -224 842 q -187 990 -224 950 q -78 1043 -151 1031 l -72 999 z "},"̦":{"ha":0,"x_min":-224,"x_max":-56,"o":"m -207 -292 q -117 -239 -129 -278 q -158 -251 -135 -251 q -206 -228 -189 -251 q -224 -171 -224 -204 q -201 -115 -224 -137 q -142 -92 -178 -92 q -80 -116 -104 -92 q -56 -189 -56 -140 q -201 -342 -56 -311 l -207 -292 z "},"̧":{"ha":0,"x_min":-403,"x_max":-56,"o":"m -181 -67 q -94 -96 -133 -67 q -56 -187 -56 -125 q -105 -297 -56 -258 q -233 -335 -154 -335 q -356 -293 -308 -335 q -386 -185 -403 -251 l -286 -210 q -281 -249 -299 -236 q -236 -262 -262 -262 q -178 -244 -200 -262 q -156 -189 -156 -225 q -210 -139 -156 -139 q -292 -162 -251 -139 l -344 -153 l -307 0 l -207 0 l -276 -89 l -262 -89 q -181 -67 -226 -67 z "},"̨":{"ha":0,"x_min":-375,"x_max":-56,"o":"m -375 -186 q -232 -14 -375 -92 l -232 0 l -146 0 q -261 -156 -261 -87 q -200 -215 -261 -207 q -83 -175 -139 -224 l -56 -247 q -184 -308 -107 -297 q -318 -284 -261 -318 q -375 -186 -375 -250 z "},"̵":{"ha":0,"x_min":-506,"x_max":-56,"o":"m -506 383 l -56 383 l -56 311 l -506 311 l -506 383 z "},"̶":{"ha":0,"x_min":-1028,"x_max":-56,"o":"m -1028 383 l -56 383 l -56 311 l -1028 311 l -1028 383 z "},"̷":{"ha":0,"x_min":-544,"x_max":-56,"o":"m -56 1000 l -467 -83 l -544 -83 l -133 1000 l -56 1000 z "},"̸":{"ha":0,"x_min":-544,"x_max":-56,"o":"m -56 1000 l -467 -83 l -544 -83 l -133 1000 l -56 1000 z "},"Ẁ":{"ha":1768,"x_min":56,"x_max":1713,"o":"m 1015 1014 q 915 1044 963 1022 q 827 1114 867 1067 q 788 1222 788 1161 l 960 1194 q 985 1102 960 1133 q 1065 1050 1011 1071 l 1015 1014 m 1713 917 l 1713 872 q 1576 758 1614 872 l 1321 0 l 1121 0 l 883 794 l 644 0 l 443 0 l 192 758 q 56 872 154 872 l 56 917 l 479 917 l 479 872 q 388 847 406 872 q 393 758 371 821 l 604 121 l 846 917 l 1044 917 l 1285 118 l 1500 758 q 1505 847 1522 822 q 1414 872 1488 872 l 1414 917 l 1713 917 z "},"ẁ":{"ha":1343,"x_min":14,"x_max":1329,"o":"m 785 792 q 684 822 732 800 q 597 892 636 844 q 557 1000 557 939 l 729 972 q 755 880 729 911 q 835 828 781 849 l 785 792 m 1329 694 l 1329 650 q 1186 536 1224 650 l 1008 0 l 807 0 l 674 418 l 536 0 l 335 0 l 157 536 q 14 650 119 650 l 14 694 l 444 694 l 444 650 q 353 624 371 650 q 357 536 335 599 l 499 113 l 689 694 l 764 694 l 969 113 l 1110 536 q 1115 624 1132 599 q 1024 650 1097 650 l 1024 694 l 1329 694 z "},"Ẃ":{"ha":1768,"x_min":56,"x_max":1713,"o":"m 1085 1222 q 1045 1114 1085 1161 q 958 1044 1006 1067 q 857 1014 910 1022 l 807 1050 q 887 1102 861 1071 q 913 1194 913 1133 l 1085 1222 m 1713 917 l 1713 872 q 1576 758 1614 872 l 1321 0 l 1121 0 l 883 794 l 644 0 l 443 0 l 192 758 q 56 872 154 872 l 56 917 l 479 917 l 479 872 q 388 847 406 872 q 393 758 371 821 l 604 121 l 846 917 l 1044 917 l 1285 118 l 1500 758 q 1505 847 1522 822 q 1414 872 1488 872 l 1414 917 l 1713 917 z "},"ẃ":{"ha":1343,"x_min":14,"x_max":1329,"o":"m 854 1000 q 815 892 854 939 q 727 822 775 844 q 626 792 679 800 l 576 828 q 656 880 631 849 q 682 972 682 911 l 854 1000 m 1329 694 l 1329 650 q 1186 536 1224 650 l 1008 0 l 807 0 l 674 418 l 536 0 l 335 0 l 157 536 q 14 650 119 650 l 14 694 l 444 694 l 444 650 q 353 624 371 650 q 357 536 335 599 l 499 113 l 689 694 l 764 694 l 969 113 l 1110 536 q 1115 624 1132 599 q 1024 650 1097 650 l 1024 694 l 1329 694 z "},"Ẅ":{"ha":1768,"x_min":56,"x_max":1713,"o":"m 829 1031 q 767 1056 793 1031 q 742 1119 742 1082 q 768 1180 742 1154 q 829 1206 794 1206 q 890 1179 863 1206 q 917 1119 917 1153 q 890 1057 917 1083 q 829 1031 864 1031 m 1063 1031 q 1001 1056 1026 1031 q 975 1119 975 1082 q 1001 1180 975 1154 q 1063 1206 1028 1206 q 1123 1179 1096 1206 q 1150 1119 1150 1153 q 1124 1057 1150 1083 q 1063 1031 1097 1031 m 1713 917 l 1713 872 q 1576 758 1614 872 l 1321 0 l 1121 0 l 883 794 l 644 0 l 443 0 l 192 758 q 56 872 154 872 l 56 917 l 479 917 l 479 872 q 388 847 406 872 q 393 758 371 821 l 604 121 l 846 917 l 1044 917 l 1285 118 l 1500 758 q 1505 847 1522 822 q 1414 872 1488 872 l 1414 917 l 1713 917 z "},"ẅ":{"ha":1343,"x_min":14,"x_max":1329,"o":"m 599 808 q 537 834 563 808 q 511 897 511 860 q 538 958 511 932 q 599 983 564 983 q 659 957 632 983 q 686 897 686 931 q 660 835 686 861 q 599 808 633 808 m 832 808 q 770 834 796 808 q 744 897 744 860 q 771 958 744 932 q 832 983 797 983 q 892 957 865 983 q 919 897 919 931 q 893 835 919 861 q 832 808 867 808 m 1329 694 l 1329 650 q 1186 536 1224 650 l 1008 0 l 807 0 l 674 418 l 536 0 l 335 0 l 157 536 q 14 650 119 650 l 14 694 l 444 694 l 444 650 q 353 624 371 650 q 357 536 335 599 l 499 113 l 689 694 l 764 694 l 969 113 l 1110 536 q 1115 624 1132 599 q 1024 650 1097 650 l 1024 694 l 1329 694 z "},"Ỳ":{"ha":1033,"x_min":14,"x_max":1019,"o":"m 588 1014 q 487 1044 535 1022 q 399 1114 439 1067 q 360 1222 360 1161 l 532 1194 q 558 1102 532 1133 q 638 1050 583 1071 l 588 1014 m 1019 917 l 1019 872 q 861 774 921 872 l 619 369 l 619 167 q 635 72 619 100 q 689 44 651 44 l 689 0 l 358 0 l 358 44 q 412 72 396 44 q 428 167 428 100 l 428 369 l 174 775 q 14 872 114 872 l 14 917 l 449 917 l 449 872 q 368 851 376 872 q 399 775 360 831 l 593 467 l 776 774 q 805 851 814 831 q 724 872 796 872 l 724 917 l 1019 917 z "},"ỳ":{"ha":985,"x_min":14,"x_max":971,"o":"m 614 792 q 513 822 561 800 q 426 892 465 844 q 386 1000 386 939 l 558 972 q 584 880 558 911 q 664 828 610 849 l 614 792 m 971 694 l 971 650 q 825 540 869 650 l 585 -57 q 476 -226 536 -174 q 313 -278 417 -278 q 131 -209 186 -278 q 117 -28 75 -140 l 308 -56 q 280 -172 267 -139 q 342 -206 293 -206 q 507 -57 447 -206 l 529 0 l 375 0 l 160 540 q 14 650 115 650 l 14 694 l 442 694 l 442 650 q 353 626 368 650 q 364 540 338 601 l 556 65 l 747 540 q 759 626 774 601 q 671 650 744 650 l 671 694 l 971 694 z "},"–":{"ha":828,"x_min":56,"x_max":772,"o":"m 144 401 l 772 401 q 771 361 772 375 q 762 328 769 347 q 735 301 754 310 q 683 293 715 293 l 56 293 q 57 333 56 319 q 66 366 58 347 q 93 393 74 385 q 144 401 113 401 z "},"—":{"ha":1167,"x_min":56,"x_max":1111,"o":"m 144 401 l 1111 401 q 1110 361 1111 375 q 1101 328 1108 347 q 1074 301 1093 310 q 1022 293 1054 293 l 56 293 q 57 333 56 319 q 66 366 58 347 q 93 393 74 385 q 144 401 113 401 z "},"‘":{"ha":333,"x_min":56,"x_max":278,"o":"m 261 988 q 169 929 208 968 q 129 844 129 890 q 179 861 150 861 q 251 830 225 861 q 278 753 278 799 q 248 678 278 708 q 171 647 218 647 q 88 685 121 647 q 56 790 56 722 q 112 938 56 871 q 254 1032 168 1006 l 261 988 z "},"’":{"ha":333,"x_min":56,"x_max":278,"o":"m 74 674 q 165 732 125 693 q 204 817 204 771 q 154 800 183 800 q 82 831 108 800 q 56 908 56 863 q 85 983 56 953 q 163 1014 115 1014 q 245 976 213 1014 q 278 871 278 939 q 222 723 278 790 q 81 629 165 656 l 74 674 z "},"‚":{"ha":333,"x_min":56,"x_max":278,"o":"m 74 -140 q 165 -82 125 -121 q 204 3 204 -43 q 154 -14 183 -14 q 82 17 108 -14 q 56 94 56 49 q 85 169 56 139 q 163 200 115 200 q 245 163 213 200 q 278 57 278 125 q 222 -91 278 -24 q 81 -185 165 -158 l 74 -140 z "},"“":{"ha":624,"x_min":56,"x_max":568,"o":"m 261 988 q 169 929 208 968 q 129 844 129 890 q 179 861 150 861 q 251 830 225 861 q 278 753 278 799 q 248 678 278 708 q 171 647 218 647 q 88 685 121 647 q 56 790 56 722 q 112 938 56 871 q 254 1032 168 1006 l 261 988 m 551 988 q 459 929 499 968 q 419 844 419 890 q 469 861 440 861 q 542 830 515 861 q 568 753 568 799 q 538 678 568 708 q 461 647 508 647 q 378 685 411 647 q 346 790 346 722 q 402 938 346 871 q 544 1032 458 1006 l 551 988 z "},"”":{"ha":624,"x_min":56,"x_max":568,"o":"m 74 674 q 165 732 125 693 q 204 817 204 771 q 154 800 183 800 q 82 831 108 800 q 56 908 56 863 q 85 983 56 953 q 163 1014 115 1014 q 245 976 213 1014 q 278 871 278 939 q 222 723 278 790 q 81 629 165 656 l 74 674 m 364 674 q 455 732 415 693 q 494 817 494 771 q 444 800 474 800 q 372 831 399 800 q 346 908 346 863 q 376 983 346 953 q 453 1014 406 1014 q 535 976 503 1014 q 568 871 568 939 q 512 723 568 790 q 371 629 456 656 l 364 674 z "},"„":{"ha":333,"x_min":56,"x_max":278,"o":"m 163 200 q 245 163 213 200 q 278 57 278 125 q 222 -91 278 -24 q 81 -185 165 -158 l 74 -140 q 165 -82 125 -121 q 204 3 204 -43 q 154 -14 183 -14 q 82 17 108 -14 q 56 94 56 49 q 85 169 56 139 q 163 200 115 200 z "},"†":{"ha":667,"x_min":56,"x_max":611,"o":"m 456 789 l 611 789 l 611 689 l 456 689 q 367 706 417 689 q 383 617 383 656 l 383 157 l 283 157 l 283 617 q 300 706 283 656 q 211 689 250 689 l 56 689 l 56 789 l 211 789 q 300 772 250 789 q 283 861 283 822 l 283 1000 l 383 1000 l 383 861 q 367 772 383 822 q 456 789 417 789 z "},"‡":{"ha":667,"x_min":56,"x_max":611,"o":"m 611 689 l 456 689 q 367 706 417 689 q 383 617 383 656 l 383 540 q 367 451 383 501 q 456 468 417 468 l 611 468 l 611 368 l 456 368 q 367 385 417 368 q 383 296 383 335 l 383 157 l 283 157 l 283 296 q 300 385 283 335 q 211 368 250 368 l 56 368 l 56 468 l 211 468 q 300 451 250 468 q 283 540 283 501 l 283 617 q 300 706 283 656 q 211 689 250 689 l 56 689 l 56 789 l 211 789 q 300 772 250 789 q 283 861 283 822 l 283 1000 l 383 1000 l 383 861 q 367 772 383 822 q 456 789 417 789 l 611 789 l 611 689 z "},"•":{"ha":460,"x_min":56,"x_max":404,"o":"m 231 174 q 103 224 151 174 q 56 350 56 275 q 104 472 56 421 q 231 522 153 522 q 356 472 307 522 q 404 350 404 421 q 356 224 404 275 q 231 174 307 174 z "},"…":{"ha":875,"x_min":56,"x_max":819,"o":"m 163 -14 q 85 17 114 -14 q 56 94 56 47 q 85 169 56 139 q 163 200 115 200 q 240 169 210 200 q 269 94 269 139 q 240 17 269 49 q 163 -14 210 -14 m 438 -14 q 360 17 389 -14 q 331 94 331 47 q 360 169 331 139 q 438 200 390 200 q 515 169 485 200 q 544 94 544 139 q 515 17 544 49 q 438 -14 485 -14 m 713 -14 q 635 17 664 -14 q 606 94 606 47 q 635 169 606 139 q 713 200 665 200 q 790 169 760 200 q 819 94 819 139 q 790 17 819 49 q 713 -14 760 -14 z "},"‰":{"ha":1933,"x_min":56,"x_max":1878,"o":"m 411 919 q 504 933 463 914 q 578 978 546 951 q 649 1026 610 1004 q 755 1043 689 1047 q 911 1000 821 1039 l 500 -83 l 422 -83 l 833 1000 q 769 973 797 1000 q 718 919 740 946 q 640 876 696 892 q 493 883 583 861 q 589 682 589 815 q 523 506 589 579 q 321 433 457 433 q 120 506 185 433 q 56 682 56 579 q 120 858 56 785 q 321 931 185 931 q 411 919 369 931 m 322 506 q 385 546 372 506 q 397 682 397 586 q 396 756 397 731 q 388 808 394 781 q 365 847 381 836 q 322 858 349 858 q 260 818 272 858 q 247 682 247 778 q 249 608 247 633 q 257 556 250 583 q 280 517 264 528 q 322 506 296 506 m 809 410 q 841 447 809 410 q 1010 483 874 483 q 1212 410 1146 483 q 1278 235 1278 338 q 1212 59 1278 132 q 1010 -14 1146 -14 q 809 59 874 -14 q 744 235 744 132 q 809 410 744 338 m 1409 410 q 1441 447 1409 410 q 1610 483 1474 483 q 1812 410 1746 483 q 1878 235 1878 338 q 1812 59 1878 132 q 1610 -14 1746 -14 q 1409 59 1474 -14 q 1344 235 1344 132 q 1409 410 1344 338 m 1011 58 q 1074 99 1061 58 q 1086 235 1086 139 q 1085 308 1086 283 q 1076 361 1083 333 q 1053 400 1069 389 q 1011 411 1038 411 q 949 371 961 411 q 936 235 936 331 q 938 161 936 186 q 946 108 939 136 q 969 69 953 81 q 1011 58 985 58 m 1611 58 q 1647 67 1632 58 q 1669 90 1661 76 q 1681 128 1676 103 q 1685 176 1685 154 q 1686 235 1686 197 q 1685 308 1686 283 q 1676 361 1683 333 q 1653 400 1669 389 q 1611 411 1638 411 q 1549 371 1561 411 q 1536 235 1536 331 q 1538 161 1536 186 q 1546 108 1539 136 q 1569 69 1553 81 q 1611 58 1585 58 z "},"‹":{"ha":471,"x_min":56,"x_max":432,"o":"m 218 660 l 410 660 q 375 452 432 550 q 206 354 318 354 l 206 340 q 375 242 318 340 q 410 35 432 144 l 218 35 q 240 135 236 90 q 230 222 243 181 q 173 288 217 264 q 56 311 129 311 l 56 383 q 173 407 129 383 q 230 472 217 431 q 240 559 243 514 q 218 660 236 604 z "},"›":{"ha":471,"x_min":39,"x_max":415,"o":"m 253 660 q 231 559 235 604 q 241 472 228 514 q 298 407 254 431 q 415 383 342 383 l 415 311 q 298 288 342 311 q 241 222 254 264 q 231 135 228 181 q 253 35 235 90 l 61 35 q 96 242 39 144 q 265 340 153 340 l 265 354 q 96 452 153 354 q 61 660 39 550 l 253 660 z "},"⁄":{"ha":600,"x_min":56,"x_max":544,"o":"m 544 1000 l 133 -83 l 56 -83 l 467 1000 l 544 1000 z "},"€":{"ha":1092,"x_min":56,"x_max":1042,"o":"m 844 306 l 1036 333 q 937 78 1042 169 q 635 -14 832 -14 q 192 329 250 -14 l 56 329 l 56 401 l 182 401 q 181 458 181 419 l 181 464 l 83 464 l 83 536 l 185 536 q 322 828 204 726 q 649 931 440 931 q 939 840 836 931 q 1036 597 1042 750 l 844 625 q 806 796 856 733 q 649 858 757 858 q 375 536 401 858 l 633 536 l 633 464 l 372 464 l 372 458 q 374 401 372 419 l 606 401 l 606 329 l 379 329 q 458 128 397 197 q 635 58 518 58 q 844 306 867 58 z "},"™":{"ha":1006,"x_min":56,"x_max":950,"o":"m 400 1000 l 401 989 l 408 915 l 390 914 q 336 971 385 971 l 269 971 l 269 700 q 297 651 269 651 l 297 633 l 165 633 l 165 651 q 193 700 193 651 l 193 971 l 128 971 q 89 958 101 971 q 74 914 76 944 l 56 915 l 63 989 l 64 1000 l 400 1000 m 950 982 q 922 933 922 982 l 922 700 q 950 651 922 651 l 950 633 l 817 633 l 817 651 q 844 700 844 651 l 844 928 l 717 633 l 633 633 l 499 928 l 499 700 q 526 651 499 651 l 526 633 l 440 633 l 440 651 q 468 700 468 651 l 468 933 q 440 982 468 982 l 440 1000 l 476 1000 q 542 991 522 1000 q 578 944 561 982 l 701 668 l 821 944 q 858 990 838 979 q 913 1000 878 1000 l 950 1000 l 950 982 z "},"←":{"ha":683,"x_min":56,"x_max":628,"o":"m 628 297 l 310 297 q 230 308 275 297 q 160 319 185 319 q 382 132 321 240 l 310 69 q 56 297 214 219 l 56 397 q 310 625 214 475 l 382 563 q 160 375 321 454 q 230 386 185 375 q 310 397 275 397 l 628 397 l 628 297 z "},"↑":{"ha":667,"x_min":56,"x_max":611,"o":"m 383 650 q 611 396 461 492 l 549 324 q 361 546 440 385 q 372 476 361 521 q 383 396 383 431 l 383 78 l 283 78 l 283 396 q 294 476 283 431 q 306 546 306 521 q 118 324 226 385 l 56 396 q 283 650 206 492 l 383 650 z "},"→":{"ha":683,"x_min":56,"x_max":628,"o":"m 374 625 q 628 397 469 475 l 628 297 q 374 69 469 219 l 301 132 q 524 319 363 240 q 453 308 499 319 q 374 297 408 297 l 56 297 l 56 397 l 374 397 q 453 386 408 397 q 524 375 499 375 q 301 563 363 454 l 374 625 z "},"↓":{"ha":667,"x_min":56,"x_max":611,"o":"m 549 371 l 611 299 q 383 44 461 203 l 283 44 q 56 299 206 203 l 118 371 q 306 149 226 310 q 294 219 306 174 q 283 299 283 264 l 283 617 l 383 617 l 383 299 q 372 219 383 264 q 361 149 361 174 q 549 371 440 310 z "},"↔":{"ha":1039,"x_min":56,"x_max":983,"o":"m 729 625 q 983 397 825 475 l 983 297 q 729 69 825 219 l 657 132 q 879 319 718 240 q 809 308 854 319 q 729 297 764 297 l 310 297 q 230 308 275 297 q 160 319 185 319 q 382 132 321 240 l 310 69 q 56 297 214 219 l 56 397 q 310 625 214 475 l 382 563 q 160 375 321 454 q 230 386 185 375 q 310 397 275 397 l 729 397 q 809 386 764 397 q 879 375 854 375 q 657 563 718 454 l 729 625 z "},"↕":{"ha":667,"x_min":56,"x_max":611,"o":"m 361 -12 q 549 210 440 149 l 611 138 q 383 -117 461 42 l 283 -117 q 56 138 206 42 l 118 210 q 306 -12 226 149 q 294 58 306 13 q 283 138 283 103 l 283 557 q 294 637 283 592 q 306 707 306 682 q 118 485 226 546 l 56 557 q 283 811 206 653 l 383 811 q 611 557 461 653 l 549 485 q 361 707 440 546 q 372 637 361 682 q 383 557 383 592 l 383 138 q 372 58 383 103 q 361 -12 361 13 z "},"↖":{"ha":586,"x_min":56,"x_max":531,"o":"m 306 417 l 531 193 l 460 122 l 235 347 q 186 410 210 371 q 144 468 163 450 q 169 179 203 297 l 74 186 q 56 526 113 360 l 126 597 q 467 578 294 540 l 474 483 q 183 508 356 450 q 241 466 201 490 q 306 417 281 442 z "},"↗":{"ha":586,"x_min":56,"x_max":531,"o":"m 531 526 q 513 186 475 356 l 417 179 q 442 468 383 297 q 401 411 425 451 q 351 347 376 371 l 126 122 l 56 193 l 281 417 q 345 466 306 442 q 403 508 385 490 q 113 483 231 450 l 119 578 q 461 597 292 540 l 531 526 z "},"↘":{"ha":586,"x_min":56,"x_max":531,"o":"m 513 508 q 531 168 475 339 l 461 97 q 119 117 292 154 l 113 211 q 403 186 231 244 q 345 228 385 204 q 281 278 306 253 l 56 501 l 126 572 l 351 347 q 401 283 376 324 q 442 226 425 243 q 417 515 383 397 l 513 508 z "},"↙":{"ha":586,"x_min":56,"x_max":531,"o":"m 183 186 q 474 211 356 244 l 467 117 q 126 97 294 154 l 56 168 q 74 508 113 335 l 169 515 q 144 226 203 397 q 186 284 163 244 q 235 347 210 324 l 460 572 l 531 501 l 306 278 q 241 228 281 253 q 183 186 201 204 z "},"∂":{"ha":783,"x_min":56,"x_max":728,"o":"m 224 1000 q 448 925 351 976 q 596 815 544 874 q 679 683 647 757 q 719 554 711 610 q 728 440 728 499 q 710 283 728 357 q 655 139 693 208 q 544 28 617 69 q 371 -14 471 -14 q 222 14 286 -14 q 123 87 157 42 q 72 179 89 132 q 56 274 56 226 q 149 516 56 436 q 374 596 243 596 q 626 504 522 596 q 599 637 621 576 q 531 757 578 697 q 400 861 485 817 q 196 928 315 906 l 224 1000 m 374 58 q 483 82 436 58 q 557 142 531 106 q 600 230 583 178 q 622 328 617 282 q 628 429 626 374 q 379 524 514 524 q 217 466 278 524 q 156 293 156 408 q 164 206 156 243 q 194 133 172 168 q 261 78 215 97 q 374 58 307 58 z "},"∅":{"ha":835,"x_min":57,"x_max":779,"o":"m 699 579 q 779 347 779 481 q 677 91 779 196 q 418 -14 575 -14 q 186 67 285 -14 l 108 -11 l 58 38 l 136 115 q 57 347 57 214 q 159 603 57 499 q 418 708 261 708 q 649 628 550 708 l 726 706 l 776 657 l 699 579 m 157 347 q 208 188 157 256 l 578 557 q 418 608 507 608 q 231 533 304 608 q 157 347 157 457 m 418 86 q 605 162 531 86 q 679 347 679 238 q 626 507 679 436 l 257 138 q 418 86 326 86 z "},"∏":{"ha":844,"x_min":56,"x_max":789,"o":"m 719 -42 q 735 -136 719 -108 q 789 -164 751 -164 l 789 -208 l 550 -208 l 550 -164 q 603 -136 588 -164 q 619 -42 619 -108 l 619 928 l 225 928 l 225 -42 q 241 -136 225 -108 q 294 -164 257 -164 l 294 -208 l 56 -208 l 56 -164 q 109 -136 93 -164 q 125 -42 125 -108 l 125 1000 l 719 1000 l 719 -42 z "},"∑":{"ha":832,"x_min":56,"x_max":776,"o":"m 732 19 l 776 17 l 765 -149 l 761 -208 l 56 -208 l 56 -108 l 383 382 l 56 928 l 56 1000 l 736 1000 l 739 968 l 756 803 l 711 799 q 674 897 704 867 q 576 928 643 928 l 172 928 l 485 404 l 142 -108 l 601 -108 q 698 -78 668 -108 q 732 19 728 -49 z "},"−":{"ha":667,"x_min":56,"x_max":611,"o":"m 56 397 l 611 397 l 611 297 l 56 297 l 56 397 z "},"√":{"ha":843,"x_min":56,"x_max":788,"o":"m 713 1000 l 788 1000 l 489 -208 l 356 -208 l 163 246 l 56 246 l 56 318 l 242 318 l 424 -115 l 438 -115 l 713 1000 z "},"∞":{"ha":1150,"x_min":56,"x_max":1094,"o":"m 856 610 q 1034 535 974 610 q 1094 349 1094 461 q 1034 160 1094 235 q 857 86 974 86 q 814 90 835 86 q 776 97 793 93 q 742 112 760 101 q 712 128 724 122 q 683 151 700 135 q 658 173 665 167 q 635 198 651 179 q 615 222 618 217 q 594 247 611 226 q 576 271 578 268 q 448 134 511 182 q 294 86 385 86 q 116 160 176 86 q 56 349 56 235 q 116 535 56 461 q 293 610 176 610 q 346 604 319 610 q 391 592 372 599 q 433 570 410 586 q 466 547 456 554 q 499 515 476 539 q 526 486 521 492 q 552 453 531 481 q 575 424 574 425 q 703 560 639 511 q 856 610 767 610 m 282 214 q 426 253 371 214 q 542 378 481 292 q 429 478 485 447 q 297 510 374 510 q 174 468 221 510 q 128 353 128 426 q 171 247 128 281 q 282 214 214 214 m 721 217 q 749 202 721 217 q 853 186 776 186 q 976 228 929 186 q 1022 344 1022 269 q 979 449 1022 415 q 868 482 936 482 q 724 442 779 482 q 610 318 668 403 q 721 217 665 249 z "},"∫":{"ha":586,"x_min":42,"x_max":544,"o":"m 413 914 q 348 851 367 914 q 332 688 329 789 q 344 467 335 588 q 355 225 353 346 q 346 3 357 104 q 290 -160 335 -97 q 165 -222 244 -222 q 72 -169 103 -222 q 74 -17 42 -115 l 146 -44 q 137 -94 131 -76 q 152 -117 143 -111 q 174 -122 161 -122 q 238 -60 219 -122 q 254 103 257 3 q 242 325 251 204 q 231 567 233 446 q 240 788 229 688 q 297 951 251 889 q 421 1014 342 1014 q 514 960 483 1014 q 513 808 544 907 l 440 836 q 449 885 456 868 q 434 908 443 903 q 413 914 425 914 z "},"≈":{"ha":675,"x_min":40,"x_max":635,"o":"m 499 364 q 381 394 442 364 q 265 456 319 425 q 171 486 211 486 q 140 375 96 486 l 68 403 q 72 541 40 496 q 176 586 103 586 q 294 556 233 586 q 410 494 356 525 q 504 464 464 464 q 535 575 579 464 l 607 547 q 603 409 635 454 q 499 364 572 364 m 499 108 q 381 139 442 108 q 265 200 319 169 q 171 231 211 231 q 140 119 96 231 l 68 147 q 72 285 40 240 q 176 331 103 331 q 294 300 233 331 q 410 239 356 269 q 504 208 464 208 q 535 319 579 208 l 607 292 q 603 153 635 199 q 499 108 572 108 z "},"≠":{"ha":667,"x_min":56,"x_max":611,"o":"m 611 408 l 396 408 l 350 286 l 611 286 l 611 186 l 314 186 l 244 0 l 167 0 l 236 186 l 56 186 l 56 286 l 272 286 l 318 408 l 56 408 l 56 508 l 354 508 l 424 694 l 501 694 l 432 508 l 611 508 l 611 408 z "},"≤":{"ha":667,"x_min":56,"x_max":611,"o":"m 300 438 q 172 403 222 403 l 172 389 q 300 354 222 389 l 611 224 l 611 32 l 56 32 l 56 132 l 572 132 l 64 346 l 64 446 l 611 676 l 611 568 l 300 438 z "},"≥":{"ha":667,"x_min":56,"x_max":611,"o":"m 94 132 l 611 132 l 611 32 l 56 32 l 56 224 l 367 354 q 494 389 444 389 l 494 403 q 367 438 444 403 l 56 568 l 56 676 l 603 446 l 603 346 l 94 132 z "},"◊":{"ha":672,"x_min":56,"x_max":617,"o":"m 388 1000 l 617 478 l 388 -44 l 288 -44 l 56 478 l 288 1000 l 388 1000 m 371 167 l 508 478 l 371 789 q 343 908 346 846 l 331 908 q 304 789 331 850 l 165 478 l 304 167 q 331 47 331 106 l 343 47 q 371 167 346 110 z "}}}
